SplineFontDB: 3.2
FontName: D-DIN-PRO-Condensed-Light-Italic
FullName: D-DIN-PRO-Condensed-Light-Italic
FamilyName: D-DIN-PRO-Condensed
Weight: Regular
Copyright: Copyright (c) CyberFei. All rights reserved
Version: 1.1.0
ItalicAngle: -13
UnderlinePosition: -150
UnderlineWidth: 50
Ascent: 831
Descent: 169
InvalidEm: 0
sfntRevision: 0x00010000
LayerCount: 2
Layer: 0 0 "Back" 1
Layer: 1 0 "Fore" 0
XUID: [1021 868 -1451673819 12422]
StyleMap: 0x0040
FSType: 4
OS2Version: 3
OS2_WeightWidthSlopeOnly: 0
OS2_UseTypoMetrics: 0
CreationTime: 1462909513
ModificationTime: 1778060080
PfmFamily: 17
TTFWeight: 300
TTFWidth: 3
LineGap: 86
VLineGap: 0
Panose: 2 11 5 6 3 2 2 3 2 4
OS2TypoAscent: 831
OS2TypoAOffset: 0
OS2TypoDescent: -169
OS2TypoDOffset: 0
OS2TypoLinegap: 86
OS2WinAscent: 902
OS2WinAOffset: 0
OS2WinDescent: 184
OS2WinDOffset: 0
HheadAscent: 831
HheadAOffset: 0
HheadDescent: -169
HheadDOffset: 0
OS2SubXSize: 650
OS2SubYSize: 600
OS2SubXOff: 0
OS2SubYOff: 75
OS2SupXSize: 650
OS2SupYSize: 600
OS2SupXOff: 0
OS2SupYOff: 350
OS2StrikeYSize: 50
OS2StrikeYPos: 310
OS2CapHeight: 690
OS2XHeight: 517
OS2Vendor: 'MONO'
OS2CodePages: 00000001.00000000
OS2UnicodeRanges: 8000006f.4000000a.00000000.00000000
Lookup: 1 0 0 "'rtla' Right to Left Alternates lookup 0" { "'rtla' Right to Left Alternates lookup 0 subtable"  } ['rtla' ('DFLT' <'dflt' > ) ]
Lookup: 1 0 0 "'sups' Superscript lookup 1" { "'sups' Superscript lookup 1 subtable" ("superior") } ['sups' ('DFLT' <'dflt' > ) ]
Lookup: 4 0 0 "'frac' Diagonal Fractions lookup 2" { "'frac' Diagonal Fractions lookup 2 subtable"  } ['frac' ('DFLT' <'dflt' > ) ]
Lookup: 4 0 0 "'dlig' Discretionary Ligatures in Latin lookup 3" { "'dlig' Discretionary Ligatures in Latin lookup 3 subtable"  } ['dlig' ('latn' <'dflt' > ) ]
Lookup: 4 0 1 "'liga' Standard Ligatures in Latin lookup 4" { "'liga' Standard Ligatures in Latin lookup 4 subtable"  } ['liga' ('latn' <'dflt' > ) ]

StartChar: .notdef
Encoding: 65536 -1 0
Width: 602
GlyphClass: 1
Flags: W
LayerCount: 2
Fore
SplineSet
567.647460938 688.91015625 m 1
 178.006835938 688.91015625 l 1
 19.0537109375 0.41015625 l 1
 408.694335938 0.41015625 l 1
 567.647460938 688.91015625 l 1
393.788085938 19.7900390625 m 1
 42.9072265625 19.7900390625 l 1
 192.912109375 669.530273438 l 1
 543.79296875 669.530273438 l 1
 393.788085938 19.7900390625 l 1
EndSplineSet
EndChar

StartChar: exclam
Encoding: 33 33 3
Width: 199
GlyphClass: 2
Flags: MW
VStem: 63.7734 64.2598 73.7598 43.2822
LayerCount: 2
Fore
SplineSet
207.3515625 688.91015625 m 1x40
 135.38671875 688.91015625 l 1
 36.435546875 200.330078125 l 1
 79.7177734375 200.330078125 l 1
 207.3515625 688.91015625 l 1x40
63.86328125 84.0498046875 m 1x80
 -0.396484375 84.0498046875 l 1
 -19.7060546875 0.41015625 l 1
 44.5537109375 0.41015625 l 1
 63.86328125 84.0498046875 l 1x80
EndSplineSet
EndChar

StartChar: quotedbl
Encoding: 34 34 4
Width: 276
GlyphClass: 2
Flags: MW
HStem: 467.57 221.34<116.807 119.767 119.767 119.767 116.807 249.407 249.407 252.366 252.366 252.366>
LayerCount: 2
Fore
SplineSet
170.8671875 688.91015625 m 1
 116.806640625 688.91015625 l 1
 65.7060546875 467.5703125 l 1
 119.766601562 467.5703125 l 1
 170.8671875 688.91015625 l 1
303.466796875 688.91015625 m 1
 249.407226562 688.91015625 l 1
 198.306640625 467.5703125 l 1
 252.366210938 467.5703125 l 1
 303.466796875 688.91015625 l 1
EndSplineSet
EndChar

StartChar: numbersign
Encoding: 35 35 5
Width: 462
GlyphClass: 2
Flags: W
LayerCount: 2
Fore
SplineSet
370.078125 434.9296875 m 1
 451.890625 434.9296875 l 1
 462.48828125 480.830078125 l 1
 385.076171875 480.830078125 l 1
 456.575195312 688.91015625 l 1
 404.6875 688.91015625 l 1
 334.208007812 480.830078125 l 1
 198.416015625 480.830078125 l 1
 269.916015625 688.91015625 l 1
 218.02734375 688.91015625 l 1
 147.547851562 480.830078125 l 1
 68.767578125 480.830078125 l 1
 58.169921875 434.9296875 l 1
 131.495117188 434.9296875 l 1
 76.2568359375 273.76953125 l 1
 -0.4560546875 273.76953125 l 1
 -11.0537109375 227.870117188 l 1
 61.2529296875 227.870117188 l 1
 -16.759765625 0.41015625 l 1
 34.1435546875 0.41015625 l 1
 112.15625 227.870117188 l 1
 247.913085938 227.870117188 l 1
 169.900390625 0.41015625 l 1
 220.802734375 0.41015625 l 1
 298.815429688 227.870117188 l 1
 383.686523438 227.870117188 l 1
 394.284179688 273.76953125 l 1
 314.83984375 273.76953125 l 1
 370.078125 434.9296875 l 1
128.1796875 273.76953125 m 1
 183.41796875 434.9296875 l 1
 318.154296875 434.9296875 l 1
 262.916992188 273.76953125 l 1
 128.1796875 273.76953125 l 1
EndSplineSet
EndChar

StartChar: dollar
Encoding: 36 36 6
Width: 370
GlyphClass: 2
Flags: MW
HStem: 26.9033 44.3311<123.091 133.325> 609.162 48.9668<209.416 230.061>
VStem: 28.0732 53.041 271.501 47.7461 273.895 53.0391
LayerCount: 2
Fore
SplineSet
288.078125 193.700195312 m 0xe8
 312.296875 298.603515625 268.899414062 341.333984375 202.813476562 372.22265625 c 1
 257.521484375 609.189453125 l 1
 266.791015625 605.912109375 l 2
 302.09375 593.4296875 312.987304688 556.326171875 303.409179688 500.208984375 c 1
 351.155273438 500.208984375 l 1xf0
 372.140625 638.233398438 302.751953125 651.807617188 268.646484375 657.377929688 c 1
 290.76171875 753.168945312 l 1
 252.001953125 753.168945312 l 1
 230.060546875 658.12890625 l 1
 207.008789062 655.510742188 163.40234375 650.559570312 119.576171875 609.073242188 c 0
 90.5712890625 581.619140625 69.8798828125 543.084960938 58.21484375 492.557617188 c 0
 48.7333984375 451.490234375 50.2158203125 419.171875 61.818359375 394.981445312 c 0
 73.3994140625 370.836914062 98.662109375 349.012695312 138.642578125 330.206054688 c 2
 152.705078125 323.065429688 l 1
 94.3896484375 70.4755859375 l 1
 85.33984375 73.09375 l 2
 45.1044921875 84.734375 31.3271484375 123.65234375 40.5107421875 184.0078125 c 1
 -14.685546875 184.0078125 l 1
 -39.564453125 40.3115234375 41.033203125 29.8115234375 84.203125 26.349609375 c 1
 61.2587890625 -73.0322265625 l 1
 100.018554688 -73.0322265625 l 1
 123.090820312 26.9033203125 l 1
 156.657226562 31.6923828125 253.87890625 45.5634765625 288.078125 193.700195312 c 0xe8
113.610351562 502.7578125 m 0
 121.130859375 535.330078125 143.7265625 595.063476562 209.416015625 609.162109375 c 2
 219.243164062 611.271484375 l 1
 167.352539062 386.508789062 l 1
 132.471679688 405.55078125 96.1904296875 427.303710938 113.610351562 502.7578125 c 0
232.919921875 184.51953125 m 0xe8
 219.373046875 125.842773438 189.836914062 87.001953125 143.83984375 74.16796875 c 2
 133.325195312 71.234375 l 1
 187.471679688 305.767578125 l 1
 221.1171875 283.833984375 250.9296875 262.528320312 232.919921875 184.51953125 c 0xe8
128.263671875 696.559570312 m 1024
EndSplineSet
EndChar

StartChar: percent
Encoding: 37 37 7
Width: 695
GlyphClass: 2
Flags: MW
HStem: -7.74902 47.9404<462.9 497.646> 269.69 47.9395<102.63 137.376> 370.671 47.9404<542.887 578.697> 648.111 47.9385<182.617 218.412>
VStem: 33.1748 55.082 176.995 55.0781 457.496 55.082 601.317 55.0781
LayerCount: 2
Fore
SplineSet
40.00390625 391.580078125 m 2
 16.666015625 290.491210938 59.150390625 269.690429688 111.311523438 269.690429688 c 0
 163.440429688 269.690429688 215.557617188 290.4609375 238.90234375 391.580078125 c 2
 281.525390625 576.200195312 l 2
 304.322265625 674.946289062 262.620117188 696.049804688 209.744140625 696.049804688 c 0
 155.489257812 696.049804688 104.799804688 672.2421875 82.626953125 576.200195312 c 2
 40.00390625 391.580078125 l 2
568.498046875 688.91015625 m 1
 520.499023438 688.91015625 l 1
 114.084960938 0.41015625 l 1
 162.083984375 0.41015625 l 1
 568.498046875 688.91015625 l 1
183.82421875 391.581054688 m 2
 175.2734375 354.541015625 161.872070312 317.629882812 122.381835938 317.629882812 c 0
 82.87890625 317.629882812 86.541015625 354.569335938 95.0859375 391.580078125 c 2
 137.708984375 576.200195312 l 2
 146.0390625 612.283203125 159.225585938 648.111328125 198.678710938 648.111328125 c 0
 238.145507812 648.111328125 234.772460938 612.259765625 226.447265625 576.201171875 c 2
 183.82421875 391.581054688 l 2
400.2734375 114.140625 m 2
 376.934570312 13.0517578125 419.420898438 -7.7490234375 471.58203125 -7.7490234375 c 0
 523.7109375 -7.7490234375 575.827148438 13.021484375 599.172851562 114.140625 c 2
 641.795898438 298.760742188 l 2
 664.592773438 397.5078125 622.890625 418.611328125 570.014648438 418.611328125 c 0
 515.759765625 418.611328125 465.069335938 394.802734375 442.896484375 298.760742188 c 2
 400.2734375 114.140625 l 2
544.094726562 114.139648438 m 2
 535.543945312 77.1044921875 522.143554688 40.19140625 482.65234375 40.19140625 c 0
 443.1484375 40.19140625 446.810546875 77.1298828125 455.35546875 114.140625 c 2
 497.978515625 298.760742188 l 2
 506.313476562 334.86328125 519.50390625 370.670898438 558.94921875 370.670898438 c 0
 598.4453125 370.670898438 595.024414062 334.743164062 586.716796875 298.759765625 c 2
 544.094726562 114.139648438 l 2
EndSplineSet
EndChar

StartChar: ampersand
Encoding: 38 38 8
Width: 520
GlyphClass: 2
Flags: MW
HStem: -9.79102 55.0811<101.698 152.039> -0.609375 54.0596<376.706 378.875 378.875 378.875> 651.171 47.9385<284.062 303.972>
VStem: 50.5117 59.1582 95.3916 59.1582 297.35 58.1406
LayerCount: 2
Fore
SplineSet
378.875 -0.609375 m 1x74
 383.03515625 17.4111328125 387.198242188 35.4306640625 391.358398438 53.4501953125 c 1
 387.7890625 53.4501953125 l 2
 365.623046875 53.4501953125 356.564453125 64.7763671875 348.325195312 87.828125 c 2
 329.676757812 140.736328125 l 1
 427.58984375 257.619140625 l 1
 391.703125 284.97265625 l 1
 311.892578125 188.915039062 l 1
 247.970703125 368.153320312 l 1
 338.146484375 445.400390625 387.12109375 499.009765625 402.586914062 565.999023438 c 0
 411.956054688 606.579101562 407.181640625 638.377929688 388.8515625 662.626953125 c 0
 370.5 686.901367188 342.3984375 699.109375 303.268554688 699.109375 c 0
 264.856445312 699.109375 231.259765625 686.92578125 201.306640625 662.590820312 c 0
 171.451171875 638.3359375 151.8515625 606.555664062 142.48828125 566 c 0x6c
 133.247070312 525.969726562 137.250976562 490.20703125 174.6015625 387.393554688 c 2
 179.71484375 374.419921875 l 1
 67.708984375 275.618164062 16.08984375 212.903320312 -0.1181640625 142.69921875 c 0
 -10.9345703125 95.8486328125 -6.4716796875 59.1845703125 12.505859375 31.591796875 c 0
 31.4072265625 4.1064453125 62.3818359375 -9.791015625 106.965820312 -9.791015625 c 0xb4
 197.111328125 -9.791015625 248.880859375 47.42578125 283.325195312 85.4951171875 c 1
 287.166015625 75.2568359375 l 1
 287.166015625 75.2568359375 299.795898438 41.5966796875 299.846679688 41.455078125 c 0
 305.791992188 24.2763671875 312.625 13.1416015625 319.305664062 7.765625 c 0
 325.834960938 2.5126953125 336.788085938 -0.609375 352.864257812 -0.609375 c 2
 378.875 -0.609375 l 1x74
293.220703125 651.170898438 m 0
 314.723632812 651.170898438 330.952148438 643.684570312 340.252929688 628.568359375 c 0
 349.5234375 613.501953125 350.680664062 593.001953125 344.91796875 568.041015625 c 0
 332.624023438 514.790039062 296.380859375 478.421875 230.172851562 418.407226562 c 1
 207.099609375 480.915039062 192.392578125 525.916992188 202.118164062 568.040039062 c 0
 207.74609375 592.41796875 218.581054688 612.754882812 235.13671875 628.071289062 c 0
 251.776367188 643.465820312 271.654296875 651.170898438 293.220703125 651.170898438 c 0
125.801757812 45.2900390625 m 0xb4
 77.59375 45.2900390625 43.5419921875 75.56640625 59.982421875 146.780273438 c 0
 74.9541015625 211.630859375 127.758789062 263.16796875 197.794921875 324.890625 c 1
 265.500976562 134.350585938 l 1
 228.075195312 91.5927734375 183.716796875 45.2900390625 125.801757812 45.2900390625 c 0xb4
EndSplineSet
EndChar

StartChar: quotesingle
Encoding: 39 39 9
Width: 144
GlyphClass: 2
Flags: MW
HStem: 467.57 221.34<116.807 119.767 119.767 119.767>
VStem: 41.333 54.0605
LayerCount: 2
Fore
SplineSet
170.8671875 688.91015625 m 1
 116.806640625 688.91015625 l 1
 65.7060546875 467.5703125 l 1
 119.766601562 467.5703125 l 1
 170.8671875 688.91015625 l 1
EndSplineSet
EndChar

StartChar: parenleft
Encoding: 40 40 10
Width: 255
GlyphClass: 2
Flags: MW
VStem: 50.5137 55.0811
LayerCount: 2
Fore
SplineSet
236.80859375 739.909179688 m 1
 191.624023438 678.434570312 88.7646484375 527.68359375 42.5068359375 327.319335938 c 0
 28.146484375 265.119140625 -3.78515625 101.543945312 46.322265625 -85.26953125 c 1
 90.033203125 -85.26953125 l 1
 79.591796875 -34.30859375 50.7666015625 124.514648438 97.587890625 327.319335938 c 0
 119.954101562 424.197265625 169.7421875 572.655273438 280.5859375 739.909179688 c 1
 236.80859375 739.909179688 l 1
EndSplineSet
Substitution2: "'rtla' Right to Left Alternates lookup 0 subtable" parenright
EndChar

StartChar: parenright
Encoding: 41 41 11
Width: 255
GlyphClass: 2
Flags: MW
VStem: 142.313 55.0811
LayerCount: 2
Fore
SplineSet
141.817382812 739.911132812 m 1
 160.765625 645.637695312 174.0546875 499.487304688 134.307617188 327.321289062 c 0
 121.490234375 271.8046875 79.3447265625 106.73046875 -48.6455078125 -85.2685546875 c 1
 -4.9345703125 -85.2685546875 l 1
 40.560546875 -22.94140625 143.599609375 128.989257812 189.388671875 327.321289062 c 0
 212.252929688 426.358398438 229.938476562 577.640625 185.594726562 739.911132812 c 1
 141.817382812 739.911132812 l 1
EndSplineSet
Substitution2: "'rtla' Right to Left Alternates lookup 0 subtable" parenleft
EndChar

StartChar: asterisk
Encoding: 42 42 12
Width: 345
GlyphClass: 2
Flags: MW
HStem: 417.59 271.32<164.327 262.667 200.027 262.667>
LayerCount: 2
Fore
SplineSet
200.02734375 417.58984375 m 1
 225.579101562 528.268554688 l 1
 296.997070312 480.54296875 l 1
 318.787109375 507.096679688 l 1
 244.59375 555.7578125 l 1
 340.413085938 604.540039062 l 1
 331.600585938 630.983398438 l 1
 238.291992188 583.331054688 l 1
 262.666992188 688.91015625 l 1
 226.966796875 688.91015625 l 1
 202.827148438 584.3515625 l 1
 131.473632812 632.03515625 l 1
 109.291015625 604.508789062 l 1
 182.474609375 555.799804688 l 1
 86.8828125 507.1328125 l 1
 96.42578125 480.54296875 l 1
 189.87890625 528.268554688 l 1
 164.327148438 417.58984375 l 1
 200.02734375 417.58984375 l 1
EndSplineSet
EndChar

StartChar: plus
Encoding: 43 43 13
Width: 419
GlyphClass: 2
Flags: MW
HStem: 108.53 331.5<122.555 250.088 173.555 250.088>
VStem: 40.3135 332.52
LayerCount: 2
Fore
SplineSet
173.5546875 108.530273438 m 1
 205.81640625 248.26953125 l 1
 346.576171875 248.26953125 l 1
 358.5859375 300.290039062 l 1
 217.826171875 300.290039062 l 1
 250.087890625 440.030273438 l 1
 199.087890625 440.030273438 l 1
 166.826171875 300.290039062 l 1
 26.06640625 300.290039062 l 1
 14.056640625 248.26953125 l 1
 154.81640625 248.26953125 l 1
 122.5546875 108.530273438 l 1
 173.5546875 108.530273438 l 1
EndSplineSet
EndChar

StartChar: comma
Encoding: 44 44 14
Width: 144
GlyphClass: 2
Flags: MW
VStem: 41.333 54.0605
LayerCount: 2
Fore
SplineSet
30.28125 79.9697265625 m 1
 -23.779296875 79.9697265625 l 1
 -73.24609375 -134.295898438 l 1
 -8.3564453125 -87.3916015625 l 1
 30.28125 79.9697265625 l 1
EndSplineSet
EndChar

StartChar: hyphen
Encoding: 45 45 15
Width: 373
GlyphClass: 2
Flags: MW
HStem: 321.71 51<52.9863 306.412 306.412 306.412>
VStem: 50.5137 265.2
LayerCount: 2
Fore
SplineSet
318.186523438 372.709960938 m 1
 52.986328125 372.709960938 l 1
 41.2119140625 321.709960938 l 1
 306.412109375 321.709960938 l 1
 318.186523438 372.709960938 l 1
EndSplineSet
EndChar

StartChar: period
Encoding: 46 46 16
Width: 155
GlyphClass: 2
Flags: MW
HStem: 0.410156 75.4795<-24.7207 22.1143 22.1143 22.1143>
VStem: 41.333 64.2607
LayerCount: 2
Fore
SplineSet
39.5400390625 75.8896484375 m 1
 -24.720703125 75.8896484375 l 1
 -42.146484375 0.41015625 l 1
 22.1142578125 0.41015625 l 1
 39.5400390625 75.8896484375 l 1
EndSplineSet
EndChar

StartChar: slash
Encoding: 47 47 17
Width: 292
GlyphClass: 2
Flags: W
LayerCount: 2
Fore
SplineSet
309.041992188 688.91015625 m 1
 258.309570312 688.91015625 l 1
 -33.755859375 -9.7900390625 l 1
 16.9765625 -9.7900390625 l 1
 309.041992188 688.91015625 l 1
EndSplineSet
EndChar

StartChar: zero
Encoding: 48 48 18
Width: 401
GlyphClass: 2
Flags: MW
HStem: -8.76953 51<108.601 139.554 108.601 147.154> 647.088 51.002<248.244 279.196>
VStem: 52.5537 59.1602 283.074 59.1592
LayerCount: 2
Fore
SplineSet
275.49609375 698.08984375 m 0
 204.471679688 698.08984375 123.270507812 668.306640625 89.0537109375 520.099609375 c 2
 8.2822265625 170.240234375 l 2
 -26.2119140625 20.8291015625 41.6630859375 -8.76953125 112.3046875 -8.76953125 c 0
 182.00390625 -8.76953125 263.369140625 20.4033203125 297.961914062 170.240234375 c 2
 378.733398438 520.099609375 l 2
 413.053710938 668.756835938 345.547851562 698.08984375 275.49609375 698.08984375 c 0
124.079101562 42.23046875 m 0
 93.123046875 42.23046875 71.9912109375 53.0478515625 63.9775390625 75.599609375 c 0
 56.1904296875 97.5166015625 58.765625 132.65625 70.0322265625 181.458984375 c 2
 145.387695312 507.859375 l 2
 156.654296875 556.66015625 170.3046875 591.80078125 188.213867188 613.71875 c 0
 206.639648438 636.270507812 232.765625 647.087890625 263.721679688 647.087890625 c 0
 294.670898438 647.087890625 315.69140625 636.26171875 323.341796875 613.6328125 c 0
 330.744140625 591.739257812 328.012695312 556.651367188 316.748046875 507.859375 c 2
 241.392578125 181.458984375 l 2
 230.12890625 132.666992188 216.658203125 97.5791015625 199.145507812 75.6845703125 c 0
 181.046875 53.0556640625 155.028320312 42.23046875 124.079101562 42.23046875 c 0
EndSplineSet
EndChar

StartChar: one
Encoding: 49 49 19
Width: 270
GlyphClass: 2
Flags: W
LayerCount: 2
Fore
SplineSet
204.185546875 625.581054688 m 1
 59.853515625 0.41015625 l 1
 112.893554688 0.41015625 l 1
 271.846679688 688.91015625 l 1
 213.797851562 688.91015625 l 1
 96.8349609375 611.239257812 l 1
 81.3076171875 543.98046875 l 1
 204.185546875 625.581054688 l 1
EndSplineSet
Substitution2: "'sups' Superscript lookup 1 subtable" uni00B9
EndChar

StartChar: two
Encoding: 50 50 20
Width: 390
GlyphClass: 2
Flags: MW
HStem: 647.093 50.999<246.661 263.637>
VStem: 47.4531 58.1406 276.953 59.1602
LayerCount: 2
Fore
SplineSet
254.54296875 647.092773438 m 0
 272.731445312 647.092773438 342.474609375 645.806640625 319.577148438 546.623046875 c 2
 312.983398438 518.0625 l 2
 304.9375 483.213867188 290.782226562 445.51171875 248.625976562 393.899414062 c 2
 -24.59765625 49.9130859375 l 1
 -36.0263671875 0.41015625 l 1
 249.57421875 0.41015625 l 1
 261.348632812 51.41015625 l 1
 40.68359375 51.41015625 l 1
 49.740234375 62.80859375 l 1
 49.740234375 62.80859375 291.275390625 366.768554688 291.362304688 366.875976562 c 0
 343.721679688 431.022460938 361.271484375 470.970703125 372.142578125 518.060546875 c 2
 380.85546875 555.80078125 l 2
 391.016601562 599.811523438 385.915039062 633.9609375 366.24609375 659.533203125 c 0
 346.615234375 685.057617188 314.806640625 698.091796875 269.375976562 698.091796875 c 0
 223.946289062 698.091796875 186.120117188 685.057617188 154.703125 659.533203125 c 0
 123.256835938 633.985351562 102.28515625 599.501953125 91.9599609375 554.782226562 c 2
 82.6591796875 514.4921875 l 1
 140.799804688 514.4921875 l 1
 148.452148438 547.641601562 l 2
 155.465820312 578.01953125 168.201171875 602.609375 187.477539062 620.426757812 c 0
 206.702148438 638.1953125 229.572265625 647.092773438 254.54296875 647.092773438 c 0
EndSplineSet
Substitution2: "'sups' Superscript lookup 1 subtable" uni00B2
EndChar

StartChar: three
Encoding: 51 51 21
Width: 403
GlyphClass: 2
Flags: MW
HStem: -8.76953 50.998<107.34 123.068> 332.929 51<173.896 184.052 184.052 195.826 173.896 206.188> 647.089 50.999<249.309 274.796>
VStem: 47.4531 58.1406 285.113 59.1602
LayerCount: 2
Fore
SplineSet
-5.7666015625 131.478515625 m 2
 -12.1337890625 103.899414062 -35.6943359375 -8.76953125 108.224609375 -8.76953125 c 0
 137.911132812 -8.76953125 259.100585938 -6.9248046875 294.5859375 146.780273438 c 2
 311.776367188 221.240234375 l 2
 320.079101562 257.201171875 320.9921875 285.250976562 315.237304688 305.461914062 c 0
 306.606445312 335.766601562 282.377929688 348.390625 256.209960938 362.025390625 c 1
 304.232421875 382.055664062 349.1484375 400.790039062 370.5703125 493.578125 c 2
 384.463867188 553.7578125 l 2
 391.3125 583.422851562 414.69921875 698.087890625 273.455078125 698.087890625 c 0
 225.163085938 698.087890625 186.375976562 685.106445312 155.881835938 660.07421875 c 0
 125.295898438 634.966796875 104.35546875 599.6328125 93.5283203125 552.739257812 c 2
 85.6396484375 518.569335938 l 1
 143.780273438 518.569335938 l 1
 151.43359375 551.71875 l 2
 157.7265625 578.977539062 181.291015625 647.088867188 259.641601562 647.088867188 c 0
 289.950195312 647.088867188 345.161132812 635.348632812 324.440429688 545.598632812 c 2
 311.724609375 490.518554688 l 2
 290.750976562 399.673828125 239.2421875 383.928710938 195.826171875 383.928710938 c 2
 173.895507812 383.928710938 l 1
 162.12109375 332.928710938 l 1
 184.051757812 332.928710938 l 2
 228.323242188 332.928710938 274.578125 316.368164062 252.8515625 222.258789062 c 2
 234.71875 143.71875 l 2
 220.485351562 82.0673828125 181.959960938 42.228515625 121.018554688 42.228515625 c 0
 93.662109375 42.228515625 73.138671875 50.4814453125 61.10546875 67.611328125 c 0
 49.091796875 84.71484375 47.056640625 108.448242188 53.7861328125 137.598632812 c 2
 60.96875 168.708984375 l 1
 2.828125 168.708984375 l 1
 -5.7666015625 131.478515625 l 2
EndSplineSet
Substitution2: "'sups' Superscript lookup 1 subtable" uni00B3
EndChar

StartChar: four
Encoding: 52 52 22
Width: 415
GlyphClass: 2
Flags: MW
VStem: 182.186 58.4502
LayerCount: 2
Fore
SplineSet
226.114257812 0.41015625 m 1
 258.846679688 142.190429688 l 1
 321.06640625 142.190429688 l 1
 332.840820312 193.190429688 l 1
 270.62109375 193.190429688 l 1
 313.244140625 377.809570312 l 1
 254.083984375 377.809570312 l 1
 211.4609375 193.190429688 l 1
 51.72265625 193.190429688 l 1
 316.109375 688.91015625 l 1
 257.659179688 688.91015625 l 1
 -1.232421875 199.717773438 l 1
 -14.513671875 142.190429688 l 1
 199.686523438 142.190429688 l 1
 166.954101562 0.41015625 l 1
 226.114257812 0.41015625 l 1
EndSplineSet
EndChar

StartChar: five
Encoding: 53 53 23
Width: 396
GlyphClass: 2
Flags: MW
HStem: -8.76953 51<98.0312 145.882> 385.97 51<216.092 234.343>
VStem: 52.5537 55.0801 277.974 59.1602
LayerCount: 2
Fore
SplineSet
1.6884765625 141.6796875 m 2
 -10.0595703125 90.791015625 -21.013671875 -8.76953125 108.224609375 -8.76953125 c 0
 183.5390625 -8.76953125 258.888671875 23.08203125 289.094726562 153.919921875 c 2
 317.82421875 278.360351562 l 2
 348.530273438 411.364257812 287.65625 436.969726562 225.412109375 436.969726562 c 0
 206.771484375 436.969726562 169.88671875 433.033203125 138.116210938 405.743164062 c 2
 121.59765625 391.553710938 l 1
 177.766601562 634.849609375 l 1
 394.006835938 634.849609375 l 1
 406.48828125 688.91015625 l 1
 136.188476562 688.91015625 l 1
 54.7099609375 335.990234375 l 1
 105.784179688 335.990234375 l 1
 132.063476562 368.654296875 163.899414062 385.969726562 199.357421875 385.969726562 c 0
 269.329101562 385.969726562 271.15625 332.469726562 258.428710938 277.33984375 c 2
 229.228515625 150.860351562 l 2
 218.137695312 102.8203125 193.387695312 42.23046875 118.979492188 42.23046875 c 0
 77.0830078125 42.23046875 38.330078125 61.810546875 57.0048828125 142.700195312 c 2
 59.2412109375 152.389648438 l 1
 4.1611328125 152.389648438 l 1
 1.6884765625 141.6796875 l 2
EndSplineSet
EndChar

StartChar: six
Encoding: 54 54 24
Width: 393
GlyphClass: 2
Flags: MW
HStem: -8.76953 50.998<104.821 130.525> 355.369 49.9805<178.906 237.014>
VStem: 47.4512 59.1611 280.014 59.1592
LayerCount: 2
Fore
SplineSet
108.224609375 -8.76953125 m 0
 152.825195312 -8.76953125 190.782226562 4.9853515625 223.366210938 32.2392578125 c 0
 255.897460938 59.4501953125 277.885742188 96.53515625 289.014648438 144.740234375 c 2
 315.624023438 260 l 2
 326.305664062 306.267578125 322.295898438 341.546875 304.622070312 367.0078125 c 0
 286.961914062 392.451171875 257.958007812 405.349609375 216.069335938 405.349609375 c 0
 214.806640625 405.349609375 181.370117188 405.23046875 161.608398438 392.596679688 c 2
 135.388671875 375.833007812 l 1
 337.403320312 688.91015625 l 1
 279.479492188 688.91015625 l 1
 86.5849609375 392.701171875 l 2
 45.96484375 330.15625 32.9150390625 299.0390625 21.3125 248.779296875 c 2
 -2.236328125 146.779296875 l 2
 -13.5322265625 97.8515625 -8.9248046875 60.2197265625 10.6533203125 32.6826171875 c 0
 30.2060546875 5.1826171875 62.2216796875 -8.76953125 108.224609375 -8.76953125 c 0
192.291992188 355.369140625 m 0
 217.75390625 355.369140625 276.259765625 345.740234375 255.051757812 253.87890625 c 2
 229.619140625 143.71875 l 2
 222.456054688 112.69140625 209.6328125 87.62890625 190.3046875 69.466796875 c 0
 170.840820312 51.1767578125 146.852539062 42.228515625 119.99609375 42.228515625 c 0
 89.6455078125 42.228515625 35.57421875 54.298828125 56.4541015625 144.739257812 c 2
 82.5927734375 257.958984375 l 2
 89.4638671875 287.720703125 102.325195312 311.883789062 121.921875 329.345703125 c 0
 141.569335938 346.853515625 165.51953125 355.369140625 192.291992188 355.369140625 c 0
EndSplineSet
EndChar

StartChar: seven
Encoding: 55 55 25
Width: 359
GlyphClass: 2
Flags: MW
VStem: 74.5586 58.4785
LayerCount: 2
Fore
SplineSet
396.287109375 688.91015625 m 1
 106.607421875 688.91015625 l 1
 94.8330078125 637.91015625 l 1
 328.998046875 637.91015625 l 1
 -8.9208984375 0.41015625 l 1
 49.5576171875 0.41015625 l 1
 383.004882812 631.379882812 l 1
 396.287109375 688.91015625 l 1
EndSplineSet
EndChar

StartChar: eight
Encoding: 56 56 26
Width: 401
GlyphClass: 2
Flags: MW
HStem: -8.76953 47.9385<107.25 134.644> 338.029 46.9219<188.423 214.468> 650.15 47.9404<252.848 290.213>
VStem: 52.5527 53.042 289.194 53.0381
LayerCount: 2
Fore
SplineSet
111.28515625 -8.76953125 m 0
 158.002929688 -8.76953125 196.411132812 5.2060546875 227.913085938 32.6123046875 c 0
 259.501953125 60.0947265625 281.385742188 98.443359375 293.016601562 148.821289062 c 2
 310.913085938 226.340820312 l 2
 325.547851562 289.729492188 312.934570312 331.6328125 274.337890625 355.254882812 c 2
 263.102539062 362.130859375 l 1
 290.02734375 374.547851562 310.545898438 384.008789062 333.916992188 415.008789062 c 0
 349.665039062 435.896484375 360.765625 459.94921875 367.1171875 487.4609375 c 2
 382.188476562 552.741210938 l 2
 392.516601562 597.477539062 387.709960938 632.366210938 368.482421875 658.615234375 c 0
 349.293945312 684.809570312 318.44140625 698.090820312 274.475585938 698.090820312 c 0
 231.220703125 698.090820312 194.57421875 684.834960938 163.260742188 658.615234375 c 0
 131.913085938 632.368164062 110.997070312 597.479492188 100.668945312 552.7421875 c 2
 85.59765625 487.461914062 l 2
 79.8369140625 462.5078125 71.2275390625 399.651367188 120.502929688 368.71484375 c 2
 131.314453125 361.926757812 l 1
 117.333007812 355.255859375 l 2
 67.8291015625 331.633789062 35.8681640625 289.73046875 21.2333984375 226.341796875 c 2
 3.3369140625 148.822265625 l 2
 -8.2939453125 98.4453125 -4.1171875 60.0947265625 14.783203125 32.6123046875 c 0
 33.6484375 5.1796875 65.2763671875 -8.76953125 111.28515625 -8.76953125 c 0
314.079101562 487.459960938 m 2
 308.052734375 461.356445312 285.15234375 384.951171875 202.181640625 384.951171875 c 0
 174.6640625 384.951171875 154.459960938 394.060546875 143.513671875 412.758789062 c 0
 132.698242188 431.229492188 131.473632812 456.42578125 138.638671875 487.459960938 c 2
 153.709960938 552.740234375 l 2
 166.692382812 608.975585938 206.397460938 650.150390625 263.409179688 650.150390625 c 0
 317.017578125 650.150390625 343.330078125 614.161132812 329.150390625 552.740234375 c 2
 314.079101562 487.459960938 l 2
191.350585938 338.029296875 m 0
 237.5859375 338.029296875 278.536132812 315.833007812 258.110351562 227.359375 c 2
 240.448242188 150.859375 l 2
 233.603515625 121.209960938 211.201171875 39.1689453125 122.353515625 39.1689453125 c 0
 92.146484375 39.1689453125 70.578125 49.13671875 60.0361328125 69.8125 c 0
 49.76171875 89.9638671875 49.078125 117.201171875 56.8486328125 150.859375 c 2
 74.5107421875 227.359375 l 2
 84.3564453125 270.005859375 112.4296875 338.029296875 191.350585938 338.029296875 c 0
EndSplineSet
EndChar

StartChar: nine
Encoding: 57 57 27
Width: 393
GlyphClass: 2
Flags: MW
HStem: 283.969 49.9805<141.604 200.731> 647.089 51.001<248.748 283.66>
VStem: 47.4521 59.1621 280.014 59.1602
LayerCount: 2
Fore
SplineSet
357.306640625 440.540039062 m 2
 380.854492188 542.540039062 l 2
 392.155273438 591.487304688 387.706054688 629.140625 368.452148438 656.671875 c 0
 349.2421875 684.138671875 317.420898438 698.08984375 271.415039062 698.08984375 c 0
 226.080078125 698.08984375 187.80078125 684.458007812 155.330078125 657.557617188 c 0
 122.939453125 630.72265625 100.896484375 593.493164062 89.6044921875 544.580078125 c 2
 62.994140625 429.3203125 l 2
 52.3125 383.051757812 56.322265625 347.772460938 73.99609375 322.310546875 c 0
 91.65625 296.868164062 120.66015625 283.96875 162.548828125 283.96875 c 0
 163.08984375 283.96875 198.314453125 284.12109375 218.030273438 296.723632812 c 2
 244.397460938 313.579101562 l 1
 41.251953125 0.41015625 l 1
 99.1396484375 0.41015625 l 1
 292.033203125 296.619140625 l 2
 332.654296875 359.163085938 345.703125 390.282226562 357.306640625 440.540039062 c 2
259.641601562 647.088867188 m 0
 307.678710938 647.088867188 339.034179688 617.64453125 322.165039062 544.579101562 c 2
 296.026367188 431.359375 l 2
 289.163085938 401.630859375 276.508789062 377.51171875 257.28515625 360.04296875 c 0
 237.944335938 342.466796875 214.115234375 333.94921875 187.34765625 333.94921875 c 0
 159.170898438 333.94921875 102.635742188 344.768554688 123.569335938 435.439453125 c 2
 149.000976562 545.598632812 l 2
 156.572265625 578.392578125 181.731445312 647.088867188 259.641601562 647.088867188 c 0
EndSplineSet
EndChar

StartChar: colon
Encoding: 58 58 28
Width: 155
GlyphClass: 2
Flags: MW
VStem: 41.333 64.2607
LayerCount: 2
Fore
SplineSet
39.5400390625 75.8896484375 m 1
 -24.720703125 75.8896484375 l 1
 -42.146484375 0.41015625 l 1
 22.1142578125 0.41015625 l 1
 39.5400390625 75.8896484375 l 1
119.133789062 420.650390625 m 1
 54.873046875 420.650390625 l 1
 37.447265625 345.169921875 l 1
 101.708007812 345.169921875 l 1
 119.133789062 420.650390625 l 1
EndSplineSet
EndChar

StartChar: semicolon
Encoding: 59 59 29
Width: 155
GlyphClass: 2
Flags: MW
VStem: 41.333 64.2607
LayerCount: 2
Fore
SplineSet
38.44140625 79.9697265625 m 1
 -15.619140625 79.9697265625 l 1
 -65.0859375 -134.295898438 l 1
 -0.1962890625 -87.3916015625 l 1
 38.44140625 79.9697265625 l 1
119.133789062 420.650390625 m 1
 54.873046875 420.650390625 l 1
 37.447265625 345.169921875 l 1
 101.708007812 345.169921875 l 1
 119.133789062 420.650390625 l 1
EndSplineSet
EndChar

StartChar: less
Encoding: 60 60 30
Width: 419
GlyphClass: 2
Flags: W
LayerCount: 2
Fore
SplineSet
26.4091796875 301.775390625 m 1
 13.7138671875 246.784179688 l 1
 314.940429688 111.241210938 l 1
 326.8984375 163.034179688 l 1
 76.6064453125 274.280273438 l 1
 378.264648438 385.525390625 l 1
 390.221679688 437.319335938 l 1
 26.4091796875 301.775390625 l 1
EndSplineSet
Substitution2: "'rtla' Right to Left Alternates lookup 0 subtable" greater
EndChar

StartChar: equal
Encoding: 61 61 31
Width: 419
GlyphClass: 2
Flags: MW
VStem: 40.3135 332.52
LayerCount: 2
Fore
SplineSet
380.250976562 394.129882812 m 1
 47.7314453125 394.129882812 l 1
 35.95703125 343.129882812 l 1
 368.4765625 343.129882812 l 1
 380.250976562 394.129882812 l 1
336.450195312 204.41015625 m 1
 3.9306640625 204.41015625 l 1
 -8.0791015625 152.389648438 l 1
 324.440429688 152.389648438 l 1
 336.450195312 204.41015625 l 1
EndSplineSet
EndChar

StartChar: greater
Encoding: 62 62 32
Width: 419
GlyphClass: 2
Flags: W
LayerCount: 2
Fore
SplineSet
45.7451171875 385.525390625 m 1
 296.036132812 274.280273438 l 1
 -5.62109375 163.034179688 l 1
 -17.5791015625 111.241210938 l 1
 346.233398438 246.784179688 l 1
 358.928710938 301.775390625 l 1
 57.7021484375 437.319335938 l 1
 45.7451171875 385.525390625 l 1
EndSplineSet
Substitution2: "'rtla' Right to Left Alternates lookup 0 subtable" less
EndChar

StartChar: question
Encoding: 63 63 33
Width: 361
GlyphClass: 2
Flags: MW
HStem: 648.109 51.001<225.023 261.144>
VStem: 30.1758 59.1523 141.294 64.2598 257.573 59.1602
LayerCount: 2
Fore
SplineSet
240.497070312 648.109375 m 0
 281.791015625 648.109375 318.802734375 627.21484375 299.25390625 542.5390625 c 0
 290.109375 502.928710938 277.2265625 477.784179688 237.41015625 429.5 c 2
 178.103515625 358.122070312 l 2
 138.975585938 309.798828125 127.172851562 287.58203125 117.037109375 243.6796875 c 2
 102.790039062 181.969726562 l 1
 161.950195312 181.969726562 l 1
 175.01953125 238.580078125 l 2
 185.020507812 281.8984375 195.415039062 301.420898438 224.146484375 336.311523438 c 2
 276.452148438 399.509765625 l 2
 333.952148438 471.185546875 348.436523438 499.323242188 358.4140625 542.540039062 c 0
 366.954101562 579.530273438 387.841796875 699.110351562 251.251953125 699.110351562 c 0
 183.975585938 699.110351562 103.932617188 670.833007812 67.2646484375 522.650390625 c 1
 126.416992188 522.650390625 l 1
 136.462890625 563.568359375 149.034179688 594.155273438 165.4296875 614.654296875 c 0
 183.528320312 637.283203125 209.548828125 648.109375 240.497070312 648.109375 c 0
141.383789062 84.0478515625 m 1
 77.1240234375 84.0478515625 l 1
 57.8134765625 0.408203125 l 1
 122.073242188 0.408203125 l 1
 141.383789062 84.0478515625 l 1
EndSplineSet
EndChar

StartChar: at
Encoding: 64 64 34
Width: 739
GlyphClass: 2
Flags: MW
HStem: -130.15 46.9199<221.142 290.868> 57.5303 45.8994<494.751 515.997> 445.13 47.9404<367.048 391.62 353.742 400.789> 644.031 46.9189<389.071 471.187>
VStem: 50.5127 52.0205<362 362.001> 237.173 55.0791 438.11 54.0635 630.894 50.998
LayerCount: 2
Fore
SplineSet
14.248046875 204.919921875 m 2
 -34.169921875 -4.798828125 60.5849609375 -130.150390625 251.5625 -130.150390625 c 0
 330.172851562 -130.150390625 396.904296875 -111.392578125 465.5546875 -72.3642578125 c 1
 449.9765625 -34.287109375 l 1
 390.689453125 -68.1806640625 335.111328125 -83.23046875 262.393554688 -83.23046875 c 0
 179.889648438 -83.23046875 120.616210938 -57.7412109375 86.287109375 -6.2255859375 c 0
 52.021484375 45.193359375 45.8056640625 116.286132812 66.50390625 205.94140625 c 2
 102.533203125 362.000976562 l 2
 122.768554688 449.6484375 161.458007812 519.087890625 219.193359375 569.145507812 c 0
 277.012695312 619.274414062 347.845703125 644.03125 430.295898438 644.03125 c 0
 512.078125 644.03125 571.78515625 619.443359375 607.883789062 569.759765625 c 0
 643.935546875 520.141601562 651.94921875 453.201171875 632.77734375 370.161132812 c 2
 594.864257812 205.94140625 l 2
 580.3671875 143.147460938 552.349609375 103.4296875 500.30859375 103.4296875 c 0
 489.193359375 103.4296875 433.331054688 107.122070312 450.728515625 182.48046875 c 2
 520.549804688 484.91015625 l 1
 466.489257812 484.91015625 l 1
 453.008789062 426.51953125 l 1
 444.201171875 449.830078125 l 2
 433.249023438 478.81640625 410.237304688 493.0703125 373.001953125 493.0703125 c 0
 334.481445312 493.0703125 305.754882812 481.08984375 284.5234375 458.118164062 c 0
 262.692382812 434.495117188 245.763671875 399.208984375 234.818359375 351.799804688 c 2
 200.202148438 201.860351562 l 2
 189.10546875 153.796875 189.91015625 117.854492188 201.349609375 93.53515625 c 0
 212.521484375 69.7880859375 236.041992188 57.5302734375 274.490234375 57.5302734375 c 0
 319.70703125 57.5302734375 356.040039062 72.3095703125 386.732421875 119.162109375 c 2
 397.67578125 135.868164062 l 1
 400.829101562 119.1328125 l 2
 404.758789062 98.2861328125 421.083007812 57.5302734375 488.689453125 57.5302734375 c 0
 543.3046875 57.5302734375 617.58203125 83.4462890625 647.510742188 213.080078125 c 2
 684.010742188 371.1796875 l 2
 728.20703125 562.614257812 630.75 690.950195312 441.126953125 690.950195312 c 0
 245.733398438 690.950195312 95.9208984375 558.684570312 50.5126953125 362 c 2
 14.248046875 204.919921875 l 2
383.352539062 445.129882812 m 0
 418.225585938 445.129882812 453.978515625 430.734375 435.284179688 349.759765625 c 2
 401.610351562 203.900390625 l 2
 394.823242188 174.500976562 384.36328125 150.801757812 369.336914062 133.081054688 c 0
 353.426757812 114.315429688 331.053710938 105.469726562 304.9375 105.469726562 c 0
 267.482421875 105.469726562 237.234375 123.69140625 255.516601562 202.879882812 c 2
 289.662109375 350.780273438 l 2
 308.705078125 433.264648438 350.744140625 445.129882812 383.352539062 445.129882812 c 0
EndSplineSet
EndChar

StartChar: A
Encoding: 65 65 35
Width: 461
GlyphClass: 2
Flags: MW
VStem: 285.104 45.668 293.424 65.9854
LayerCount: 2
Fore
SplineSet
75.4345703125 179.9296875 m 1x80
 293.423828125 179.9296875 l 1
 296.858398438 0.41015625 l 1
 359.409179688 0.41015625 l 1x40
 330.771484375 688.91015625 l 1
 274.123046875 688.91015625 l 1
 -72.4208984375 0.41015625 l 1
 -10.890625 0.41015625 l 1
 75.4345703125 179.9296875 l 1x80
99.240234375 228.889648438 m 1
 285.103515625 615.995117188 l 1x80
 292.225585938 228.889648438 l 1
 99.240234375 228.889648438 l 1
EndSplineSet
EndChar

StartChar: B
Encoding: 66 66 36
Width: 470
GlyphClass: 2
Flags: MW
HStem: 0.411133 51<48.168 150.124 150.124 155.778 48.168 181.485> 331.911 51<124.701 220.537 220.537 231.292 124.701 252.891> 637.911 51<183.572 291.183 291.183 308.057 136.188 336.544>
VStem: 344.273 59.1602 351.413 59.1602
LayerCount: 2
Fore
SplineSet
370.069335938 186.559570312 m 0xe8
 391.827148438 280.801757812 371.959960938 333.368164062 313.584960938 350.543945312 c 2
 292.2578125 356.818359375 l 1
 316.302734375 365.088867188 l 2
 379.83984375 386.942382812 420.243164062 434.811523438 438.28515625 512.959960938 c 0xf0
 452.325195312 573.7734375 448.546875 617.693359375 428.71484375 645.956054688 c 0
 409.02734375 674.01171875 369.512695312 688.911132812 308.056640625 688.911132812 c 2
 136.1875 688.911132812 l 1
 -22.765625 0.4111328125 l 1
 150.124023438 0.4111328125 l 2
 212.846679688 0.4111328125 260.805664062 16.4091796875 295.426757812 46.85546875 c 0
 330.342773438 77.560546875 355.567382812 123.744140625 370.069335938 186.559570312 c 0xe8
378.18359375 508.880859375 m 0
 368.272460938 465.951171875 339.353515625 382.911132812 231.291992188 382.911132812 c 2
 124.701171875 382.911132812 l 1
 183.572265625 637.911132812 l 1
 291.182617188 637.911132812 l 2
 381.905273438 637.911132812 396.376953125 587.686523438 378.18359375 508.880859375 c 0
312.086914062 191.661132812 m 0xe8
 287.931640625 87.0322265625 231.658203125 51.4111328125 155.778320312 51.4111328125 c 2
 48.16796875 51.4111328125 l 1
 112.926757812 331.911132812 l 1
 220.537109375 331.911132812 l 2
 285.244140625 331.911132812 337.51953125 301.822265625 312.086914062 191.661132812 c 0xe8
EndSplineSet
EndChar

StartChar: C
Encoding: 67 67 37
Width: 478
GlyphClass: 2
Flags: MW
HStem: -7.75 52.0195<131.082 179.06> 646.07 52.0195<286.164 321.461>
VStem: 52.5537 59.1611 359.574 57.1201
LayerCount: 2
Fore
SplineSet
139.973632812 484.400390625 m 2
 153.788085938 544.23828125 187.760742188 646.0703125 303.267578125 646.0703125 c 0
 339.655273438 646.0703125 366.940429688 634.086914062 383.67578125 609.94921875 c 0
 400.625 585.505859375 402.487304688 548.189453125 391.247070312 499.190429688 c 1
 450.407226562 499.190429688 l 1
 450.760742188 500.719726562 l 2
 466.330078125 568.158203125 460.314453125 617.141601562 434.35546875 649.225585938 c 0
 408.051757812 681.734375 368.416992188 698.08984375 314.255859375 698.08984375 c 0
 258.072265625 698.08984375 209.94921875 680.912109375 168.65234375 646.833984375 c 0
 127.737304688 613.0703125 98.673828125 561.766601562 82.4599609375 491.540039062 c 2
 14.640625 197.780273438 l 2
 -1.408203125 128.264648438 4.189453125 77.3173828125 29.853515625 43.5322265625 c 0
 55.7587890625 9.4287109375 96.1396484375 -7.75 152.321289062 -7.75 c 0
 205.798828125 -7.75 252.248046875 8.431640625 292.791992188 40.5791015625 c 0
 332.817382812 72.3154296875 361.009765625 120.805664062 376.426757812 187.580078125 c 2
 377.014648438 190.129882812 l 1
 319.89453125 190.129882812 l 1
 319.541992188 188.599609375 l 2
 308.629882812 141.337890625 289.866210938 104.897460938 261.981445312 80.4375 c 0
 234.375976562 56.220703125 201.353515625 44.26953125 164.331054688 44.26953125 c 0
 97.8330078125 44.26953125 46.0517578125 77.583984375 73.56640625 196.759765625 c 2
 139.973632812 484.400390625 l 2
EndSplineSet
EndChar

StartChar: D
Encoding: 68 68 38
Width: 477
GlyphClass: 2
Flags: MW
HStem: 0.410156 51<48.168 152.164 152.164 163.938 48.168 179.904> 637.91 51<183.572 299.343 299.343 311.117 136.188 328.25>
VStem: 358.554 59.1602
LayerCount: 2
Fore
SplineSet
-22.765625 0.41015625 m 1
 152.1640625 0.41015625 l 2
 207.643554688 0.41015625 255.239257812 17.56640625 296.204101562 51.638671875 c 0
 336.811523438 85.4130859375 365.629882812 136.397460938 381.684570312 205.940429688 c 2
 445.736328125 483.379882812 l 2
 461.954101562 553.625 456.692382812 604.7578125 431.640625 638.165039062 c 0
 406.337890625 671.90625 366.615234375 688.91015625 311.1171875 688.91015625 c 2
 136.1875 688.91015625 l 1
 -22.765625 0.41015625 l 1
299.342773438 637.91015625 m 2
 357.157226562 637.91015625 415.470703125 608.534179688 384.927734375 476.240234375 c 2
 322.2890625 204.919921875 l 2
 310.91796875 155.665039062 291.9296875 117.381835938 264.153320312 90.9365234375 c 0
 236.383789062 64.4970703125 202.416992188 51.41015625 163.938476562 51.41015625 c 2
 48.16796875 51.41015625 l 1
 183.572265625 637.91015625 l 1
 299.342773438 637.91015625 l 2
EndSplineSet
EndChar

StartChar: E
Encoding: 69 69 39
Width: 401
GlyphClass: 2
Flags: MW
VStem: 60.7139 297.84
LayerCount: 2
Fore
SplineSet
182.552734375 637.91015625 m 1
 422.252929688 637.91015625 l 1
 434.02734375 688.91015625 l 1
 136.1875 688.91015625 l 1
 -22.765625 0.41015625 l 1
 275.07421875 0.41015625 l 1
 286.848632812 51.41015625 l 1
 47.1484375 51.41015625 l 1
 110.2578125 324.76953125 l 1
 316.297851562 324.76953125 l 1
 328.307617188 376.790039062 l 1
 122.267578125 376.790039062 l 1
 182.552734375 637.91015625 l 1
EndSplineSet
EndChar

StartChar: F
Encoding: 70 70 40
Width: 395
GlyphClass: 2
Flags: MW
VStem: 60.7139 297.84
LayerCount: 2
Fore
SplineSet
183.572265625 637.91015625 m 1
 422.252929688 637.91015625 l 1
 434.02734375 688.91015625 l 1
 136.1875 688.91015625 l 1
 -22.765625 0.41015625 l 1
 36.3935546875 0.41015625 l 1
 110.571289062 321.709960938 l 1
 316.611328125 321.709960938 l 1
 328.62109375 373.73046875 l 1
 122.581054688 373.73046875 l 1
 183.572265625 637.91015625 l 1
EndSplineSet
EndChar

StartChar: G
Encoding: 71 71 41
Width: 478
GlyphClass: 2
Flags: MW
HStem: -7.75 52.0195<130.33 179.049> 646.07 52.0195<286.165 320.744>
VStem: 52.5547 59.1592 359.573 59.1602
LayerCount: 2
Fore
SplineSet
139.97265625 484.400390625 m 2
 151.561523438 534.599609375 184.9296875 646.0703125 302.24609375 646.0703125 c 0
 339.241210938 646.0703125 366.909179688 634.322265625 383.762695312 610.502929688 c 0
 400.690429688 586.580078125 403.663085938 552.975585938 393.954101562 510.919921875 c 2
 392.89453125 506.330078125 l 1
 452.0546875 506.330078125 l 1
 453.114257812 510.919921875 l 2
 467.232421875 572.071289062 460.793945312 617.849609375 434.982421875 649.735351562 c 0
 408.96875 681.870117188 369.141601562 698.08984375 314.256835938 698.08984375 c 0
 258.073242188 698.08984375 209.950195312 680.912109375 168.653320312 646.833984375 c 0
 127.73828125 613.0703125 98.6748046875 561.766601562 82.4609375 491.540039062 c 2
 14.6416015625 197.780273438 l 2
 -1.41015625 128.250976562 4.0263671875 77.28515625 29.36328125 43.505859375 c 0
 54.9248046875 9.427734375 95.1162109375 -7.75 151.299804688 -7.75 c 0
 206.798828125 -7.75 254.373046875 9.25390625 295.25390625 42.9951171875 c 0
 335.751953125 76.4189453125 364.528320312 127.212890625 380.584960938 196.759765625 c 2
 415.083007812 346.190429688 l 1
 239.643554688 346.190429688 l 1
 228.811523438 299.26953125 l 1
 345.090820312 299.26953125 l 1
 320.717773438 193.700195312 l 2
 309.506835938 145.139648438 290.893554688 107.663085938 263.602539062 82.1923828125 c 0
 236.310546875 56.71875 202.330078125 44.26953125 163.309570312 44.26953125 c 0
 97.349609375 44.26953125 46.0517578125 77.5849609375 73.5654296875 196.759765625 c 2
 139.97265625 484.400390625 l 2
EndSplineSet
EndChar

StartChar: H
Encoding: 72 72 42
Width: 478
GlyphClass: 2
Flags: W
LayerCount: 2
Fore
SplineSet
327.09375 0.41015625 m 1
 486.046875 688.91015625 l 1
 426.88671875 688.91015625 l 1
 354.827148438 376.790039062 l 1
 123.287109375 376.790039062 l 1
 195.346679688 688.91015625 l 1
 136.1875 688.91015625 l 1
 -22.765625 0.41015625 l 1
 36.3935546875 0.41015625 l 1
 111.513671875 325.790039062 l 1
 343.053710938 325.790039062 l 1
 267.93359375 0.41015625 l 1
 327.09375 0.41015625 l 1
EndSplineSet
EndChar

StartChar: I
Encoding: 73 73 43
Width: 199
GlyphClass: 2
Flags: MW
VStem: 66.833 58.1406
LayerCount: 2
Fore
SplineSet
200.447265625 688.91015625 m 1
 142.306640625 688.91015625 l 1
 -16.646484375 0.41015625 l 1
 41.494140625 0.41015625 l 1
 200.447265625 688.91015625 l 1
EndSplineSet
EndChar

StartChar: J
Encoding: 74 74 44
Width: 259
GlyphClass: 2
Flags: MW
HStem: 0.410156 51<-47.7119 -31.4355 -31.4355 -25.7803 -47.7119 0.398926>
VStem: 125.994 59.1602
LayerCount: 2
Fore
SplineSet
-31.435546875 0.41015625 m 2
 32.2333984375 0.41015625 107.361328125 25.0419921875 132.169921875 132.5 c 2
 260.627929688 688.91015625 l 1
 201.467773438 688.91015625 l 1
 74.8935546875 140.66015625 l 2
 67.025390625 106.578125 43.5771484375 51.41015625 -25.7802734375 51.41015625 c 2
 -47.7119140625 51.41015625 l 1
 -59.486328125 0.41015625 l 1
 -31.435546875 0.41015625 l 2
EndSplineSet
EndChar

StartChar: K
Encoding: 75 75 45
Width: 461
GlyphClass: 2
Flags: W
LayerCount: 2
Fore
SplineSet
100.076171875 276.250976562 m 1
 195.346679688 688.91015625 l 1
 136.1875 688.91015625 l 1
 -22.765625 0.41015625 l 1
 36.3935546875 0.41015625 l 1
 78.671875 183.538085938 l 1
 215.565429688 350.983398438 l 1
 295.788085938 0.41015625 l 1
 360.494140625 0.41015625 l 1
 264.6953125 410.365234375 l 1
 493.552734375 688.91015625 l 1
 432.840820312 688.91015625 l 1
 100.076171875 276.250976562 l 1
EndSplineSet
EndChar

StartChar: L
Encoding: 76 76 46
Width: 389
GlyphClass: 2
Flags: MW
VStem: 60.7139 297.84
LayerCount: 2
Fore
SplineSet
195.346679688 688.91015625 m 1
 136.1875 688.91015625 l 1
 -22.765625 0.41015625 l 1
 275.07421875 0.41015625 l 1
 286.848632812 51.41015625 l 1
 48.16796875 51.41015625 l 1
 195.346679688 688.91015625 l 1
EndSplineSet
EndChar

StartChar: M
Encoding: 77 77 47
Width: 600
GlyphClass: 2
Flags: W
LayerCount: 2
Fore
SplineSet
449.494140625 0.41015625 m 1
 608.447265625 688.91015625 l 1
 546.87890625 688.91015625 l 1
 269.963867188 240.966796875 l 1
 197.778320312 688.91015625 l 1
 136.1875 688.91015625 l 1
 -22.765625 0.41015625 l 1
 36.3935546875 0.41015625 l 1
 168.188476562 571.275390625 l 1
 231.805664062 163.610351562 l 1
 270.26171875 163.610351562 l 1
 522.907226562 574.647460938 l 1
 390.333984375 0.41015625 l 1
 449.494140625 0.41015625 l 1
EndSplineSet
EndChar

StartChar: N
Encoding: 78 78 48
Width: 502
GlyphClass: 2
Flags: W
LayerCount: 2
Fore
SplineSet
351.57421875 0.41015625 m 1
 510.52734375 688.91015625 l 1
 451.3671875 688.91015625 l 1
 319.766601562 118.888671875 l 1
 198.024414062 688.91015625 l 1
 136.1875 688.91015625 l 1
 -22.765625 0.41015625 l 1
 36.3935546875 0.41015625 l 1
 167.743164062 569.348632812 l 1
 289.732421875 0.41015625 l 1
 351.57421875 0.41015625 l 1
EndSplineSet
EndChar

StartChar: O
Encoding: 79 79 49
Width: 478
GlyphClass: 2
Flags: MW
HStem: -7.75 52.0205<130.33 178.02> 646.071 52.0195<285.134 331.153>
VStem: 52.5537 59.1602 359.573 59.1602
LayerCount: 2
Fore
SplineSet
150.280273438 -7.75 m 0
 205.758789062 -7.75 253.54296875 9.408203125 294.862304688 43.505859375 c 0
 335.797851562 77.28515625 364.768554688 128.250976562 380.8203125 197.780273438 c 2
 448.639648438 491.540039062 l 2
 465.018554688 562.482421875 459.819335938 613.955078125 434.779296875 647.345703125 c 0
 409.491210938 681.067382812 369.440429688 698.090820312 313.236328125 698.090820312 c 0
 257.032226562 698.090820312 209.119140625 681.067382812 168.26171875 647.345703125 c 0
 127.8046875 613.956054688 98.8388671875 562.483398438 82.4609375 491.541015625 c 2
 14.640625 197.78125 l 2
 -1.4140625 128.23828125 3.861328125 77.25390625 28.8740234375 43.478515625 c 0
 54.091796875 9.4267578125 94.0947265625 -7.75 150.280273438 -7.75 c 0
302.24609375 646.071289062 m 0
 360.060546875 646.071289062 418.374023438 616.6953125 387.83203125 484.401367188 c 2
 321.424804688 196.760742188 l 2
 310.0546875 147.51171875 291.108398438 109.375 263.364257812 83.24609375 c 0
 235.66015625 57.15625 201.7578125 44.2705078125 163.309570312 44.2705078125 c 0
 97.349609375 44.2705078125 46.0517578125 77.5859375 73.5654296875 196.760742188 c 2
 139.97265625 484.401367188 l 2
 155.052734375 549.719726562 190.842773438 646.071289062 302.24609375 646.071289062 c 0
EndSplineSet
EndChar

StartChar: P
Encoding: 80 80 50
Width: 439
GlyphClass: 2
Flags: MW
HStem: 298.25 51.001<116.931 220.927 220.927 228.621 116.931 267.409> 637.911 50.999<183.573 295.264 295.264 311.118 136.188 344.801>
VStem: 350.395 58.1396
LayerCount: 2
Fore
SplineSet
220.926757812 298.25 m 2
 313.890625 298.25 403.069335938 338.329101562 438.440429688 491.540039062 c 0
 453.909179688 558.541992188 450.958007812 607.758789062 431.189453125 640.12890625 c 0
 411.611328125 672.1875 372.360351562 688.91015625 311.118164062 688.91015625 c 2
 136.188476562 688.91015625 l 1
 -22.7646484375 0.41015625 l 1
 36.39453125 0.41015625 l 1
 105.15625 298.25 l 1
 220.926757812 298.25 l 2
380.301757812 491.541015625 m 0
 362.961914062 416.43359375 327.108398438 349.250976562 228.62109375 349.250976562 c 2
 116.930664062 349.250976562 l 1
 183.573242188 637.911132812 l 1
 295.263671875 637.911132812 l 2
 394.337890625 637.911132812 397.90234375 567.779296875 380.301757812 491.541015625 c 0
EndSplineSet
EndChar

StartChar: Q
Encoding: 81 81 51
Width: 478
GlyphClass: 2
Flags: MW
HStem: -23.791 20G<194.702 194.702> -7.74902 52.0195<130.33 159.93> 646.071 52.0195<285.134 331.153>
VStem: 52.5537 59.1602 359.573 59.1602
LayerCount: 2
Fore
SplineSet
380.8203125 197.780273438 m 2xb8
 448.639648438 491.540039062 l 2
 465.018554688 562.482421875 459.819335938 613.955078125 434.779296875 647.345703125 c 0
 409.491210938 681.067382812 369.440429688 698.090820312 313.236328125 698.090820312 c 0
 257.032226562 698.090820312 209.119140625 681.067382812 168.26171875 647.345703125 c 0
 127.8046875 613.956054688 98.8388671875 562.483398438 82.4609375 491.541015625 c 2
 14.640625 197.78125 l 2
 -1.4140625 128.23828125 3.8623046875 77.2548828125 28.8740234375 43.4794921875 c 0
 54.091796875 9.427734375 94.0947265625 -7.7490234375 150.280273438 -7.7490234375 c 0x78
 169.579101562 -7.7490234375 181.4453125 -5.9189453125 194.702148438 -3.791015625 c 1
 220.095703125 -143.184570312 l 1
 271.4140625 -124.392578125 l 1
 246.234375 12.4921875 l 1
 274.0625 26.0205078125 349.650390625 62.767578125 380.8203125 197.780273438 c 2xb8
302.24609375 646.071289062 m 0
 360.060546875 646.071289062 418.374023438 616.6953125 387.83203125 484.401367188 c 2
 321.424804688 196.760742188 l 2
 310.0546875 147.51171875 291.108398438 109.375 263.364257812 83.24609375 c 0
 235.66015625 57.15625 201.7578125 44.2705078125 163.309570312 44.2705078125 c 0
 97.349609375 44.2705078125 46.0517578125 77.5859375 73.5654296875 196.760742188 c 2
 139.97265625 484.401367188 l 2
 155.052734375 549.719726562 190.842773438 646.071289062 302.24609375 646.071289062 c 0
EndSplineSet
EndChar

StartChar: R
Encoding: 82 82 52
Width: 466
GlyphClass: 2
Flags: MW
HStem: 308.45 49.9785<119.048 233.671 233.671 233.671> 637.91 51<183.571 301.382 301.382 314.176 136.187 332.847>
VStem: 349.373 59.1602
LayerCount: 2
Fore
SplineSet
233.670898438 308.450195312 m 1
 278.834960938 0.41015625 l 1
 341.91015625 0.41015625 l 1
 291.643554688 316.735351562 l 1
 327.4765625 327.826171875 406.274414062 352.21484375 439.852539062 497.66015625 c 0
 455.171875 564.014648438 452.2421875 611.995117188 432.846679688 642.600585938 c 0
 413.60546875 672.961914062 374.813476562 688.91015625 314.17578125 688.91015625 c 2
 136.186523438 688.91015625 l 1
 -22.7666015625 0.41015625 l 1
 36.392578125 0.41015625 l 1
 107.508789062 308.450195312 l 1
 233.670898438 308.450195312 l 1
380.692382812 497.66015625 m 0
 354.797851562 385.498046875 294.807617188 358.428710938 236.860351562 358.428710938 c 2
 119.047851562 358.428710938 l 1
 183.571289062 637.91015625 l 1
 301.381835938 637.91015625 l 2
 364.311523438 637.91015625 406.422851562 609.111328125 380.692382812 497.66015625 c 0
EndSplineSet
EndChar

StartChar: S
Encoding: 83 83 53
Width: 425
GlyphClass: 2
Flags: MW
HStem: -6.73047 51<113.96 147.44> 648.111 51<257.467 299.901>
VStem: 26.2676 57.2773 33.1709 59.1611 322.852 59.1611
LayerCount: 2
Fore
SplineSet
-16.2373046875 177.889648438 m 1xe8
 -35.9541015625 74.466796875 -10.5400390625 -6.73046875 117.875976562 -6.73046875 c 0
 177.00390625 -6.73046875 224.658203125 9.609375 262.15234375 41.375 c 0
 299.747070312 73.2255859375 325.870117188 118.8203125 339.860351562 179.419921875 c 0
 352.012695312 232.056640625 349.556640625 272.015625 333.6875 300.123046875 c 0
 317.55859375 328.690429688 288.875 352.153320312 246.985351562 370.172851562 c 2
 246.985351562 370.172851562 208.962890625 386.48046875 208.939453125 386.490234375 c 0
 173.064453125 401.690429688 148.5703125 419.096679688 136.03125 439.70703125 c 0
 123.37109375 460.512695312 121.571289062 488.6484375 129.5390625 523.161132812 c 0
 137.274414062 556.665039062 164.896484375 648.111328125 272.116210938 648.111328125 c 0
 327.686523438 648.111328125 374.287109375 621.505859375 359.896484375 524.69140625 c 1
 415.07421875 524.69140625 l 1
 424.7578125 582.724609375 418.16015625 625.453125 396.545898438 653.952148438 c 0
 373.83984375 683.891601562 337.110351562 699.111328125 284.908203125 699.111328125 c 0
 230.026367188 699.111328125 184.204101562 682.743164062 146.12109375 650.494140625 c 0
 107.931640625 618.155273438 82.2880859375 574.748046875 69.435546875 519.081054688 c 0xd8
 58.56640625 472.000976562 61.3798828125 435.474609375 76.9140625 408.62890625 c 0
 92.6630859375 381.412109375 120.853515625 358.587890625 162.108398438 340.553710938 c 2
 199.15625 324.2265625 l 2
 237.206054688 307.002929688 262.82421875 288.619140625 275.385742188 267.973632812 c 0
 288.161132812 246.9765625 289.331054688 216.807617188 280.463867188 178.400390625 c 0
 267.3203125 121.469726562 234.728515625 44.26953125 132.708007812 44.26953125 c 0
 95.2119140625 44.26953125 67.64453125 55.19140625 51.7314453125 77.8095703125 c 0
 36.49609375 99.462890625 33.51953125 133.114257812 41.0400390625 177.889648438 c 1
 -16.2373046875 177.889648438 l 1xe8
EndSplineSet
EndChar

StartChar: T
Encoding: 84 84 54
Width: 366
GlyphClass: 2
Flags: W
LayerCount: 2
Fore
SplineSet
125.133789062 0.41015625 m 1
 272.3125 637.91015625 l 1
 417.15234375 637.91015625 l 1
 428.926757812 688.91015625 l 1
 81.107421875 688.91015625 l 1
 69.3330078125 637.91015625 l 1
 214.172851562 637.91015625 l 1
 66.994140625 0.41015625 l 1
 125.133789062 0.41015625 l 1
EndSplineSet
EndChar

StartChar: U
Encoding: 85 85 55
Width: 480
GlyphClass: 2
Flags: MW
HStem: -7.75 52.0195<145.486 177.668>
VStem: 60.7129 59.1592 353.452 59.1602
LayerCount: 2
Fore
SplineSet
16.9130859375 172.280273438 m 2
 -7.9013671875 64.798828125 47.4560546875 -7.75 151.299804688 -7.75 c 0
 204.036132812 -7.75 249.811523438 8.712890625 289.83203125 41.4912109375 c 0
 329.802734375 74.228515625 356.14453125 117.41015625 368.8125 172.280273438 c 2
 488.0859375 688.91015625 l 1
 428.92578125 688.91015625 l 1
 310.59375 176.360351562 l 2
 301.208007812 135.706054688 283.654296875 103.045898438 257.220703125 79.4755859375 c 0
 230.780273438 55.900390625 198.986328125 44.26953125 163.30859375 44.26953125 c 0
 127.6640625 44.26953125 101.213867188 55.6982421875 85.5654296875 78.9208984375 c 0
 69.8759765625 102.201171875 67.4794921875 135.0625 77.013671875 176.360351562 c 2
 195.345703125 688.91015625 l 1
 136.186523438 688.91015625 l 1
 16.9130859375 172.280273438 l 2
EndSplineSet
EndChar

StartChar: V
Encoding: 86 86 56
Width: 422
GlyphClass: 2
Flags: MW
VStem: 10.7812 63.6533 340.763 63.6572
LayerCount: 2
Fore
SplineSet
149.908203125 688.91015625 m 1
 86.2548828125 688.91015625 l 1
 94.9365234375 0.41015625 l 1
 154.302734375 0.41015625 l 1
 479.893554688 688.91015625 l 1
 416.236328125 688.91015625 l 1
 141.372070312 72.82421875 l 1
 149.908203125 688.91015625 l 1
EndSplineSet
EndChar

StartChar: W
Encoding: 87 87 57
Width: 658
GlyphClass: 2
Flags: MW
VStem: 10.3496 61.7686 583.811 57.6934
LayerCount: 2
Fore
SplineSet
424.315429688 0.41015625 m 1
 716.977539062 688.91015625 l 1
 659.284179688 688.91015625 l 1
 407.439453125 59.037109375 l 1
 446.430664062 688.91015625 l 1
 361.455078125 688.91015625 l 1
 110.786132812 59.2626953125 l 1
 147.591796875 688.91015625 l 1
 85.8232421875 688.91015625 l 1
 62.57421875 0.41015625 l 1
 129.44921875 0.41015625 l 1
 388.09765625 629.295898438 l 1
 357.447265625 0.41015625 l 1
 424.315429688 0.41015625 l 1
EndSplineSet
EndChar

StartChar: X
Encoding: 88 88 58
Width: 415
GlyphClass: 2
Flags: W
LayerCount: 2
Fore
SplineSet
168.584960938 357.903320312 m 1
 -70.7265625 0.41015625 l 1
 -3.93359375 0.41015625 l 1
 190.838867188 304.76171875 l 1
 244.017578125 0.41015625 l 1
 311.797851562 0.41015625 l 1
 236.779296875 358.932617188 l 1
 457.512695312 688.91015625 l 1
 390.768554688 688.91015625 l 1
 216.619140625 411.846679688 l 1
 168.262695312 688.91015625 l 1
 101.434570312 688.91015625 l 1
 168.584960938 357.903320312 l 1
EndSplineSet
EndChar

StartChar: Y
Encoding: 89 89 59
Width: 390
GlyphClass: 2
Flags: MW
VStem: 87.5547 65.0742<688.91 688.91>
LayerCount: 2
Fore
SplineSet
203.512695312 286.889648438 m 1
 446.959960938 688.91015625 l 1
 381.884765625 688.91015625 l 1
 189.1015625 350.3828125 l 1
 152.62890625 688.91015625 l 1
 87.5546875 688.91015625 l 1
 145.373046875 286.889648438 l 1
 79.234375 0.41015625 l 1
 137.374023438 0.41015625 l 1
 203.512695312 286.889648438 l 1
EndSplineSet
EndChar

StartChar: Z
Encoding: 90 90 60
Width: 383
GlyphClass: 2
Flags: MW
VStem: 30.1133 319.26
LayerCount: 2
Fore
SplineSet
265.893554688 0.41015625 m 1
 277.66796875 51.41015625 l 1
 11.384765625 51.41015625 l 1
 404.54296875 631.892578125 l 1
 417.70703125 688.91015625 l 1
 116.806640625 688.91015625 l 1
 105.032226562 637.91015625 l 1
 351.91796875 637.91015625 l 1
 -40.201171875 57.43359375 l 1
 -53.3662109375 0.41015625 l 1
 265.893554688 0.41015625 l 1
EndSplineSet
EndChar

StartChar: bracketleft
Encoding: 91 91 61
Width: 249
GlyphClass: 2
Flags: MW
VStem: 60.7139 130.56
LayerCount: 2
Fore
SplineSet
278.520507812 739.91015625 m 1
 147.9609375 739.91015625 l 1
 -42.546875 -85.26953125 l 1
 88.0126953125 -85.26953125 l 1
 99.787109375 -34.26953125 l 1
 24.3076171875 -34.26953125 l 1
 191.267578125 688.91015625 l 1
 266.747070312 688.91015625 l 1
 278.520507812 739.91015625 l 1
EndSplineSet
Substitution2: "'rtla' Right to Left Alternates lookup 0 subtable" bracketright
EndChar

StartChar: backslash
Encoding: 92 92 62
Width: 292
GlyphClass: 2
Flags: MW
VStem: 97.001 50.7324<-9.79004 -9.79004> 127.553 50.7324<688.91 688.91>
LayerCount: 2
Fore
SplineSet
178.28515625 688.91015625 m 1x40
 127.552734375 688.91015625 l 1x40
 97.0009765625 -9.7900390625 l 1
 147.733398438 -9.7900390625 l 1x80
 178.28515625 688.91015625 l 1x40
EndSplineSet
EndChar

StartChar: bracketright
Encoding: 93 93 63
Width: 248
GlyphClass: 2
Flags: MW
VStem: 50.5137 129.54
LayerCount: 2
Fore
SplineSet
125.987304688 688.91015625 m 1
 200.447265625 688.91015625 l 1
 33.4873046875 -34.26953125 l 1
 -40.97265625 -34.26953125 l 1
 -52.7470703125 -85.26953125 l 1
 76.79296875 -85.26953125 l 1
 267.30078125 739.91015625 l 1
 137.760742188 739.91015625 l 1
 125.987304688 688.91015625 l 1
EndSplineSet
Substitution2: "'rtla' Right to Left Alternates lookup 0 subtable" bracketleft
EndChar

StartChar: asciicircum
Encoding: 94 94 64
Width: 419
GlyphClass: 2
Flags: W
LayerCount: 2
Fore
SplineSet
308.729492188 688.91015625 m 1
 253.337890625 688.91015625 l 1
 21.76171875 286.009765625 l 1
 71.8623046875 286.009765625 l 1
 267.643554688 628.588867188 l 1
 304.172851562 286.009765625 l 1
 355.252929688 286.009765625 l 1
 308.729492188 688.91015625 l 1
EndSplineSet
EndChar

StartChar: underscore
Encoding: 95 95 65
Width: 415
GlyphClass: 2
Flags: MW
HStem: -105.67 35.7002<-100.215 300.563 300.563 300.563>
LayerCount: 2
Fore
SplineSet
308.8046875 -69.9697265625 m 1
 -100.21484375 -69.9697265625 l 1
 -108.456054688 -105.669921875 l 1
 300.563476562 -105.669921875 l 1
 308.8046875 -69.9697265625 l 1
EndSplineSet
EndChar

StartChar: grave
Encoding: 96 96 66
Width: 501
GlyphClass: 2
Flags: MW
HStem: 587.93 116.28<250.547 360.767 250.547 360.767>
LayerCount: 2
Fore
SplineSet
250.546875 704.209960938 m 1
 321.953125 587.9296875 l 1
 360.766601562 587.9296875 l 1
 305.584960938 704.209960938 l 1
 250.546875 704.209960938 l 1
EndSplineSet
EndChar

StartChar: a
Encoding: 97 97 67
Width: 399
GlyphClass: 2
Flags: MW
HStem: -7.75 44.8789<86.4629 104.625> 249.289 36.7207<170.862 172.198 172.198 252.972 252.972 252.972> 474.71 45.9004<205.324 237.639>
VStem: 40.3125 54.0605 53.5723 49.9805 278.993 54.0605
LayerCount: 2
Fore
SplineSet
336.115234375 375.259765625 m 2xf4
 349.127929688 431.625976562 350.080078125 520.610351562 226.361328125 520.610351562 c 0
 184.287109375 520.610351562 148.857421875 508.888671875 119.03125 485.952148438 c 0
 89.349609375 463.125976562 69.6904296875 431.815429688 60.166015625 390.559570312 c 2
 59.8125 389.030273438 l 1
 109.79296875 389.030273438 l 1
 109.911132812 389.540039062 l 2xec
 115.2109375 412.49609375 136.853515625 474.709960938 215.763671875 474.709960938 c 0
 259.514648438 474.709960938 300.700195312 456.029296875 282.759765625 378.3203125 c 2
 261.448242188 286.009765625 l 1
 172.198242188 286.009765625 l 2
 122.499023438 286.009765625 82.8330078125 272.984375 52.0322265625 247.961914062 c 0
 21.08984375 222.823242188 0.10546875 187.844726562 -10.552734375 141.6796875 c 0
 -19.951171875 100.969726562 -37.1982421875 -7.75 81.9404296875 -7.75 c 0
 127.309570312 -7.75 164.205078125 9.8974609375 194.903320312 45.7666015625 c 2
 214.26953125 68.3935546875 l 1
 198.57421875 0.41015625 l 1
 249.57421875 0.41015625 l 1
 336.115234375 375.259765625 l 2xf4
43.7431640625 142.69921875 m 0xf4
 51.8291015625 177.72265625 76.2138671875 249.2890625 170.862304688 249.2890625 c 2
 252.971679688 249.2890625 l 1
 228.598632812 143.71875 l 2
 221.098632812 111.23046875 207.045898438 84.876953125 185.731445312 65.7314453125 c 0
 164.319335938 46.49609375 138.112304688 37.12890625 108.62109375 37.12890625 c 0
 64.3046875 37.12890625 24.19140625 58.0107421875 43.7431640625 142.69921875 c 0xf4
EndSplineSet
EndChar

StartChar: b
Encoding: 98 98 68
Width: 411
GlyphClass: 2
Flags: MW
HStem: -7.75 46.9199<116.121 149.145 115.113 156.797> 473.69 46.9199<237.532 265.467>
VStem: 59.6924 54.0605 299.392 54.0615
LayerCount: 2
Fore
SplineSet
137.020507812 -7.75 m 0
 176.57421875 -7.75 210.84765625 6.076171875 241.32421875 33.9609375 c 0
 271.443359375 61.51953125 294.021484375 104.57421875 307.768554688 164.120117188 c 2
 350.391601562 348.740234375 l 2
 364.138671875 408.28515625 361.440429688 451.340820312 344.045898438 478.899414062 c 0
 326.46484375 506.752929688 298.25390625 520.610351562 257.981445312 520.610351562 c 0
 217.083007812 520.610351562 182.420898438 502.665039062 151.841796875 465.239257812 c 2
 131.973632812 440.922851562 l 1
 189.2265625 688.91015625 l 1
 135.166015625 688.91015625 l 1
 -23.787109375 0.41015625 l 1
 30.2734375 0.41015625 l 1
 33.3740234375 13.83984375 36.4755859375 27.2705078125 39.576171875 40.7001953125 c 2
 45.791015625 67.6220703125 l 1
 54.6640625 44.71484375 l 2
 68.3408203125 9.4033203125 95.220703125 -7.75 137.020507812 -7.75 c 0
134.58984375 39.169921875 m 0
 95.63671875 39.169921875 43.7099609375 58.6142578125 69.7158203125 171.259765625 c 2
 108.571289062 339.559570312 l 2
 118.34375 381.889648438 133.491210938 414.947265625 155.176757812 438.283203125 c 0
 177.04296875 461.8125 204.301757812 473.690429688 234.907226562 473.690429688 c 0
 296.026367188 473.690429688 314.020507812 425.366210938 294.446289062 340.580078125 c 2
 255.591796875 172.280273438 l 2
 245.076171875 126.735351562 230.486328125 93.0283203125 209.963867188 71.4296875 c 0
 189.5 49.8935546875 163.700195312 39.169921875 134.58984375 39.169921875 c 0
EndSplineSet
EndChar

StartChar: c
Encoding: 99 99 69
Width: 408
GlyphClass: 2
Flags: MW
HStem: -7.75 46.9199<111.983 151.925> 473.691 46.9189<214.172 252.277>
VStem: 50.5137 54.0596 296.333 54.0605
LayerCount: 2
Fore
SplineSet
349.922851562 359.9609375 m 2
 359.0859375 399.651367188 383.232421875 520.610351562 238.600585938 520.610351562 c 0
 189.743164062 520.610351562 149.749023438 506.708984375 117.338867188 479.600585938 c 0
 85.2529296875 452.762695312 61.5009765625 409.590820312 47.4521484375 348.740234375 c 2
 4.8291015625 164.120117188 l 2
 -9.21875 103.268554688 -5.4013671875 60.0966796875 14.29296875 33.259765625 c 0
 34.1689453125 6.1748046875 68.07421875 -7.75 117.640625 -7.75 c 0
 186.209960938 -7.75 271.697265625 21.12890625 302.354492188 153.919921875 c 2
 303.649414062 159.530273438 l 1
 249.588867188 159.530273438 l 1
 248.05859375 152.900390625 l 2
 240.961914062 122.16015625 218.012695312 39.169921875 127.452148438 39.169921875 c 0
 96.513671875 39.169921875 74.0146484375 49.4921875 61.9306640625 70.59375 c 0
 49.712890625 91.9287109375 50.0947265625 126.026367188 60.7734375 172.28125 c 2
 99.6279296875 340.581054688 l 2
 110.306640625 386.834960938 125.668945312 420.932617188 147.73828125 442.267578125 c 0
 169.616210938 463.416992188 197.227539062 473.69140625 228.790039062 473.69140625 c 0
 275.764648438 473.69140625 316.811523438 450.703125 295.862304688 359.9609375 c 2
 294.33203125 353.331054688 l 1
 348.392578125 353.331054688 l 1
 349.922851562 359.9609375 l 2
EndSplineSet
EndChar

StartChar: d
Encoding: 100 100 70
Width: 411
GlyphClass: 2
Flags: MW
HStem: -7.75 46.9199<105.758 117.12> 473.69 46.9199<198.424 239.015 198.424 245.489>
VStem: 50.5137 54.0596 290.214 54.0596
LayerCount: 2
Fore
SplineSet
96.2197265625 -7.75 m 0
 138.01953125 -7.75 172.819335938 9.4033203125 202.80078125 44.71484375 c 2
 222.251953125 67.623046875 l 1
 206.734375 0.41015625 l 1
 260.793945312 0.41015625 l 1
 419.747070312 688.91015625 l 1
 365.6875 688.91015625 l 1
 308.434570312 440.922851562 l 1
 299.793945312 465.239257812 l 2
 286.509765625 502.623046875 259.828125 520.610351562 218.201171875 520.610351562 c 0
 178.647460938 520.610351562 144.373046875 506.783203125 113.897460938 478.899414062 c 0
 83.7783203125 451.340820312 61.19921875 408.28515625 47.4521484375 348.740234375 c 2
 4.8291015625 164.120117188 l 2
 -8.91796875 104.57421875 -6.21875 61.51953125 11.17578125 33.9609375 c 0
 28.775390625 6.076171875 56.666015625 -7.75 96.2197265625 -7.75 c 0
220.629882812 473.690429688 m 0
 270.348632812 473.690429688 309.373046875 444.986328125 285.033203125 339.559570312 c 2
 246.177734375 171.259765625 l 2
 236.559570312 129.595703125 221.512695312 97.01953125 199.880859375 74.01953125 c 0
 178.071289062 50.8310546875 150.875976562 39.169921875 120.3125 39.169921875 c 0
 91.203125 39.169921875 70.3544921875 49.8935546875 59.8359375 71.4296875 c 0
 49.2861328125 93.0283203125 50.2578125 126.735351562 60.7734375 172.280273438 c 2
 99.6279296875 340.580078125 l 2
 119.202148438 425.366210938 159.510742188 473.690429688 220.629882812 473.690429688 c 0
EndSplineSet
EndChar

StartChar: e
Encoding: 101 101 71
Width: 407
GlyphClass: 2
Flags: MW
HStem: -7.75 44.8799<113.509 150.154> 473.689 46.9209<211.897 240.886>
VStem: 50.5137 54.0596 296.333 53.04
LayerCount: 2
Fore
SplineSet
245.484375 146.26953125 m 1
 238.500976562 117.669921875 215.629882812 37.1298828125 129.021484375 37.1298828125 c 0
 97.9970703125 37.1298828125 75.2958984375 47.8642578125 62.7294921875 69.548828125 c 0
 49.9921875 91.5283203125 50.1650390625 126.333984375 61.0078125 173.298828125 c 2
 77.138671875 243.169921875 l 1
 321.938476562 243.169921875 l 1
 344.8984375 342.620117188 l 2
 358.774414062 402.719726562 355.08203125 446.873046875 335.381835938 476.21875 c 0
 315.581054688 505.71484375 282.826171875 520.610351562 235.541992188 520.610351562 c 0
 188.252929688 520.610351562 149.0078125 505.71875 116.302734375 476.288085938 c 0
 83.6982421875 446.94921875 59.921875 402.75 46.0390625 342.620117188 c 2
 6.7138671875 172.280273438 l 2
 -27.416015625 24.4482421875 40.390625 -7.75 116.620117188 -7.75 c 0
 183.6875 -7.75 267.51953125 19.763671875 298.515625 146.26953125 c 1
 245.484375 146.26953125 l 1
225.728515625 473.689453125 m 0
 256.043945312 473.689453125 278.173828125 463.317382812 290.23046875 442.265625 c 0
 302.418945312 420.982421875 302.232421875 387.551757812 291.858398438 342.619140625 c 2
 277.611328125 280.909179688 l 1
 85.8515625 280.909179688 l 1
 99.6279296875 340.579101562 l 2
 110.15234375 386.166992188 125.314453125 420.022460938 146.990234375 441.637695312 c 0
 168.512695312 463.098632812 195.375976562 473.689453125 225.728515625 473.689453125 c 0
EndSplineSet
EndChar

StartChar: f
Encoding: 102 102 72
Width: 284
GlyphClass: 2
Flags: MW
HStem: 649.13 39.7803<300.913 303.979 303.979 313.663 313.663 313.663>
VStem: 102.534 54.0605
LayerCount: 2
Fore
SplineSet
204.163085938 568.040039062 m 2
 217.287109375 624.889648438 247.418945312 649.129882812 300.913085938 649.129882812 c 2
 313.663085938 649.129882812 l 1
 322.84765625 688.91015625 l 1
 303.978515625 688.91015625 l 2
 258.477539062 688.91015625 175.056640625 676.12890625 147.983398438 558.860351562 c 2
 137.268554688 512.450195312 l 1
 74.029296875 512.450195312 l 1
 65.0810546875 473.690429688 l 1
 128.3203125 473.690429688 l 1
 19.0546875 0.41015625 l 1
 73.115234375 0.41015625 l 1
 182.380859375 473.690429688 l 1
 273.16015625 473.690429688 l 1
 282.108398438 512.450195312 l 1
 191.329101562 512.450195312 l 1
 204.163085938 568.040039062 l 2
EndSplineSet
EndChar

StartChar: g
Encoding: 103 103 73
Width: 411
GlyphClass: 2
Flags: MW
HStem: -164.83 44.8799<72.6899 100.643> 33.0498 46.9199<115.2 126.929> 473.69 46.9199<206.708 239.376 198.424 245.439>
VStem: 50.5137 54.0596 290.214 54.0596
LayerCount: 2
Fore
SplineSet
-37.263671875 -46.509765625 m 1
 -43.6396484375 -87.01171875 -40.7900390625 -164.830078125 75.255859375 -164.830078125 c 0
 126.030273438 -164.830078125 165.861328125 -149.22265625 196.63671875 -118.81640625 c 0
 227.91796875 -87.9091796875 250.184570312 -45.54296875 262.795898438 9.080078125 c 2
 379.0078125 512.450195312 l 1
 324.948242188 512.450195312 l 1
 308.264648438 440.184570312 l 1
 299.763671875 465.325195312 l 2
 287.159179688 502.607421875 260.551757812 520.610351562 218.201171875 520.610351562 c 0
 178.647460938 520.610351562 144.373046875 506.783203125 113.897460938 478.899414062 c 0
 83.7568359375 451.321289062 61.2744140625 408.608398438 47.6875 349.759765625 c 2
 14.013671875 203.900390625 l 2
 0.4267578125 145.051757812 3.1884765625 102.338867188 20.5947265625 74.7607421875 c 0
 38.1953125 46.876953125 66.0849609375 33.0498046875 105.638671875 33.0498046875 c 0
 148.219726562 33.0498046875 182.892578125 49.943359375 211.956054688 84.4609375 c 2
 231.497070312 107.668945312 l 1
 207.323242188 2.9599609375 l 2
 190.14453125 -71.4462890625 155.049804688 -119.950195312 85.6181640625 -119.950195312 c 0
 59.76171875 -119.950195312 39.8955078125 -112.858398438 27.3388671875 -98.0166015625 c 0
 16.1328125 -84.771484375 11.802734375 -67.3125 14 -46.509765625 c 1
 -37.263671875 -46.509765625 l 1
220.629882812 473.690429688 m 0
 270.248046875 473.690429688 309.4453125 445.299804688 285.268554688 340.580078125 c 2
 255.59765625 212.059570312 l 2
 245.978515625 170.396484375 230.93359375 137.819335938 209.30078125 114.819335938 c 0
 187.4921875 91.6318359375 160.295898438 79.9697265625 129.732421875 79.9697265625 c 0
 100.666992188 79.9697265625 79.7861328125 90.4755859375 69.1630859375 111.66796875 c 0
 58.4892578125 132.961914062 59.4443359375 166.524414062 69.95703125 212.059570312 c 2
 99.86328125 341.599609375 l 2
 110.3828125 387.163085938 125.305664062 420.828125 146.58203125 442.1328125 c 0
 167.512695312 463.08984375 192.786132812 473.690429688 220.629882812 473.690429688 c 0
EndSplineSet
EndChar

StartChar: h
Encoding: 104 104 74
Width: 415
GlyphClass: 2
Flags: MW
HStem: 473.69 46.9199<216.682 280.272>
VStem: 59.6934 54.0605 294.295 54.0596
LayerCount: 2
Fore
SplineSet
229.809570312 473.690429688 m 0
 250.129882812 473.690429688 318.478515625 466.75 296.4140625 371.1796875 c 2
 210.815429688 0.41015625 l 1
 264.875 0.41015625 l 1
 351.180664062 374.240234375 l 2
 362.215820312 422.041992188 359.223632812 457.952148438 343.456054688 482.983398438 c 0
 327.744140625 507.92578125 300.521484375 520.610351562 260.022460938 520.610351562 c 0
 242.966796875 520.610351562 193.0859375 516.337890625 152.8046875 470.083984375 c 2
 133.622070312 448.056640625 l 1
 189.227539062 688.91015625 l 1
 135.166992188 688.91015625 l 1
 -23.7861328125 0.41015625 l 1
 30.2744140625 0.41015625 l 1
 115.873046875 371.1796875 l 2
 123.220703125 403.005859375 137.120117188 428.62109375 158.34765625 446.790039062 c 0
 179.293945312 464.717773438 203.553710938 473.690429688 229.809570312 473.690429688 c 0
EndSplineSet
EndChar

StartChar: i
Encoding: 105 105 75
Width: 194
GlyphClass: 2
Flags: W
LayerCount: 2
Fore
SplineSet
154.607421875 512.450195312 m 1
 100.547851562 512.450195312 l 1
 -17.666015625 0.41015625 l 1
 36.3935546875 0.41015625 l 1
 154.607421875 512.450195312 l 1
196.130859375 687.889648438 m 1
 141.05078125 687.889648438 l 1
 123.389648438 611.389648438 l 1
 178.469726562 611.389648438 l 1
 196.130859375 687.889648438 l 1
EndSplineSet
EndChar

StartChar: j
Encoding: 106 106 76
Width: 190
GlyphClass: 2
Flags: MW
HStem: -154.63 46.9199<-145.26 -126.777 -134.428 -126.777 -134.428 -103.735>
VStem: 61.7344 55.0801
LayerCount: 2
Fore
SplineSet
192.05078125 687.889648438 m 1
 136.970703125 687.889648438 l 1
 119.309570312 611.389648438 l 1
 174.389648438 611.389648438 l 1
 192.05078125 687.889648438 l 1
-135.5703125 -154.629882812 m 2
 -71.900390625 -154.629882812 3.2275390625 -129.998046875 28.0361328125 -22.5400390625 c 2
 151.548828125 512.450195312 l 1
 96.46875 512.450195312 l 1
 -26.3369140625 -19.48046875 l 2
 -31.6220703125 -42.373046875 -49.6689453125 -107.709960938 -126.77734375 -107.709960938 c 2
 -134.427734375 -107.709960938 l 1
 -145.259765625 -154.629882812 l 1
 -135.5703125 -154.629882812 l 2
EndSplineSet
EndChar

StartChar: k
Encoding: 107 107 77
Width: 408
GlyphClass: 2
Flags: W
LayerCount: 2
Fore
SplineSet
80.8974609375 219.682617188 m 1
 189.227539062 688.91015625 l 1
 135.166992188 688.91015625 l 1
 -23.7861328125 0.41015625 l 1
 30.2744140625 0.41015625 l 1
 65.0810546875 151.172851562 l 1
 172.663085938 269.333984375 l 1
 235.584960938 0.41015625 l 1
 298.024414062 0.41015625 l 1
 216.60546875 317.763671875 l 1
 394.604492188 512.450195312 l 1
 336.7734375 512.450195312 l 1
 80.8974609375 219.682617188 l 1
EndSplineSet
EndChar

StartChar: l
Encoding: 108 108 78
Width: 230
GlyphClass: 2
Flags: MW
HStem: 0.410156 46.9199<109.325 119.015 119.015 119.015>
VStem: 59.6943 55.0801
LayerCount: 2
Fore
SplineSet
6.7099609375 132.5 m 2
 -7.87890625 69.306640625 1.044921875 0.41015625 109.325195312 0.41015625 c 2
 119.014648438 0.41015625 l 1
 129.846679688 47.330078125 l 1
 122.197265625 47.330078125 l 2
 83.7373046875 47.330078125 45.9501953125 63.8916015625 62.49609375 135.559570312 c 2
 190.248046875 688.91015625 l 1
 135.16796875 688.91015625 l 1
 6.7099609375 132.5 l 2
EndSplineSet
EndChar

StartChar: m
Encoding: 109 109 79
Width: 649
GlyphClass: 2
Flags: MW
HStem: 473.689 46.9199<206.48 271.986 477.182 486.914>
VStem: 59.6934 55.0801 294.295 54.0596 527.874 55.0801
LayerCount: 2
Fore
SplineSet
585.779296875 374.239257812 m 2
 600.731445312 439.00390625 598.209960938 520.609375 490.54296875 520.609375 c 0
 463.821289062 520.609375 412.299804688 512.454101562 366.327148438 457.969726562 c 2
 356.985351562 446.897460938 l 1
 349.71484375 468.549804688 343.504882812 487.043945312 319.530273438 503.854492188 c 0
 303.639648438 514.995117188 283.950195312 520.609375 260.022460938 520.609375 c 0
 242.590820312 520.609375 191.342773438 516.21484375 151.474609375 468.231445312 c 2
 131.790039062 444.540039062 l 1
 147.46875 512.44921875 l 1
 129.788085938 512.44921875 112.108398438 512.450195312 94.427734375 512.450195312 c 1
 -23.7861328125 0.41015625 l 1
 31.2939453125 0.41015625 l 1
 116.892578125 371.1796875 l 2
 133.405273438 442.704101562 183.151367188 473.689453125 229.80859375 473.689453125 c 0
 256.724609375 473.689453125 277.057617188 464.547851562 289.327148438 446.157226562 c 0
 301.63671875 427.704101562 303.608398438 402.340820312 296.4140625 371.178710938 c 2
 210.815429688 0.4091796875 l 1
 264.875 0.4091796875 l 1
 350.708984375 372.19921875 l 2
 366.357421875 439.979492188 415.216796875 473.689453125 465.4296875 473.689453125 c 0
 508.397460938 473.689453125 547.657226562 447.692382812 529.993164062 371.178710938 c 2
 444.39453125 0.4091796875 l 1
 499.474609375 0.4091796875 l 1
 585.779296875 374.239257812 l 2
EndSplineSet
EndChar

StartChar: n
Encoding: 110 110 80
Width: 415
GlyphClass: 2
Flags: MW
HStem: 473.689 46.9199<206.776 280.259>
VStem: 59.6934 54.0605 294.295 54.0596
LayerCount: 2
Fore
SplineSet
229.80859375 473.689453125 m 0
 250.12890625 473.689453125 318.478515625 466.749023438 296.4140625 371.178710938 c 2
 210.815429688 0.4091796875 l 1
 264.875 0.4091796875 l 1
 351.1796875 374.239257812 l 2
 362.052734375 421.333984375 359.048828125 457.095703125 343.315429688 482.508789062 c 0
 327.666992188 507.782226562 300.495117188 520.609375 260.022460938 520.609375 c 0
 244.458984375 520.609375 190.859375 516.862304688 150.454101562 468.231445312 c 2
 130.770507812 444.540039062 l 1
 146.44921875 512.44921875 l 1
 129.108398438 512.44921875 111.768554688 512.450195312 94.427734375 512.450195312 c 1
 -23.7861328125 0.41015625 l 1
 30.2744140625 0.41015625 l 1
 115.873046875 371.1796875 l 2
 132.500976562 443.202148438 183.743164062 473.689453125 229.80859375 473.689453125 c 0
EndSplineSet
EndChar

StartChar: o
Encoding: 111 111 81
Width: 408
GlyphClass: 2
Flags: MW
HStem: -7.75 46.9199<111.275 140.331> 473.691 46.9189<214.172 241.926>
VStem: 50.5137 54.0596 296.333 54.0596
LayerCount: 2
Fore
SplineSet
116.619140625 -7.75 m 0
 164.041992188 -7.75 203.178710938 6.251953125 235.370117188 33.703125 c 0
 267.275390625 60.9091796875 290.819335938 103.958984375 304.708007812 164.120117188 c 2
 347.331054688 348.740234375 l 2
 361.220703125 408.901367188 357.5546875 451.951171875 338.2109375 479.157226562 c 0
 318.6953125 506.608398438 286.0234375 520.610351562 238.600585938 520.610351562 c 0
 189.743164062 520.610351562 149.749023438 506.708984375 117.338867188 479.600585938 c 0
 85.2529296875 452.762695312 61.5009765625 409.590820312 47.4521484375 348.740234375 c 2
 4.8291015625 164.120117188 l 2
 -9.21875 103.268554688 -5.4013671875 60.0966796875 14.29296875 33.259765625 c 0
 34.185546875 6.1513671875 67.76171875 -7.75 116.619140625 -7.75 c 0
126.432617188 39.169921875 m 0
 96.1171875 39.169921875 73.9873046875 49.5419921875 61.9306640625 70.59375 c 0
 49.712890625 91.9287109375 50.0947265625 126.026367188 60.7734375 172.28125 c 2
 99.6279296875 340.581054688 l 2
 110.306640625 386.834960938 125.668945312 420.932617188 147.73828125 442.267578125 c 0
 169.515625 463.319335938 196.434570312 473.69140625 226.75 473.69140625 c 0
 257.102539062 473.69140625 279.076171875 463.100585938 290.689453125 441.639648438 c 0
 302.383789062 420.024414062 301.913085938 386.168945312 291.387695312 340.581054688 c 2
 252.533203125 172.28125 l 2
 242.0078125 126.693359375 226.846679688 92.8359375 205.170898438 71.2216796875 c 0
 183.649414062 49.759765625 156.78515625 39.169921875 126.432617188 39.169921875 c 0
EndSplineSet
EndChar

StartChar: p
Encoding: 112 112 82
Width: 411
GlyphClass: 2
Flags: MW
HStem: -7.75 46.9199<116.092 149.145 115.113 156.797> 473.69 46.9199<237.532 265.467>
VStem: 59.6934 54.0605 299.392 54.0615
LayerCount: 2
Fore
SplineSet
148.487304688 512.450195312 m 1
 94.427734375 512.450195312 l 1
 -59.580078125 -154.629882812 l 1
 -5.51953125 -154.629882812 l 1
 45.4599609375 66.1865234375 l 1
 54.4072265625 43.748046875 l 2
 68.2138671875 9.125 95.1630859375 -7.75 137.020507812 -7.75 c 0
 176.57421875 -7.75 210.84765625 6.076171875 241.32421875 33.9609375 c 0
 271.443359375 61.51953125 294.021484375 104.57421875 307.768554688 164.120117188 c 2
 350.391601562 348.740234375 l 2
 364.138671875 408.28515625 361.440429688 451.340820312 344.045898438 478.899414062 c 0
 326.46484375 506.752929688 298.25390625 520.610351562 257.981445312 520.610351562 c 0
 217.083007812 520.610351562 182.420898438 502.665039062 151.841796875 465.239257812 c 2
 131.973632812 440.922851562 l 1
 148.487304688 512.450195312 l 1
134.58984375 39.169921875 m 0
 95.63671875 39.169921875 43.7099609375 58.6142578125 69.7158203125 171.259765625 c 2
 108.571289062 339.559570312 l 2
 118.34375 381.889648438 133.491210938 414.947265625 155.176757812 438.283203125 c 0
 177.04296875 461.8125 204.301757812 473.690429688 234.907226562 473.690429688 c 0
 296.026367188 473.690429688 314.020507812 425.366210938 294.446289062 340.580078125 c 2
 255.591796875 172.280273438 l 2
 245.076171875 126.735351562 230.486328125 93.0283203125 209.963867188 71.4296875 c 0
 189.5 49.8935546875 163.700195312 39.169921875 134.58984375 39.169921875 c 0
EndSplineSet
EndChar

StartChar: q
Encoding: 113 113 83
Width: 411
GlyphClass: 2
Flags: MW
HStem: -7.75 46.9199<105.756 117.147> 473.69 46.9199<199.084 239.67 199.084 245.487>
VStem: 50.5127 54.0586 290.214 54.0596
LayerCount: 2
Fore
SplineSet
221.919921875 66.1865234375 m 1
 170.940429688 -154.629882812 l 1
 225 -154.629882812 l 1
 379.0078125 512.450195312 l 1
 324.948242188 512.450195312 l 1
 308.434570312 440.922851562 l 1
 299.793945312 465.239257812 l 2
 286.494140625 502.665039062 260.119140625 520.610351562 219.220703125 520.610351562 c 0
 178.948242188 520.610351562 144.338867188 506.752929688 113.896484375 478.899414062 c 0
 83.77734375 451.340820312 61.1982421875 408.28515625 47.451171875 348.740234375 c 2
 4.828125 164.120117188 l 2
 -8.9189453125 104.57421875 -6.2197265625 61.51953125 11.1748046875 33.9609375 c 0
 28.7744140625 6.076171875 56.6650390625 -7.75 96.21875 -7.75 c 0
 138.076171875 -7.75 172.817382812 9.125 202.610351562 43.748046875 c 2
 221.919921875 66.1865234375 l 1
220.627929688 473.690429688 m 0
 270.346679688 473.690429688 309.37109375 444.986328125 285.03125 339.559570312 c 2
 246.17578125 171.259765625 l 2
 236.557617188 129.595703125 221.51171875 97.01953125 199.879882812 74.01953125 c 0
 178.0703125 50.8310546875 150.875 39.169921875 120.311523438 39.169921875 c 0
 91.201171875 39.169921875 70.3525390625 49.8935546875 59.833984375 71.4296875 c 0
 49.2841796875 93.0283203125 50.255859375 126.735351562 60.771484375 172.280273438 c 2
 99.6259765625 340.580078125 l 2
 119.200195312 425.366210938 159.508789062 473.690429688 220.627929688 473.690429688 c 0
EndSplineSet
EndChar

StartChar: r
Encoding: 114 114 84
Width: 286
GlyphClass: 2
Flags: MW
HStem: 473.69 46.9199<214.36 271.763>
VStem: 59.6934 54.0605
LayerCount: 2
Fore
SplineSet
114.931640625 367.099609375 m 2
 131.21484375 437.629882812 186.669921875 473.690429688 242.049804688 473.690429688 c 0
 255.7265625 473.690429688 269.663085938 471.500976562 283.904296875 467.216796875 c 1
 295.63671875 518.034179688 l 1
 287.217773438 519.731445312 277.384765625 520.610351562 266.141601562 520.610351562 c 0
 232.48046875 520.610351562 186.390625 510.390625 149.646484375 464.31640625 c 2
 129.504882812 439.0625 l 1
 146.448242188 512.450195312 l 1
 94.427734375 512.450195312 l 1
 -23.7861328125 0.41015625 l 1
 30.2744140625 0.41015625 l 1
 114.931640625 367.099609375 l 2
EndSplineSet
EndChar

StartChar: s
Encoding: 115 115 85
Width: 380
GlyphClass: 2
Flags: MW
HStem: -7.75 45.9004<101.164 125.467> 475.731 44.8799<203.972 229.248>
VStem: 40.3213 48.9629 45.416 54.0596 284.097 54.0576
LayerCount: 2
Fore
SplineSet
113.959960938 38.150390625 m 0xd8
 88.3681640625 38.150390625 17.15234375 45.802734375 36.41796875 133.009765625 c 1
 -12.544921875 133.009765625 l 1xe8
 -22.39453125 89.056640625 -17.0439453125 55.2802734375 2.75 30.3662109375 c 0
 22.775390625 5.158203125 55.162109375 -7.75 101.3203125 -7.75 c 0
 149.61328125 -7.75 189.35546875 5.0712890625 221.580078125 29.955078125 c 0
 253.720703125 54.775390625 275.23828125 89.48046875 285.875976562 135.559570312 c 0
 294.399414062 172.4765625 292.041992188 200.068359375 280.020507812 219.333007812 c 0
 267.6484375 239.161132812 245.745117188 256.6328125 213.815429688 271.291992188 c 2
 153.872070312 298.833007812 l 2
 128.083984375 311.098632812 92.861328125 333.349609375 105.833984375 389.541015625 c 0
 111.840820312 415.561523438 124.740234375 437.092773438 144.719726562 452.70703125 c 0
 164.629882812 468.266601562 188.41015625 475.731445312 214.982421875 475.731445312 c 0
 243.512695312 475.731445312 306.295898438 465.844726562 286.249023438 375.771484375 c 1
 335.21484375 375.771484375 l 1
 336.509765625 381.380859375 l 2
 346.512695312 424.708984375 341.423828125 458.154296875 321.96484375 483.038085938 c 0
 302.526367188 507.899414062 271.1328125 520.611328125 226.364257812 520.611328125 c 0
 181.580078125 520.611328125 143.943359375 508.049804688 112.3828125 483.446289062 c 0
 80.828125 458.84765625 60.259765625 426.296875 50.5966796875 384.440429688 c 0
 36.591796875 323.776367188 57.720703125 280.815429688 116.69140625 253.811523438 c 2
 176.639648438 226.268554688 l 2
 227.21875 202.6796875 241.340820312 176.803710938 230.641601562 130.459960938 c 0
 223.73046875 100.526367188 209.758789062 76.7451171875 187.997070312 60.943359375 c 0
 166.7890625 45.544921875 141.817382812 38.150390625 113.959960938 38.150390625 c 0xd8
EndSplineSet
EndChar

StartChar: t
Encoding: 116 116 86
Width: 291
GlyphClass: 2
Flags: MW
HStem: 0.410156 45.8994<148.084 157.774 157.774 157.774>
VStem: 94.373 54.0605
LayerCount: 2
Fore
SplineSet
161.740234375 46.3095703125 m 2
 111.12890625 46.3095703125 80.89453125 69.4560546875 95.919921875 134.540039062 c 2
 174.219726562 473.690429688 l 1
 275.19921875 473.690429688 l 1
 284.147460938 512.450195312 l 1
 183.16796875 512.450195312 l 1
 214.919921875 649.984375 l 1
 155.169921875 625.338867188 l 1
 129.107421875 512.450195312 l 1
 61.7880859375 512.450195312 l 1
 52.83984375 473.690429688 l 1
 120.159179688 473.690429688 l 1
 41.1533203125 131.48046875 l 2
 23.55078125 55.2353515625 44.04296875 0.41015625 148.083984375 0.41015625 c 2
 157.774414062 0.41015625 l 1
 168.37109375 46.3095703125 l 1
 161.740234375 46.3095703125 l 2
EndSplineSet
EndChar

StartChar: u
Encoding: 117 117 87
Width: 415
GlyphClass: 2
Flags: MW
HStem: -7.75 46.9199<112.929 159.115>
VStem: 59.6943 54.0605 294.294 54.0596
LayerCount: 2
Fore
SplineSet
11.890625 154.940429688 m 2
 -17.78515625 26.4013671875 37.7099609375 -7.75 118.66015625 -7.75 c 0
 199.569335938 -7.75 270.866210938 26.365234375 300.549804688 154.940429688 c 2
 383.087890625 512.450195312 l 1
 329.028320312 512.450195312 l 1
 257.323242188 201.860351562 l 2
 231.416992188 89.6484375 204.778320312 39.169921875 130.513671875 39.169921875 c 0
 95.3447265625 39.169921875 72.529296875 52.2763671875 66.0361328125 79.2646484375 c 0
 59.845703125 105 63.7998046875 145.62109375 76.7841796875 201.860351562 c 2
 148.489257812 512.450195312 l 1
 94.4287109375 512.450195312 l 1
 11.890625 154.940429688 l 2
EndSplineSet
EndChar

StartChar: v
Encoding: 118 118 88
Width: 369
GlyphClass: 2
Flags: MW
VStem: 285.567 59.4736
LayerCount: 2
Fore
SplineSet
111.328125 512.450195312 m 1
 51.822265625 512.450195312 l 1
 68.3037109375 0.41015625 l 1
 125.875976562 0.41015625 l 1
 379.775390625 512.450195312 l 1
 320.301757812 512.450195312 l 1
 114.116210938 69.6005859375 l 1
 111.328125 512.450195312 l 1
EndSplineSet
EndChar

StartChar: w
Encoding: 119 119 89
Width: 579
GlyphClass: 2
Flags: MW
VStem: 16.7393 59.5801 494.928 60.5635
LayerCount: 2
Fore
SplineSet
111.053710938 512.450195312 m 1
 51.4736328125 512.450195312 l 1
 49.1376953125 0.41015625 l 1
 104.23828125 0.41015625 l 1
 299.224609375 425.690429688 l 1
 300.01953125 0.41015625 l 1
 354.153320312 0.41015625 l 1
 590.225585938 512.450195312 l 1
 529.662109375 512.450195312 l 1
 341.764648438 67.7373046875 l 1
 342.817382812 512.450195312 l 1
 295.887695312 512.450195312 l 1
 93.59375 67.3173828125 l 1
 111.053710938 512.450195312 l 1
EndSplineSet
EndChar

StartChar: x
Encoding: 120 120 90
Width: 346
GlyphClass: 2
Flags: W
LayerCount: 2
Fore
SplineSet
-7.8330078125 0.41015625 m 1
 132.490234375 207.137695312 l 1
 179.513671875 0.41015625 l 1
 237.146484375 0.41015625 l 1
 175.66015625 271.266601562 l 1
 345.014648438 512.450195312 l 1
 287.6171875 512.450195312 l 1
 163.494140625 327.044921875 l 1
 120.64453125 512.450195312 l 1
 63.0146484375 512.450195312 l 1
 119.141601562 267.1484375 l 1
 -64.4052734375 0.41015625 l 1
 -7.8330078125 0.41015625 l 1
EndSplineSet
EndChar

StartChar: y
Encoding: 121 121 91
Width: 369
GlyphClass: 2
Flags: MW
HStem: -156.67 46.9199<-74.3311 -53.8086 -63.499 -53.8086 -63.499 -50.8169>
VStem: 285.533 59.4902
LayerCount: 2
Fore
SplineSet
-74.3310546875 -156.669921875 m 1
 -71.7802734375 -156.669921875 l 2
 -29.853515625 -156.669921875 4.09765625 -148.788085938 30.2724609375 -133.939453125 c 0
 56.0029296875 -119.342773438 78.44921875 -93.6376953125 97.21484375 -55.30078125 c 2
 379.7578125 512.450195312 l 1
 320.267578125 512.450195312 l 1
 118.758789062 84.9599609375 l 1
 111.392578125 512.450195312 l 1
 51.8369140625 512.450195312 l 1
 69.8056640625 -19.42578125 l 1
 61.0732421875 -37.5849609375 l 2
 37.9912109375 -87.767578125 3.4296875 -109.75 -53.80859375 -109.75 c 2
 -63.4990234375 -109.75 l 1
 -74.3310546875 -156.669921875 l 1
EndSplineSet
EndChar

StartChar: z
Encoding: 122 122 92
Width: 374
GlyphClass: 2
Flags: MW
VStem: 50.5137 266.22
LayerCount: 2
Fore
SplineSet
244.321289062 48.349609375 m 1
 32.3486328125 48.349609375 l 1
 339.063476562 458.720703125 l 1
 351.467773438 512.450195312 l 1
 85.248046875 512.450195312 l 1
 74.1796875 464.509765625 l 1
 286.15234375 464.509765625 l 1
 -20.5615234375 54.1396484375 l 1
 -32.9658203125 0.41015625 l 1
 233.25390625 0.41015625 l 1
 244.321289062 48.349609375 l 1
EndSplineSet
EndChar

StartChar: braceleft
Encoding: 123 123 93
Width: 304
GlyphClass: 2
Flags: MW
HStem: -85.2695 51<125.758 137.019 137.019 143.094 143.094 143.094> 305.015 49.707<37.3564 48.832> 688.909 51<303.978 321.827 321.827 321.827>
VStem: 117.833 58.1416
LayerCount: 2
Fore
SplineSet
39.4150390625 22.3359375 m 2
 20.01953125 -61.6767578125 55.0908203125 -85.26953125 110.963867188 -85.26953125 c 2
 143.09375 -85.26953125 l 1
 154.868164062 -34.26953125 l 1
 137.018554688 -34.26953125 l 2
 114.497070312 -34.26953125 86.58984375 -25.166015625 97.7939453125 23.3603515625 c 2
 139.00390625 201.860351562 l 2
 148.15625 241.505859375 150.579101562 269.616210938 147.2265625 285.470703125 c 0
 143.944335938 300.990234375 133.212890625 313.685546875 113.484375 323.375976562 c 2
 98.197265625 330.884765625 l 1
 117.104492188 337.52734375 l 2
 140.833007812 345.86328125 157.091796875 357.939453125 167.576171875 373.708984375 c 0
 178.373046875 389.94921875 188.958007812 418.235351562 198.110351562 457.87890625 c 2
 238.142578125 631.279296875 l 2
 243.846679688 655.98828125 259.747070312 688.909179688 303.977539062 688.909179688 c 2
 321.827148438 688.909179688 l 1
 333.6015625 739.909179688 l 1
 301.471679688 739.909179688 l 2
 245.598632812 739.909179688 199.633789062 716.31640625 180.236328125 632.298828125 c 2
 136.200195312 441.55859375 l 2
 122.751953125 383.307617188 98.564453125 358.342773438 48.83203125 354.721679688 c 1
 37.3564453125 305.014648438 l 1
 82.9150390625 301.581054688 98.6328125 278.8359375 85.099609375 220.215820312 c 2
 39.4150390625 22.3359375 l 2
EndSplineSet
Substitution2: "'rtla' Right to Left Alternates lookup 0 subtable" braceright
EndChar

StartChar: bar
Encoding: 124 124 94
Width: 262
GlyphClass: 2
Flags: MW
VStem: 101.514 52.0195
LayerCount: 2
Fore
SplineSet
240.780273438 739.91015625 m 1
 188.760742188 739.91015625 l 1
 -1.51171875 -84.25 l 1
 50.5078125 -84.25 l 1
 240.780273438 739.91015625 l 1
EndSplineSet
EndChar

StartChar: braceright
Encoding: 125 125 95
Width: 304
GlyphClass: 2
Flags: MW
HStem: -85.2695 51<-40.9727 -38.168 -40.9727 -20.6172 -40.9727 7.31934> 305.018 49.7061<233.2 244.676> 688.912 51<137.762 142.817 142.817 154.078>
VStem: 119.873 59.1611
LayerCount: 2
Fore
SplineSet
241.438476562 632.301757812 m 2
 260.841796875 716.34765625 225.734375 739.912109375 169.891601562 739.912109375 c 2
 137.76171875 739.912109375 l 1
 125.987304688 688.912109375 l 1
 142.817382812 688.912109375 l 2
 165.337890625 688.912109375 193.245117188 679.807617188 182.041992188 631.282226562 c 2
 142.008789062 457.881835938 l 2
 132.856445312 418.23828125 130.379882812 389.952148438 133.678710938 373.711914062 c 0
 136.865234375 358.026367188 147.81640625 345.91796875 168.400390625 337.5546875 c 2
 184.80859375 330.888671875 l 1
 165.467773438 323.345703125 l 2
 140.555664062 313.630859375 123.678710938 300.91015625 113.28515625 285.47265625 c 0
 102.612304688 269.618164062 92.0556640625 241.5078125 82.90234375 201.862304688 c 2
 41.6923828125 23.3623046875 l 2
 35.9873046875 -1.34765625 20.0888671875 -34.267578125 -24.1416015625 -34.267578125 c 0
 -29.751953125 -34.267578125 -35.36328125 -34.26953125 -40.97265625 -34.26953125 c 1
 -52.7470703125 -85.26953125 l 1
 -20.6171875 -85.26953125 l 2
 35.255859375 -85.26953125 81.220703125 -61.677734375 100.6171875 22.33984375 c 2
 146.301757812 220.219726562 l 2
 159.8359375 278.841796875 186.056640625 301.583984375 233.200195312 305.017578125 c 1
 244.67578125 354.723632812 l 1
 196.599609375 358.341796875 183.958984375 383.331054688 197.40234375 441.561523438 c 2
 241.438476562 632.301757812 l 2
EndSplineSet
Substitution2: "'rtla' Right to Left Alternates lookup 0 subtable" braceleft
EndChar

StartChar: asciitilde
Encoding: 126 126 96
Width: 419
GlyphClass: 2
Flags: MW
HStem: 220.73 54.0586<235.113 265.091> 272.748 55.0811<107.383 136.513 107.383 136.578>
LayerCount: 2
Fore
SplineSet
42.1904296875 220.64453125 m 1x40
 67.8701171875 252.034179688 89.69140625 272.748046875 121.198242188 272.748046875 c 0x40
 151.958007812 272.748046875 172.079101562 244.446289062 207.151367188 227.764648438 c 0
 216.954101562 223.102539062 228.436523438 220.73046875 241.7890625 220.73046875 c 0
 288.393554688 220.73046875 326.9765625 248.255859375 365.909179688 301.958984375 c 1
 329.51171875 327.85546875 l 1
 301.995117188 293.409179688 281.865234375 274.7890625 250.188476562 274.7890625 c 0x80
 218.325195312 274.7890625 199.08984375 303.538085938 163.896484375 320.826171875 c 0
 154.47265625 325.455078125 143.190429688 327.829101562 129.8359375 327.829101562 c 0
 84.9306640625 327.829101562 44.80078125 299.5859375 5.7578125 246.56640625 c 1
 42.1904296875 220.64453125 l 1x40
EndSplineSet
EndChar

StartChar: exclamdown
Encoding: 161 161 98
Width: 199
GlyphClass: 2
Flags: MW
VStem: 62.0107 77.9688 78.8057 43.3906
LayerCount: 2
Fore
SplineSet
166.84765625 512.450195312 m 1x00
 102.587890625 512.450195312 l 1
 83.27734375 428.809570312 l 1
 147.537109375 428.809570312 l 1
 166.84765625 512.450195312 l 1x00
111.716796875 316.610351562 m 1x40
 68.326171875 316.610351562 l 1x40
 -57.2626953125 -154.629882812 l 1
 20.7060546875 -154.629882812 l 1x80
 111.716796875 316.610351562 l 1x40
EndSplineSet
EndChar

StartChar: cent
Encoding: 162 162 99
Width: 408
GlyphClass: 2
Flags: MW
HStem: 471.458 48.8252<201.084 221.696>
VStem: 50.5137 54.0596 296.333 54.0605
LayerCount: 2
Fore
SplineSet
249.588867188 159.528320312 m 1
 248.05859375 152.8984375 l 2
 234.530273438 94.302734375 205.442382812 55.68359375 160.14453125 43.541015625 c 2
 149.748046875 40.7548828125 l 1
 249.252929688 471.7578125 l 1
 258.212890625 469.379882812 l 2
 298.540039062 458.681640625 309.672851562 419.782226562 295.861328125 359.958007812 c 2
 294.331054688 353.330078125 l 1
 348.391601562 353.330078125 l 1
 349.922851562 359.959960938 l 2
 382.063476562 499.176757812 297.135742188 514.376953125 260.283203125 519.537109375 c 1
 281.018554688 609.349609375 l 1
 242.258789062 609.349609375 l 1
 221.696289062 520.283203125 l 1
 197.850585938 518.061523438 152.232421875 513.810546875 109.529296875 472.477539062 c 0
 81.3134765625 445.168945312 60.2548828125 404.194335938 47.4521484375 348.740234375 c 2
 4.8291015625 164.120117188 l 2
 -29.9443359375 13.5 52.8720703125 -2.068359375 99.8359375 -7.5498046875 c 1
 78.125 -101.58984375 l 1
 116.884765625 -101.58984375 l 1
 138.796875 -6.6767578125 l 1
 161.4921875 -3.6923828125 204.543945312 1.966796875 244.87109375 41.365234375 c 0
 271.544921875 67.423828125 290.984375 104.669921875 302.354492188 153.91796875 c 2
 303.649414062 159.528320312 l 1
 249.588867188 159.528320312 l 1
60.7724609375 172.27734375 m 2
 99.626953125 340.577148438 l 2
 106.18359375 368.9765625 126.834960938 455.522460938 201.083984375 471.458007812 c 2
 210.911132812 473.567382812 l 1
 110.6484375 39.2841796875 l 1
 92.1162109375 43.69921875 68.7080078125 49.2763671875 57.7109375 81.802734375 c 0
 50.4326171875 103.33203125 51.818359375 133.494140625 60.7724609375 172.27734375 c 2
EndSplineSet
EndChar

StartChar: sterling
Encoding: 163 163 100
Width: 381
GlyphClass: 2
Flags: MW
HStem: 648.11 51<271.797 315.073>
VStem: 88.2549 60.1787 284.005 56.0977
LayerCount: 2
Fore
SplineSet
41.62890625 160.040039062 m 2
 27.0986328125 97.1044921875 3.458984375 72.130859375 -26.9384765625 57.4423828125 c 1
 -40.10546875 0.4111328125 l 1
 264.875 0.4111328125 l 1
 268.877929688 17.7509765625 272.879882812 35.08984375 276.883789062 52.4296875 c 1
 25.0439453125 52.4296875 l 1
 44.015625 65.9111328125 l 2
 68.4443359375 83.2685546875 89.939453125 108.633789062 101.572265625 159.01953125 c 2
 136.305664062 309.469726562 l 1
 255.645507812 309.469726562 l 1
 267.419921875 360.469726562 l 1
 148.080078125 360.469726562 l 1
 194.82421875 562.940429688 l 2
 204.15625 603.359375 227.169921875 648.110351562 283.336914062 648.110351562 c 0
 346.80859375 648.110351562 334.06640625 581.412109375 328.865234375 556.309570312 c 1
 384.962890625 556.309570312 l 1
 398.318359375 620.875976562 393.732421875 699.110351562 293.071289062 699.110351562 c 0
 250.5234375 699.110351562 216.568359375 685.760742188 189.442382812 659.629882812 c 0
 162.017578125 633.2109375 142.23828125 595.828125 130.877929688 546.620117188 c 2
 87.9013671875 360.469726562 l 1
 25.6806640625 360.469726562 l 1
 13.90625 309.469726562 l 1
 76.126953125 309.469726562 l 1
 41.62890625 160.040039062 l 2
EndSplineSet
EndChar

StartChar: currency
Encoding: 164 164 101
Width: 586
GlyphClass: 2
Flags: MW
HStem: 129.95 55.0801<228.926 256.465> 466.55 55.0801<305.516 333.44>
VStem: 94.373 57.1191 427.912 57.1211
LayerCount: 2
Fore
SplineSet
476.791015625 326.299804688 m 0
 486.34375 367.676757812 483.50390625 404.82421875 468.27734375 438.258789062 c 2
 465.89453125 443.493164062 l 1
 550.143554688 511.940429688 l 1
 519.237304688 552.123046875 l 1
 434.987304688 483.67578125 l 1
 419.58203125 496.23828125 388.4453125 521.629882812 326.556640625 521.629882812 c 0
 284.475585938 521.629882812 244.353515625 510.19921875 205.64453125 487.267578125 c 2
 199.536132812 483.649414062 l 1
 147.907226562 552.083007812 l 1
 98.4482421875 511.900390625 l 1
 151.005859375 442.254882812 l 1
 134.034179688 424.857421875 101.087890625 391.0859375 86.130859375 326.299804688 c 0
 76.2421875 283.467773438 78.8046875 246.349609375 93.611328125 214.374023438 c 2
 96.056640625 209.090820312 l 1
 11.9599609375 141.586914062 l 1
 42.76171875 100.489257812 l 1
 126.663085938 167.8359375 l 1
 142.251953125 155.413085938 174.205078125 129.950195312 236.129882812 129.950195312 c 0
 276.799804688 129.950195312 316.985351562 141.360351562 357.173828125 164.388671875 c 2
 363.16796875 167.823242188 l 1
 415.708984375 99.5107421875 l 1
 465.48828125 140.606445312 l 1
 412.783203125 209.130859375 l 1
 429.28125 226.971679688 462.037109375 262.392578125 476.791015625 326.299804688 c 0
248.845703125 185.030273438 m 0
 209.006835938 185.030273438 178.578125 198.395507812 158.771484375 225.086914062 c 0
 138.981445312 251.754882812 133.916015625 285.870117188 143.25 326.299804688 c 0
 152.435546875 366.0859375 173.200195312 399.853515625 205.26953125 426.493164062 c 0
 237.401367188 453.184570312 274.000976562 466.549804688 313.83984375 466.549804688 c 0
 353.040039062 466.549804688 383.256835938 453.159179688 403.375976562 426.53125 c 0
 423.499023438 399.899414062 428.862304688 366.114257812 419.669921875 326.299804688 c 0
 410.478515625 286.485351562 389.485351562 252.553710938 357.022460938 225.595703125 c 0
 324.536132812 198.618164062 288.075195312 185.030273438 248.845703125 185.030273438 c 0
EndSplineSet
EndChar

StartChar: yen
Encoding: 165 165 102
Width: 387
GlyphClass: 2
Flags: MW
VStem: 86.5703 68.0713<688.91 688.91>
LayerCount: 2
Fore
SplineSet
111.810546875 150.349609375 m 1
 77.1943359375 0.41015625 l 1
 136.353515625 0.41015625 l 1
 170.969726562 150.349609375 l 1
 294.390625 150.349609375 l 1
 304.751953125 195.23046875 l 1
 181.331054688 195.23046875 l 1
 200.640625 278.870117188 l 1
 324.061523438 278.870117188 l 1
 334.658203125 324.76953125 l 1
 223.115234375 324.76953125 l 1
 444.883789062 688.91015625 l 1
 378.869140625 688.91015625 l 1
 189.26953125 350.959960938 l 1
 154.641601562 688.91015625 l 1
 86.5703125 688.91015625 l 1
 140.201171875 324.76953125 l 1
 28.658203125 324.76953125 l 1
 18.0615234375 278.870117188 l 1
 141.481445312 278.870117188 l 1
 122.171875 195.23046875 l 1
 -1.248046875 195.23046875 l 1
 -11.609375 150.349609375 l 1
 111.810546875 150.349609375 l 1
EndSplineSet
EndChar

StartChar: brokenbar
Encoding: 166 166 103
Width: 262
GlyphClass: 2
Flags: MW
VStem: 101.514 52.0195
LayerCount: 2
Fore
SplineSet
240.780273438 739.91015625 m 1
 188.760742188 739.91015625 l 1
 109.40234375 396.169921875 l 1
 161.421875 396.169921875 l 1
 240.780273438 739.91015625 l 1
130.337890625 261.530273438 m 1
 78.318359375 261.530273438 l 1
 -1.51171875 -84.25 l 1
 50.5078125 -84.25 l 1
 130.337890625 261.530273438 l 1
EndSplineSet
EndChar

StartChar: section
Encoding: 167 167 104
Width: 427
GlyphClass: 2
Flags: MW
HStem: -170.95 49.9805<68.5142 100.529> 663.41 51<270.785 296.443>
VStem: 60.7119 58.1396 74.0439 55.0889 78.0518 59.1611 288.173 59.1592 301.431 58.1416
LayerCount: 2
Fore
SplineSet
97.6201171875 -120.969726562 m 0xe4
 39.408203125 -120.969726562 26.6181640625 -88.322265625 40.7080078125 -21.009765625 c 1
 -14.380859375 -21.009765625 l 1
 -25.166015625 -71.9248046875 -22.99609375 -109.04296875 -9.345703125 -133.026367188 c 0
 4.7099609375 -157.724609375 35.2919921875 -170.950195312 85.0625 -170.950195312 c 0
 115.995117188 -170.950195312 224.879882812 -168.396484375 257.84765625 -25.599609375 c 0xd4
 265.825195312 8.955078125 266.840820312 37.2255859375 261.37109375 59.3359375 c 0
 256.033203125 80.91796875 241.94140625 97.0927734375 217.95703125 108.08984375 c 2
 200.927734375 115.8984375 l 1
 221.74609375 122.411132812 l 2
 280.426757812 140.76953125 319.67578125 189.189453125 339.084960938 273.259765625 c 0
 351.146484375 325.504882812 351.7421875 365.466796875 341.840820312 393.329101562 c 0
 332.103515625 420.732421875 308.29296875 440.279296875 268.477539062 451.547851562 c 0
 230.530273438 463.260742188 204.96484375 476.848632812 192.271484375 493.842773438 c 0
 179.3125 511.192382812 177.708984375 537.408203125 185.487304688 571.099609375 c 0
 203.245117188 648.017578125 243.485351562 663.41015625 282.788085938 663.41015625 c 0
 310.09765625 663.41015625 329.0703125 654.708007812 336.006835938 635.697265625 c 0
 342.051757812 619.133789062 341.38671875 595.741210938 335.068359375 565.490234375 c 1
 390.153320312 565.490234375 l 1
 400.296875 613.73828125 398.181640625 650.081054688 384.961914062 675.111328125 c 0
 371.390625 700.806640625 341.829101562 714.41015625 293.541992188 714.41015625 c 0
 248.02734375 714.41015625 212.192382812 701.6640625 184.559570312 677.173828125 c 0
 156.659179688 652.4453125 137.029296875 617.458984375 126.326171875 571.099609375 c 0xca
 104.348632812 475.904296875 139.700195312 452.546875 164.075195312 441.500976562 c 2
 180.899414062 433.875976562 l 1
 160.4140625 427.202148438 l 2
 99.921875 407.495117188 59.775390625 357.942382812 40.224609375 273.258789062 c 0
 28.650390625 223.126953125 28.5986328125 184.260742188 39.154296875 156.361328125 c 0
 49.56640625 128.83984375 73.7490234375 108.920898438 113.30078125 97.0244140625 c 0
 196.333984375 72.2568359375 215.137695312 45.6513671875 198.216796875 -27.640625 c 0
 178.654296875 -112.375 127.162109375 -120.969726562 97.6201171875 -120.969726562 c 0xe4
280.943359375 273.258789062 m 0xe2
 257.774414062 172.90234375 210.140625 147.2890625 161.590820312 147.2890625 c 0
 113.250976562 147.2890625 74.5087890625 169.930664062 98.3642578125 273.258789062 c 0
 122.3984375 377.365234375 171.030273438 401.268554688 220.2265625 401.268554688 c 0
 277.618164062 401.268554688 302.650390625 367.284179688 280.943359375 273.258789062 c 0xe2
161.919921875 696.55859375 m 1024
EndSplineSet
EndChar

StartChar: dieresis
Encoding: 168 168 105
Width: 501
GlyphClass: 2
Flags: MW
HStem: 590.99 72.4199<208.84 253.319 253.319 253.319 363.88 408.359 408.359 408.359>
LayerCount: 2
Fore
SplineSet
270.0390625 663.41015625 m 1
 208.83984375 663.41015625 l 1
 192.120117188 590.990234375 l 1
 253.319335938 590.990234375 l 1
 270.0390625 663.41015625 l 1
425.079101562 663.41015625 m 1
 363.879882812 663.41015625 l 1
 347.16015625 590.990234375 l 1
 408.359375 590.990234375 l 1
 425.079101562 663.41015625 l 1
EndSplineSet
EndChar

StartChar: copyright
Encoding: 169 169 106
Width: 750
GlyphClass: 2
Flags: MW
HStem: -9.79004 34.6787<253.042 339.147 250.179 388.38> 148.309 32.6406<297.236 350.008> 501.23 32.6387<384.769 424.15> 654.229 34.6826<406.283 481.589 406.283 484.435>
VStem: 52.5537 40.7988 262.673 38.7598 445.253 38.7598 652.312 39.7812
LayerCount: 2
Fore
SplineSet
286.48828125 -9.7900390625 m 0
 490.272460938 -9.7900390625 637.49609375 125.51171875 686.913085938 339.559570312 c 0
 707.7109375 429.64453125 718.471679688 571.306640625 610.46484375 646.127929688 c 0
 569.444335938 674.544921875 515.381835938 688.911132812 447.796875 688.911132812 c 0
 364.76953125 688.911132812 228.543945312 664.671875 128.90234375 525.936523438 c 0
 91.2041015625 473.447265625 63.9580078125 411.395507812 47.373046875 339.560546875 c 0
 26.2431640625 248.037109375 16.234375 107.278320312 124.313476562 33.0048828125 c 0
 165.694335938 4.5673828125 219.596679688 -9.7900390625 286.48828125 -9.7900390625 c 0
294.494140625 24.888671875 m 0
 205.86328125 24.888671875 142.762695312 52.431640625 107 108.090820312 c 0
 71.31640625 163.624023438 65.447265625 241.130859375 88.171875 339.55859375 c 0
 110.740234375 437.3125 152.184570312 514.624023438 213.206054688 570.478515625 c 0
 274.4296875 626.517578125 350.483398438 654.228515625 439.788085938 654.228515625 c 0
 529.08203125 654.228515625 592.53125 626.701171875 628.303710938 571.02734375 c 0
 663.986328125 515.493164062 669.85546875 437.987304688 647.131835938 339.55859375 c 0
 624.561523438 241.795898438 582.935546875 164.471679688 521.563476562 108.618164062 c 0
 460.010742188 52.599609375 383.80078125 24.888671875 294.494140625 24.888671875 c 0
414.041015625 533.869140625 m 0
 355.49609375 533.869140625 296.772460938 509.703125 273.26953125 407.899414062 c 2
 242.65625 275.298828125 l 2
 218.844726562 172.159179688 267.05078125 148.30859375 325.02734375 148.30859375 c 0
 374.98828125 148.30859375 439.42578125 168.87109375 462.112304688 267.138671875 c 2
 462.936523438 270.708984375 l 1
 424.176757812 270.708984375 l 1
 423.352539062 267.138671875 l 2
 413.883789062 226.125976562 390.529296875 180.94921875 333.583984375 180.94921875 c 0
 260.888671875 180.94921875 276.3671875 253.427734375 282.829101562 281.418945312 c 2
 310.616210938 401.779296875 l 2
 317.436523438 431.319335938 335.245117188 501.23046875 407.526367188 501.23046875 c 0
 440.7734375 501.23046875 473.715820312 485.287109375 457.498046875 415.040039062 c 2
 456.909179688 412.490234375 l 1
 495.668945312 412.490234375 l 1
 496.493164062 416.059570312 l 2
 504.403320312 450.323242188 518.56640625 533.869140625 414.041015625 533.869140625 c 0
EndSplineSet
EndChar

StartChar: ordfeminine
Encoding: 170 170 107
Width: 290
GlyphClass: 2
Flags: MW
HStem: 433.91 42.8389<99.2031 167.751> 578.749 31.6211<193.884 235.193 235.193 235.193> 706.25 41.8203<213.271 226.924>
VStem: 36.2334 51 45.4863 45.8789 185.153 51
LayerCount: 2
Fore
SplineSet
303.03125 651.678710938 m 2xf4
 310.50390625 684.048828125 314.354492188 748.0703125 227.875 748.0703125 c 0
 198.666992188 748.0703125 174.451171875 740.2109375 154.260742188 725.063476562 c 0
 135.399414062 710.913085938 122.33984375 691.150390625 115.307617188 664.4296875 c 1
 161.186523438 664.4296875 l 1xec
 163.615234375 673.362304688 175.395507812 706.25 217.200195312 706.25 c 0
 236.647460938 706.25 262.939453125 698.926757812 253.208984375 656.780273438 c 2
 242.494140625 610.370117188 l 1
 192.00390625 610.370117188 l 2
 159.8984375 610.370117188 134.102539062 602.534179688 113.784179688 587.774414062 c 0
 93.5654296875 573.088867188 80.275390625 552.768554688 73.9111328125 525.200195312 c 0
 64.8671875 486.025390625 65.5009765625 433.91015625 132.905273438 433.91015625 c 0
 154.91796875 433.91015625 172.766601562 439.053710938 198.161132812 464.559570312 c 2
 216.037109375 482.513671875 l 1
 205.993164062 439.008789062 l 1
 253.932617188 439.008789062 l 1
 303.03125 651.678710938 l 2xf4
125.381835938 527.239257812 m 0xf4
 131.046875 551.778320312 146.287109375 578.749023438 193.883789062 578.749023438 c 2
 235.193359375 578.749023438 l 1
 224.479492188 532.338867188 l 2
 220.72265625 516.067382812 213.20703125 502.224609375 201.409179688 491.971679688 c 0
 189.587890625 481.700195312 175.366210938 476.749023438 160.135742188 476.749023438 c 0
 141.108398438 476.749023438 115.450195312 484.221679688 125.381835938 527.239257812 c 0xf4
245.813476562 856.69921875 m 1024
EndSplineSet
EndChar

StartChar: guillemotleft
Encoding: 171 171 108
Width: 421
GlyphClass: 2
Flags: W
LayerCount: 2
Fore
SplineSet
202.87890625 429.940429688 m 1
 -0.1142578125 262.040039062 l 1
 125.352539062 94.138671875 l 1
 138.202148438 149.796875 l 1
 55.0205078125 262.040039062 l 1
 190.029296875 374.283203125 l 1
 202.87890625 429.940429688 l 1
370.141601562 429.865234375 m 1
 168.15625 262.040039062 l 1
 292.650390625 94.21484375 l 1
 305.487304688 149.818359375 l 1
 223.370117188 262.040039062 l 1
 357.3046875 374.26171875 l 1
 370.141601562 429.865234375 l 1
EndSplineSet
EndChar

StartChar: logicalnot
Encoding: 172 172 109
Width: 419
GlyphClass: 2
Flags: MW
HStem: 158.51 158.101<269.754 323.814 323.814 323.814>
VStem: 42.3535 328.44
LayerCount: 2
Fore
SplineSet
295.421875 269.690429688 m 1
 269.75390625 158.509765625 l 1
 323.814453125 158.509765625 l 1
 360.314453125 316.610351562 l 1
 31.8740234375 316.610351562 l 1
 21.0419921875 269.690429688 l 1
 295.421875 269.690429688 l 1
EndSplineSet
EndChar

StartChar: uni00AD
Encoding: 173 173 110
Width: 373
GlyphClass: 2
Flags: MW
HStem: 321.71 51<52.9863 306.412 306.412 306.412>
VStem: 50.5137 265.2
LayerCount: 2
Fore
SplineSet
318.186523438 372.709960938 m 1
 52.986328125 372.709960938 l 1
 41.2119140625 321.709960938 l 1
 306.412109375 321.709960938 l 1
 318.186523438 372.709960938 l 1
EndSplineSet
EndChar

StartChar: registered
Encoding: 174 174 111
Width: 472
GlyphClass: 2
Flags: MW
HStem: 313.55 17.3389<201.805 248.093> 491.029 18.3594<237.54 268.649 237.54 270.828 237.54 270.828> 585.889 17.3398<255.201 286.311 286.311 293.375 237.785 299.332> 670.549 17.3408<281.47 334.881 281.47 349.903>
VStem: 60.7139 20.3975 271.853 21.4199 384.053 20.4004
LayerCount: 2
Fore
SplineSet
221.397460938 313.549804688 m 0
 274.7890625 313.549804688 320.018554688 330.478515625 358.489257812 364.096679688 c 0
 397.01953125 397.766601562 423.216796875 443.2734375 436.71484375 501.740234375 c 0
 450.055664062 559.524414062 444.922851562 604.522460938 422.198242188 637.856445312 c 0
 399.541015625 671.090820312 361.94140625 687.889648438 307.8203125 687.889648438 c 0
 255.119140625 687.889648438 210.05859375 671.131835938 171.29296875 637.796875 c 0
 132.51953125 604.455078125 106.307617188 559.490234375 92.9755859375 501.740234375 c 0
 79.4775390625 443.2734375 84.6630859375 397.767578125 107.646484375 364.096679688 c 0
 130.59375 330.478515625 168.006835938 313.549804688 221.397460938 313.549804688 c 0
303.81640625 670.548828125 m 0
 395.989257812 670.548828125 441.157226562 609.34765625 416.314453125 501.739257812 c 0
 404.407226562 450.165039062 381.825195312 408.387695312 348.022460938 377.413085938 c 0
 314.034179688 346.26953125 272.637695312 330.888671875 225.399414062 330.888671875 c 0
 178.2109375 330.888671875 143.858398438 345.880859375 124.067382812 376.326171875 c 0
 104.323242188 406.696289062 101.1640625 448.857421875 113.373046875 501.739257812 c 0
 125.126953125 552.653320312 147.61328125 593.940429688 181.349609375 624.568359375 c 0
 215.267578125 655.362304688 256.603515625 670.548828125 303.81640625 670.548828125 c 0
336.130859375 547.638671875 m 0
 344.291015625 582.985351562 333.73828125 603.228515625 293.375 603.228515625 c 2
 237.78515625 603.228515625 l 1
 191.39453125 402.2890625 l 1
 212.814453125 402.2890625 l 1
 233.301757812 491.029296875 l 1
 270.828125 491.029296875 l 1
 281.9609375 402.2890625 l 1
 305.372070312 402.2890625 l 1
 292.610351562 495.061523438 l 1
 308.706054688 502.938476562 327.989257812 512.375976562 336.130859375 547.638671875 c 0
314.946289062 548.659179688 m 0
 309.159179688 523.59375 296.795898438 509.388671875 268.649414062 509.388671875 c 2
 237.540039062 509.388671875 l 1
 255.201171875 585.888671875 l 1
 286.310546875 585.888671875 l 2
 312.352539062 585.888671875 320.95703125 574.693359375 314.946289062 548.659179688 c 0
EndSplineSet
EndChar

StartChar: macron
Encoding: 175 175 112
Width: 501
GlyphClass: 2
Flags: MW
HStem: 603.23 46.9199<203.738 413.226 413.226 413.226>
VStem: 137.214 220.319
LayerCount: 2
Fore
SplineSet
424.057617188 650.150390625 m 1
 203.73828125 650.150390625 l 1
 192.90625 603.23046875 l 1
 413.225585938 603.23046875 l 1
 424.057617188 650.150390625 l 1
EndSplineSet
EndChar

StartChar: degree
Encoding: 176 176 113
Width: 349
GlyphClass: 2
Flags: MW
HStem: 462.47 35.7002<179.675 211.718> 663.41 35.6992<232.087 264.406>
VStem: 52.5537 38.7598 251.453 38.7607
LayerCount: 2
Fore
SplineSet
194.579101562 462.469726562 m 0
 228.856445312 462.469726562 259.357421875 473.596679688 287.212890625 495.966796875 c 0
 315.03515625 518.311523438 332.700195312 546.029296875 340.607421875 580.279296875 c 0
 348.514648438 614.52734375 343.689453125 642.442382812 326.23046875 665.140625 c 0
 308.771484375 687.83984375 283.459960938 699.109375 249.211914062 699.109375 c 0
 214.962890625 699.109375 184.446289062 687.83984375 156.506835938 665.140625 c 0
 128.568359375 642.442382812 110.854492188 614.52734375 102.947265625 580.279296875 c 0
 95.0400390625 546.029296875 99.9052734375 518.311523438 117.412109375 495.966796875 c 0
 134.936523438 473.596679688 160.30078125 462.469726562 194.579101562 462.469726562 c 0
301.846679688 580.280273438 m 0
 290.68359375 531.924804688 249.110351562 498.169921875 202.821289062 498.169921875 c 0
 156.528320312 498.169921875 130.544921875 531.928710938 141.70703125 580.280273438 c 0
 152.739257812 628.065429688 194.098632812 663.41015625 240.969726562 663.41015625 c 0
 287.841796875 663.41015625 312.87890625 628.063476562 301.846679688 580.280273438 c 0
EndSplineSet
EndChar

StartChar: plusminus
Encoding: 177 177 114
Width: 419
GlyphClass: 2
Flags: MW
VStem: 40.3135 332.52
LayerCount: 2
Fore
SplineSet
355.99609375 289.0703125 m 1
 368.005859375 341.08984375 l 1
 227.24609375 341.08984375 l 1
 259.5078125 480.830078125 l 1
 208.5078125 480.830078125 l 1
 176.24609375 341.08984375 l 1
 35.486328125 341.08984375 l 1
 23.4765625 289.0703125 l 1
 164.236328125 289.0703125 l 1
 131.974609375 149.330078125 l 1
 182.974609375 149.330078125 l 1
 215.236328125 289.0703125 l 1
 355.99609375 289.0703125 l 1
307.014648438 76.91015625 m 1
 -25.5048828125 76.91015625 l 1
 -37.5146484375 24.8896484375 l 1
 295.004882812 24.8896484375 l 1
 307.014648438 76.91015625 l 1
EndSplineSet
EndChar

StartChar: uni00B2
Encoding: 178 178 115
Width: 267
GlyphClass: 2
Flags: MW
HStem: 810.29 46.9199<230.692 238.641>
VStem: 34.1934 53.04 171.894 55.0801
LayerCount: 2
Fore
SplineSet
233.059570312 810.290039062 m 0
 244.22265625 810.290039062 274.451171875 806.224609375 263.96875 760.8203125 c 2
 259.258789062 740.419921875 l 2
 253.756835938 716.590820312 244.487304688 699.139648438 219.393554688 670.04296875 c 2
 61.7744140625 490.3046875 l 1
 49.9326171875 439.009765625 l 1
 244.752929688 439.009765625 l 1
 255.8203125 486.950195312 l 1
 120.956054688 486.950195312 l 1
 260.229492188 646.622070312 l 2
 297.49609375 688.745117188 307.819335938 712.1796875 313.868164062 738.379882812 c 2
 319.51953125 762.860351562 l 2
 326.21484375 791.862304688 322.6953125 814.291015625 309.53515625 831.401367188 c 0
 296.40234375 848.475585938 275.659179688 857.209960938 245.931640625 857.209960938 c 0
 215.452148438 857.209960938 190.13671875 848.581054688 168.876953125 831.813476562 c 0
 147.62109375 815.048828125 133.663085938 792.850585938 126.974609375 763.879882812 c 2
 121.67578125 740.9296875 l 1
 174.715820312 740.9296875 l 1
 178.130859375 755.719726562 l 2
 183.416015625 778.614257812 197.208007812 810.290039062 233.059570312 810.290039062 c 0
EndSplineSet
EndChar

StartChar: uni00B3
Encoding: 179 179 116
Width: 264
GlyphClass: 2
Flags: MW
HStem: 432.89 46.9209<147.26 158.076> 627.711 46.9199<172.039 193.582 182.872 193.582 182.872 204.003> 810.291 46.9199<210.85 237.718>
VStem: 30.1152 52.0205 169.855 55.0791
LayerCount: 2
Fore
SplineSet
68.0283203125 526.220703125 m 2
 60.896484375 495.330078125 57.091796875 432.889648438 142.87109375 432.889648438 c 0
 173.28125 432.889648438 198.809570312 441.799804688 220.607421875 459.255859375 c 0
 242.317382812 476.641601562 256.84375 500.21484375 264.025390625 531.3203125 c 2
 272.266601562 567.01953125 l 2
 284.87890625 621.649414062 269.852539062 637.749023438 248.646484375 647.692382812 c 2
 234.524414062 654.313476562 l 1
 251.549804688 661.646484375 l 2
 276.541992188 672.41015625 298.880859375 691.1328125 309.318359375 736.340820312 c 2
 314.969726562 760.821289062 l 2
 329.123046875 822.125976562 302.151367188 857.2109375 240.833007812 857.2109375 c 0
 180.866210938 857.2109375 136.37890625 822.278320312 123.1328125 764.901367188 c 2
 118.775390625 746.03125 l 1
 171.815429688 746.03125 l 1
 175.465820312 761.840820312 l 2
 178.86328125 776.55859375 190.814453125 810.291015625 228.981445312 810.291015625 c 0
 246.454101562 810.291015625 269.499023438 802.439453125 259.18359375 757.760742188 c 2
 252.119140625 727.161132812 l 2
 247.100585938 705.419921875 233.028320312 674.630859375 193.58203125 674.630859375 c 2
 182.872070312 674.630859375 l 1
 172.0390625 627.7109375 l 1
 182.749023438 627.7109375 l 2
 225.256835938 627.7109375 223.88671875 596.034179688 218.129882812 571.100585938 c 2
 209.65234375 534.380859375 l 2
 204.3828125 511.5546875 190.29296875 479.810546875 152.68359375 479.810546875 c 0
 141.8359375 479.810546875 110.196289062 483.541992188 120.520507812 528.260742188 c 2
 124.169921875 544.071289062 l 1
 72.1494140625 544.071289062 l 1
 68.0283203125 526.220703125 l 2
EndSplineSet
EndChar

StartChar: acute
Encoding: 180 180 117
Width: 501
GlyphClass: 2
Flags: MW
HStem: 587.93 116.28<238.301 402.212 277.114 402.212>
LayerCount: 2
Fore
SplineSet
402.211914062 704.209960938 m 1
 347.173828125 704.209960938 l 1
 238.30078125 587.9296875 l 1
 277.114257812 587.9296875 l 1
 402.211914062 704.209960938 l 1
EndSplineSet
EndChar

StartChar: uni00B5
Encoding: 181 181 118
Width: 412
GlyphClass: 2
Flags: MW
HStem: -7.75 45.9004<90.9092 150.022>
VStem: 59.6934 53.04
LayerCount: 2
Fore
SplineSet
127.216796875 38.150390625 m 0
 107.584960938 38.150390625 39.509765625 44.833984375 61.3974609375 139.639648438 c 2
 147.467773438 512.450195312 l 1
 94.427734375 512.450195312 l 1
 -60.05078125 -156.669921875 l 1
 -5.990234375 -156.669921875 l 1
 37.130859375 30.1103515625 l 1
 47.1337890625 16.4208984375 l 2
 58.83203125 0.412109375 77.4384765625 -7.75 104.379882812 -7.75 c 0
 122.754882812 -7.75 169.127929688 -3.2783203125 206.62890625 44.4072265625 c 2
 226.931640625 70.22265625 l 1
 210.814453125 0.41015625 l 1
 261.814453125 0.41015625 l 1
 380.028320312 512.450195312 l 1
 325.967773438 512.450195312 l 1
 239.897460938 139.639648438 l 2
 223.780273438 69.8271484375 172.828125 38.150390625 127.216796875 38.150390625 c 0
EndSplineSet
EndChar

StartChar: paragraph
Encoding: 182 182 119
Width: 521
GlyphClass: 2
Flags: MW
VStem: 60.7139 221.34
LayerCount: 2
Fore
SplineSet
330.497070312 688.91015625 m 2
 205.912109375 688.91015625 114.07421875 593.127929688 88.5009765625 482.360351562 c 0
 75.3173828125 425.25390625 79.3798828125 377.759765625 100.25390625 339.125976562 c 0
 121.065429688 300.609375 154.9453125 279.336914062 202.9609375 274.756835938 c 2
 209.7421875 274.109375 l 1
 110.759765625 -154.629882812 l 1
 162.780273438 -154.629882812 l 1
 345.752929688 637.91015625 l 1
 434.493164062 637.91015625 l 1
 251.520507812 -154.629882812 l 1
 303.540039062 -154.629882812 l 1
 498.287109375 688.91015625 l 1
 330.497070312 688.91015625 l 2
EndSplineSet
EndChar

StartChar: periodcentered
Encoding: 183 183 120
Width: 155
GlyphClass: 2
Flags: MW
HStem: 230.93 75.4805<28.499 75.334 75.334 75.334>
VStem: 41.333 64.2607
LayerCount: 2
Fore
SplineSet
92.759765625 306.41015625 m 1
 28.4990234375 306.41015625 l 1
 11.0732421875 230.9296875 l 1
 75.333984375 230.9296875 l 1
 92.759765625 306.41015625 l 1
EndSplineSet
EndChar

StartChar: cedilla
Encoding: 184 184 121
Width: 501
GlyphClass: 2
Flags: MW
HStem: -154.63 151.979<71.7891 221.216 132.38 221.216>
LayerCount: 2
Fore
SplineSet
221.215820312 -2.650390625 m 1
 170.819335938 -2.650390625 l 1
 71.7890625 -154.629882812 l 1
 132.379882812 -154.629882812 l 1
 221.215820312 -2.650390625 l 1
EndSplineSet
EndChar

StartChar: uni00B9
Encoding: 185 185 122
Width: 194
GlyphClass: 2
Flags: MW
VStem: 20.9336 120.36
LayerCount: 2
Fore
SplineSet
183.944335938 794.155273438 m 1
 101.953125 439.009765625 l 1
 159.073242188 439.009765625 l 1
 253.973632812 850.0703125 l 1
 191.859375 850.0703125 l 1
 122.986328125 804.037109375 l 1
 108.930664062 743.155273438 l 1
 183.944335938 794.155273438 l 1
EndSplineSet
EndChar

StartChar: ordmasculine
Encoding: 186 186 123
Width: 291
GlyphClass: 2
Flags: MW
HStem: 433.91 44.8799<158.337 186.641 158.337 200.658> 704.21 43.8604<200.922 238.684>
VStem: 41.333 51 192.294 51
LayerCount: 2
Fore
SplineSet
231.955078125 748.0703125 m 0
 144.618164062 748.0703125 116.856445312 689.126953125 104.208007812 634.33984375 c 2
 84.4267578125 548.66015625 l 2
 62.91015625 455.461914062 106.576171875 433.91015625 159.424804688 433.91015625 c 0
 241.890625 433.91015625 272.274414062 487.529296875 286.387695312 548.66015625 c 2
 306.168945312 634.33984375 l 2
 320.145507812 694.87890625 314.99609375 748.0703125 231.955078125 748.0703125 c 0
155.443359375 635.360351562 m 2
 162.65234375 666.586914062 180.015625 704.209960938 221.829101562 704.209960938 c 0
 255.538085938 704.209960938 265.13671875 677.518554688 255.404296875 635.360351562 c 2
 235.15234375 547.639648438 l 2
 225.418945312 505.481445312 203.495117188 478.790039062 169.786132812 478.790039062 c 0
 146.887695312 478.790039062 122.02734375 490.620117188 135.19140625 547.639648438 c 2
 155.443359375 635.360351562 l 2
249.89453125 856.700195312 m 1024
EndSplineSet
EndChar

StartChar: guillemotright
Encoding: 187 187 124
Width: 421
GlyphClass: 2
Flags: W
LayerCount: 2
Fore
SplineSet
62.529296875 374.283203125 m 1
 145.711914062 262.040039062 l 1
 10.7021484375 149.796875 l 1
 -2.1474609375 94.138671875 l 1
 200.84765625 262.040039062 l 1
 75.37890625 429.940429688 l 1
 62.529296875 374.283203125 l 1
230.829101562 374.283203125 m 1
 314.012695312 262.040039062 l 1
 179.001953125 149.796875 l 1
 166.169921875 94.21484375 l 1
 368.15625 262.040039062 l 1
 243.661132812 429.865234375 l 1
 230.829101562 374.283203125 l 1
EndSplineSet
EndChar

StartChar: onequarter
Encoding: 188 188 125
Width: 638
GlyphClass: 3
Flags: MW
VStem: 473.756 55.3037
LayerCount: 2
Fore
SplineSet
146.73828125 632.995117188 m 1
 64.74609375 277.849609375 l 1
 121.866210938 277.849609375 l 1
 216.767578125 688.91015625 l 1
 154.653320312 688.91015625 l 1
 85.779296875 642.876953125 l 1
 71.7236328125 581.995117188 l 1
 146.73828125 632.995117188 l 1
104.962890625 0.41015625 m 1
 511.376953125 688.91015625 l 1
 463.377929688 688.91015625 l 1
 56.9638671875 0.41015625 l 1
 104.962890625 0.41015625 l 1
491.314453125 0.41015625 m 1
 508.740234375 75.8896484375 l 1
 540.359375 75.8896484375 l 1
 551.426757812 123.830078125 l 1
 519.807617188 123.830078125 l 1
 542.415039062 221.75 l 1
 486.314453125 221.75 l 1
 463.70703125 123.830078125 l 1
 380.233398438 123.830078125 l 1
 540.48046875 411.469726562 l 1
 485.176757812 411.469726562 l 1
 328.51171875 130.258789062 l 1
 315.959960938 75.8896484375 l 1
 452.639648438 75.8896484375 l 1
 435.213867188 0.41015625 l 1
 491.314453125 0.41015625 l 1
EndSplineSet
Ligature2: "'frac' Diagonal Fractions lookup 2 subtable" one slash four
EndChar

StartChar: onehalf
Encoding: 189 189 126
Width: 647
GlyphClass: 3
Flags: MW
HStem: 371.69 46.9199<509.893 517.842>
VStem: 414.653 53.04 552.354 55.0801
LayerCount: 2
Fore
SplineSet
146.73828125 632.995117188 m 1
 64.74609375 277.849609375 l 1
 121.866210938 277.849609375 l 1
 216.767578125 688.91015625 l 1
 154.653320312 688.91015625 l 1
 85.779296875 642.876953125 l 1
 71.7236328125 581.995117188 l 1
 146.73828125 632.995117188 l 1
511.376953125 688.91015625 m 1
 463.377929688 688.91015625 l 1
 56.9638671875 0.41015625 l 1
 104.962890625 0.41015625 l 1
 511.376953125 688.91015625 l 1
512.260742188 371.690429688 m 0
 523.423828125 371.690429688 553.65234375 367.624023438 543.169921875 322.219726562 c 2
 538.459960938 301.8203125 l 2
 532.958984375 277.991210938 523.688476562 260.5390625 498.594726562 231.443359375 c 2
 340.975585938 51.7041015625 l 1
 329.133789062 0.41015625 l 1
 523.954101562 0.41015625 l 1
 535.021484375 48.349609375 l 1
 400.157226562 48.349609375 l 1
 539.430664062 208.022460938 l 2
 576.686523438 250.14453125 587.013671875 273.553710938 593.069335938 299.780273438 c 2
 598.720703125 324.259765625 l 2
 605.416015625 353.26171875 601.896484375 375.69140625 588.736328125 392.801757812 c 0
 575.603515625 409.875976562 554.860351562 418.610351562 525.1328125 418.610351562 c 0
 494.653320312 418.610351562 469.337890625 409.981445312 448.078125 393.213867188 c 0
 426.822265625 376.44921875 412.864257812 354.250976562 406.17578125 325.280273438 c 2
 400.876953125 302.330078125 l 1
 453.916992188 302.330078125 l 1
 457.33203125 317.120117188 l 2
 462.6171875 340.014648438 476.409179688 371.690429688 512.260742188 371.690429688 c 0
EndSplineSet
Ligature2: "'frac' Diagonal Fractions lookup 2 subtable" one slash two
EndChar

StartChar: threequarters
Encoding: 190 190 127
Width: 666
GlyphClass: 3
Flags: MW
HStem: 271.729 46.9219<110.053 120.87> 466.551 46.9199<134.832 156.374 145.664 156.374 145.664 166.763> 649.131 46.9199<173.643 200.51>
VStem: 30.1143 52.0205 169.854 55.0791 501.298 55.3037
LayerCount: 2
Fore
SplineSet
30.8203125 365.059570312 m 2
 23.6923828125 334.182617188 19.876953125 271.728515625 105.665039062 271.728515625 c 0
 136.075195312 271.728515625 161.602539062 280.639648438 183.400390625 298.096679688 c 0
 205.110351562 315.482421875 219.63671875 339.0546875 226.817382812 370.16015625 c 2
 235.059570312 405.860351562 l 2
 247.671875 460.489257812 232.64453125 476.58984375 211.439453125 486.532226562 c 2
 197.31640625 493.153320312 l 1
 214.341796875 500.486328125 l 2
 239.333007812 511.25 261.672851562 529.97265625 272.110351562 575.180664062 c 2
 277.76171875 599.661132812 l 2
 291.915039062 660.965820312 264.944335938 696.05078125 203.625976562 696.05078125 c 0
 143.659179688 696.05078125 99.1708984375 661.118164062 85.9248046875 603.741210938 c 2
 81.568359375 584.87109375 l 1
 134.608398438 584.87109375 l 1
 138.2578125 600.680664062 l 2
 141.65625 615.3984375 153.606445312 649.130859375 191.7734375 649.130859375 c 0
 209.24609375 649.130859375 232.291015625 641.279296875 221.9765625 596.600585938 c 2
 214.912109375 566.000976562 l 2
 209.892578125 544.260742188 195.8203125 513.470703125 156.374023438 513.470703125 c 2
 145.6640625 513.470703125 l 1
 134.83203125 466.55078125 l 1
 145.541992188 466.55078125 l 2
 187.984375 466.55078125 186.702148438 434.974609375 180.922851562 409.940429688 c 2
 172.444335938 373.219726562 l 2
 167.174804688 350.393554688 153.0859375 318.650390625 115.4765625 318.650390625 c 0
 104.62890625 318.650390625 72.98828125 322.380859375 83.3125 367.099609375 c 2
 86.9619140625 382.91015625 l 1
 34.94140625 382.91015625 l 1
 30.8203125 365.059570312 l 2
156.985351562 0.4091796875 m 1
 563.397460938 688.909179688 l 1
 515.399414062 688.909179688 l 1
 108.986328125 0.4091796875 l 1
 156.985351562 0.4091796875 l 1
518.856445312 0.4091796875 m 1
 536.282226562 75.888671875 l 1
 567.901367188 75.888671875 l 1
 578.96875 123.829101562 l 1
 547.349609375 123.829101562 l 1
 569.956054688 221.749023438 l 1
 513.85546875 221.749023438 l 1
 491.249023438 123.829101562 l 1
 407.775390625 123.829101562 l 1
 568.022460938 411.46875 l 1
 512.71875 411.46875 l 1
 356.053710938 130.2578125 l 1
 343.501953125 75.888671875 l 1
 480.181640625 75.888671875 l 1
 462.755859375 0.4091796875 l 1
 518.856445312 0.4091796875 l 1
EndSplineSet
Ligature2: "'frac' Diagonal Fractions lookup 2 subtable" three slash four
EndChar

StartChar: questiondown
Encoding: 191 191 128
Width: 361
GlyphClass: 2
Flags: MW
HStem: -166.87 51.001<48.4775 84.6919 48.4775 91.3154>
VStem: 37.2539 59.1582 147.413 64.2607 264.657 59.0703
LayerCount: 2
Fore
SplineSet
246.408203125 512.450195312 m 1
 182.147460938 512.450195312 l 1
 162.836914062 428.809570312 l 1
 227.09765625 428.809570312 l 1
 246.408203125 512.450195312 l 1
-48.2275390625 -8.259765625 m 0
 -57.0478515625 -46.46484375 -77.78125 -166.870117188 58.4638671875 -166.870117188 c 0
 124.166992188 -166.870117188 203.98046875 -139.172851562 242.3671875 9.58984375 c 1
 183.296875 9.58984375 l 1
 173.251953125 -31.3291015625 160.6796875 -61.916015625 144.286132812 -82.4140625 c 0
 126.185546875 -105.04296875 100.166015625 -115.869140625 69.2177734375 -115.869140625 c 0
 27.7373046875 -115.869140625 -8.9599609375 -94.4169921875 10.9306640625 -8.2587890625 c 0
 20.5869140625 33.56640625 34.7109375 61.1484375 73.322265625 106.909179688 c 2
 129.637695312 174.197265625 l 2
 170.879882812 222.931640625 182.44140625 244.221679688 193.384765625 291.620117188 c 2
 200.801757812 323.75 l 1
 141.641601562 323.75 l 1
 135.166015625 295.700195312 l 2
 125.567382812 254.123046875 115.2421875 234.7421875 83.5546875 195.959960938 c 0
 13.5380859375 111.33203125 -4.61328125 89.3935546875 -22.5146484375 58.5751953125 c 0
 -33.814453125 39.12109375 -42.4267578125 16.865234375 -48.2275390625 -8.259765625 c 0
EndSplineSet
EndChar

StartChar: Agrave
Encoding: 192 192 129
Width: 461
GlyphClass: 2
Flags: MW
VStem: 285.104 45.668 293.424 65.9854
LayerCount: 2
Fore
SplineSet
75.4345703125 179.9296875 m 1x80
 293.423828125 179.9296875 l 1
 296.858398438 0.41015625 l 1
 359.409179688 0.41015625 l 1x40
 330.771484375 688.91015625 l 1
 274.123046875 688.91015625 l 1
 -72.4208984375 0.41015625 l 1
 -10.890625 0.41015625 l 1
 75.4345703125 179.9296875 l 1x80
99.240234375 228.889648438 m 1
 285.103515625 615.995117188 l 1x80
 292.225585938 228.889648438 l 1
 99.240234375 228.889648438 l 1
250.485351562 880.669921875 m 1
 321.892578125 764.389648438 l 1
 360.705078125 764.389648438 l 1
 305.5234375 880.669921875 l 1
 250.485351562 880.669921875 l 1
EndSplineSet
EndChar

StartChar: Aacute
Encoding: 193 193 130
Width: 461
GlyphClass: 2
Flags: MW
VStem: 285.104 45.668 293.424 65.9854
LayerCount: 2
Fore
SplineSet
75.4345703125 179.9296875 m 1x80
 293.423828125 179.9296875 l 1
 296.858398438 0.41015625 l 1
 359.409179688 0.41015625 l 1x40
 330.771484375 688.91015625 l 1
 274.123046875 688.91015625 l 1
 -72.4208984375 0.41015625 l 1
 -10.890625 0.41015625 l 1
 75.4345703125 179.9296875 l 1x80
99.240234375 228.889648438 m 1
 285.103515625 615.995117188 l 1x80
 292.225585938 228.889648438 l 1
 99.240234375 228.889648438 l 1
433.770507812 880.669921875 m 1
 378.732421875 880.669921875 l 1
 269.860351562 764.389648438 l 1
 308.672851562 764.389648438 l 1
 433.770507812 880.669921875 l 1
EndSplineSet
EndChar

StartChar: Acircumflex
Encoding: 194 194 131
Width: 461
GlyphClass: 2
Flags: MW
VStem: 285.104 45.668 293.424 65.9854
LayerCount: 2
Fore
SplineSet
75.4345703125 179.9296875 m 1x80
 293.423828125 179.9296875 l 1
 296.858398438 0.41015625 l 1
 359.409179688 0.41015625 l 1x40
 330.771484375 688.91015625 l 1
 274.123046875 688.91015625 l 1
 -72.4208984375 0.41015625 l 1
 -10.890625 0.41015625 l 1
 75.4345703125 179.9296875 l 1x80
99.240234375 228.889648438 m 1
 285.103515625 615.995117188 l 1x80
 292.225585938 228.889648438 l 1
 99.240234375 228.889648438 l 1
376.276367188 886.790039062 m 1
 319.03515625 886.790039062 l 1
 200.331054688 756.23046875 l 1
 250.29296875 756.23046875 l 1
 342.05859375 853.6484375 l 1
 387.76171875 756.23046875 l 1
 437.435546875 756.23046875 l 1
 376.276367188 886.790039062 l 1
EndSplineSet
EndChar

StartChar: Atilde
Encoding: 195 195 132
Width: 461
GlyphClass: 2
Flags: MW
HStem: 760.31 53.04<359.017 395.67> 796.01 54.0605<283.77 284.412>
LayerCount: 2
Fore
SplineSet
75.4345703125 179.9296875 m 1x00
 293.423828125 179.9296875 l 1
 296.858398438 0.41015625 l 1
 359.409179688 0.41015625 l 1
 330.771484375 688.91015625 l 1
 274.123046875 688.91015625 l 1
 -72.4208984375 0.41015625 l 1
 -10.890625 0.41015625 l 1
 75.4345703125 179.9296875 l 1x00
99.240234375 228.889648438 m 1
 285.103515625 615.995117188 l 1
 292.225585938 228.889648438 l 1
 99.240234375 228.889648438 l 1
439.05859375 838.821289062 m 1
 420.3203125 822.973632812 406.61328125 813.349609375 384.727539062 813.349609375 c 0x80
 369.236328125 813.349609375 357.663085938 816.685546875 336.157226562 832.919921875 c 0
 315.80078125 848.288085938 306.974609375 850.0703125 293.245117188 850.0703125 c 0
 274.293945312 850.0703125 260.608398438 844.932617188 230.705078125 819.971679688 c 1
 219.155273438 769.944335938 l 1
 235.909179688 784.100585938 253.23828125 796.009765625 277.703125 796.009765625 c 0x40
 291.12109375 796.009765625 296.610351562 792.956054688 318.291015625 778.6875 c 0
 344.065429688 762.025390625 351.671875 760.309570312 366.362304688 760.309570312 c 0x80
 387.174804688 760.309570312 401.52734375 766.135742188 427.823242188 790.157226562 c 1
 439.05859375 838.821289062 l 1
EndSplineSet
EndChar

StartChar: Adieresis
Encoding: 196 196 133
Width: 461
GlyphClass: 2
Flags: MW
VStem: 285.104 45.668 293.424 65.9854
LayerCount: 2
Fore
SplineSet
75.4345703125 179.9296875 m 1x80
 293.423828125 179.9296875 l 1
 296.858398438 0.41015625 l 1
 359.409179688 0.41015625 l 1x40
 330.771484375 688.91015625 l 1
 274.123046875 688.91015625 l 1
 -72.4208984375 0.41015625 l 1
 -10.890625 0.41015625 l 1
 75.4345703125 179.9296875 l 1x80
99.240234375 228.889648438 m 1
 285.103515625 615.995117188 l 1x80
 292.225585938 228.889648438 l 1
 99.240234375 228.889648438 l 1
290.37890625 839.870117188 m 1
 229.178710938 839.870117188 l 1
 212.458984375 767.450195312 l 1
 273.659179688 767.450195312 l 1
 290.37890625 839.870117188 l 1
445.418945312 839.870117188 m 1
 384.21875 839.870117188 l 1
 367.499023438 767.450195312 l 1
 428.69921875 767.450195312 l 1
 445.418945312 839.870117188 l 1
EndSplineSet
EndChar

StartChar: Aring
Encoding: 197 197 134
Width: 461
GlyphClass: 2
Flags: MW
HStem: 840.892 23.459<330.417 354.707>
VStem: 144.354 25.5 284.094 26.5195
LayerCount: 2
Fore
SplineSet
407.3984375 781.220703125 m 0
 412.94921875 805.265625 409.564453125 824.681640625 397.333984375 840.583007812 c 0
 385.13671875 856.442382812 367.220703125 864.350585938 342.440429688 864.350585938 c 0
 318.39453125 864.350585938 297.370117188 856.490234375 278.166992188 840.63671875 c 0
 258.920898438 824.747070312 246.69921875 805.306640625 241.138671875 781.220703125 c 0
 236.897460938 762.853515625 237.951171875 747.130859375 244.096679688 733.502929688 c 0
 253.344726562 713.006835938 267.651367188 706.696289062 280.272460938 701.129882812 c 1
 -72.4208984375 0.4111328125 l 1
 -10.890625 0.4111328125 l 1
 75.4345703125 179.930664062 l 1
 293.423828125 179.930664062 l 1
 296.858398438 0.41015625 l 1
 359.409179688 0.41015625 l 1
 330.2578125 701.21875 l 1
 345.822265625 706.717773438 363.735351562 713.045898438 382.407226562 733.502929688 c 0
 394.84375 747.130859375 403.157226562 762.853515625 407.3984375 781.220703125 c 0
309.708007812 722.571289062 m 0
 277.192382812 722.571289062 258.62109375 746.493164062 266.638671875 781.220703125 c 0
 274.529296875 815.40234375 303.94921875 840.891601562 337.024414062 840.891601562 c 0
 372.389648438 840.891601562 388.536132812 814.389648438 380.87890625 781.220703125 c 0
 373.098632812 747.524414062 344.561523438 722.571289062 309.708007812 722.571289062 c 0
99.240234375 228.890625 m 1
 285.103515625 615.99609375 l 1
 292.225585938 228.890625 l 1
 99.240234375 228.890625 l 1
EndSplineSet
EndChar

StartChar: AE
Encoding: 198 198 135
Width: 692
GlyphClass: 2
Flags: W
LayerCount: 2
Fore
SplineSet
482.432617188 637.91015625 m 1
 712.953125 637.91015625 l 1
 724.727539062 688.91015625 l 1
 388.546875 688.91015625 l 1
 -70.7509765625 0.41015625 l 1
 -9.9541015625 0.41015625 l 1
 106.029296875 175.849609375 l 1
 317.6171875 175.849609375 l 1
 277.114257812 0.41015625 l 1
 565.774414062 0.41015625 l 1
 577.548828125 51.41015625 l 1
 347.028320312 51.41015625 l 1
 410.137695312 324.76953125 l 1
 606.998046875 324.76953125 l 1
 619.0078125 376.790039062 l 1
 422.147460938 376.790039062 l 1
 482.432617188 637.91015625 l 1
329.15625 225.830078125 m 1
 138.53125 225.830078125 l 1
 431.58203125 669.485351562 l 1
 329.15625 225.830078125 l 1
EndSplineSet
EndChar

StartChar: Ccedilla
Encoding: 199 199 136
Width: 478
GlyphClass: 2
Flags: MW
HStem: 646.07 52.0195<286.163 321.458>
VStem: 52.5527 59.1592 359.571 57.1201
LayerCount: 2
Fore
SplineSet
139.970703125 484.400390625 m 2
 153.78515625 544.23828125 187.756835938 646.0703125 303.264648438 646.0703125 c 0
 339.65234375 646.0703125 366.9375 634.086914062 383.672851562 609.94921875 c 0
 400.622070312 585.505859375 402.484375 548.189453125 391.244140625 499.190429688 c 1
 450.40625 499.190429688 l 1
 450.759765625 500.719726562 l 2
 466.329101562 568.158203125 460.313476562 617.141601562 434.354492188 649.225585938 c 0
 408.05078125 681.734375 368.416015625 698.08984375 314.254882812 698.08984375 c 0
 258.071289062 698.08984375 209.948242188 680.912109375 168.651367188 646.833984375 c 0
 127.736328125 613.0703125 98.6728515625 561.766601562 82.458984375 491.540039062 c 2
 14.6396484375 197.780273438 l 2
 -0.482421875 132.278320312 3.5966796875 83.328125 25.4873046875 49.8447265625 c 0
 58.64453125 -0.873046875 112.333984375 -5.1337890625 143.122070312 -7.576171875 c 1
 47.3076171875 -154.629882812 l 1
 107.909179688 -154.629882812 l 1
 196.4453125 -3.6923828125 l 1
 216.959960938 0.4111328125 264.240234375 9.8974609375 310.5859375 57.0234375 c 0
 341.295898438 88.2509765625 363.483398438 131.532226562 376.423828125 187.580078125 c 2
 377.01171875 190.129882812 l 1
 319.891601562 190.129882812 l 1
 319.5390625 188.599609375 l 2
 308.626953125 141.337890625 289.86328125 104.897460938 261.978515625 80.4375 c 0
 234.373046875 56.220703125 201.350585938 44.26953125 164.328125 44.26953125 c 0
 97.830078125 44.26953125 46.048828125 77.583984375 73.5634765625 196.759765625 c 2
 139.970703125 484.400390625 l 2
EndSplineSet
EndChar

StartChar: Egrave
Encoding: 200 200 137
Width: 401
GlyphClass: 2
Flags: MW
VStem: 60.7139 297.84
LayerCount: 2
Fore
SplineSet
182.552734375 637.91015625 m 1
 422.252929688 637.91015625 l 1
 434.02734375 688.91015625 l 1
 136.1875 688.91015625 l 1
 -22.765625 0.41015625 l 1
 275.07421875 0.41015625 l 1
 286.848632812 51.41015625 l 1
 47.1484375 51.41015625 l 1
 110.2578125 324.76953125 l 1
 316.297851562 324.76953125 l 1
 328.307617188 376.790039062 l 1
 122.267578125 376.790039062 l 1
 182.552734375 637.91015625 l 1
232.125 880.669921875 m 1
 303.532226562 764.389648438 l 1
 342.345703125 764.389648438 l 1
 287.163085938 880.669921875 l 1
 232.125 880.669921875 l 1
EndSplineSet
EndChar

StartChar: Eacute
Encoding: 201 201 138
Width: 401
GlyphClass: 2
Flags: MW
VStem: 60.7139 297.84
LayerCount: 2
Fore
SplineSet
182.552734375 637.91015625 m 1
 422.252929688 637.91015625 l 1
 434.02734375 688.91015625 l 1
 136.1875 688.91015625 l 1
 -22.765625 0.41015625 l 1
 275.07421875 0.41015625 l 1
 286.848632812 51.41015625 l 1
 47.1484375 51.41015625 l 1
 110.2578125 324.76953125 l 1
 316.297851562 324.76953125 l 1
 328.307617188 376.790039062 l 1
 122.267578125 376.790039062 l 1
 182.552734375 637.91015625 l 1
415.41015625 880.669921875 m 1
 360.372070312 880.669921875 l 1
 251.5 764.389648438 l 1
 290.313476562 764.389648438 l 1
 415.41015625 880.669921875 l 1
EndSplineSet
EndChar

StartChar: Ecircumflex
Encoding: 202 202 139
Width: 401
GlyphClass: 2
Flags: MW
VStem: 60.7139 297.84
LayerCount: 2
Fore
SplineSet
182.552734375 637.91015625 m 1
 422.252929688 637.91015625 l 1
 434.02734375 688.91015625 l 1
 136.1875 688.91015625 l 1
 -22.765625 0.41015625 l 1
 275.07421875 0.41015625 l 1
 286.848632812 51.41015625 l 1
 47.1484375 51.41015625 l 1
 110.2578125 324.76953125 l 1
 316.297851562 324.76953125 l 1
 328.307617188 376.790039062 l 1
 122.267578125 376.790039062 l 1
 182.552734375 637.91015625 l 1
357.916015625 886.790039062 m 1
 300.674804688 886.790039062 l 1
 181.971679688 756.23046875 l 1
 231.932617188 756.23046875 l 1
 323.698242188 853.6484375 l 1
 369.401367188 756.23046875 l 1
 419.075195312 756.23046875 l 1
 357.916015625 886.790039062 l 1
EndSplineSet
EndChar

StartChar: Edieresis
Encoding: 203 203 140
Width: 401
GlyphClass: 2
Flags: MW
VStem: 60.7139 297.84
LayerCount: 2
Fore
SplineSet
182.552734375 637.91015625 m 1
 422.252929688 637.91015625 l 1
 434.02734375 688.91015625 l 1
 136.1875 688.91015625 l 1
 -22.765625 0.41015625 l 1
 275.07421875 0.41015625 l 1
 286.848632812 51.41015625 l 1
 47.1484375 51.41015625 l 1
 110.2578125 324.76953125 l 1
 316.297851562 324.76953125 l 1
 328.307617188 376.790039062 l 1
 122.267578125 376.790039062 l 1
 182.552734375 637.91015625 l 1
272.018554688 839.870117188 m 1
 210.818359375 839.870117188 l 1
 194.098632812 767.450195312 l 1
 255.298828125 767.450195312 l 1
 272.018554688 839.870117188 l 1
427.05859375 839.870117188 m 1
 365.858398438 839.870117188 l 1
 349.138671875 767.450195312 l 1
 410.338867188 767.450195312 l 1
 427.05859375 839.870117188 l 1
EndSplineSet
EndChar

StartChar: Igrave
Encoding: 204 204 141
Width: 199
GlyphClass: 2
Flags: W
LayerCount: 2
Fore
SplineSet
200.447265625 688.91015625 m 1
 142.306640625 688.91015625 l 1
 -16.646484375 0.41015625 l 1
 41.494140625 0.41015625 l 1
 200.447265625 688.91015625 l 1
118.905273438 880.669921875 m 1
 190.3125 764.389648438 l 1
 229.125 764.389648438 l 1
 173.943359375 880.669921875 l 1
 118.905273438 880.669921875 l 1
EndSplineSet
EndChar

StartChar: Iacute
Encoding: 205 205 142
Width: 199
GlyphClass: 2
Flags: W
LayerCount: 2
Fore
SplineSet
200.447265625 688.91015625 m 1
 142.306640625 688.91015625 l 1
 -16.646484375 0.41015625 l 1
 41.494140625 0.41015625 l 1
 200.447265625 688.91015625 l 1
302.190429688 880.669921875 m 1
 247.15234375 880.669921875 l 1
 138.280273438 764.389648438 l 1
 177.09375 764.389648438 l 1
 302.190429688 880.669921875 l 1
EndSplineSet
EndChar

StartChar: Icircumflex
Encoding: 206 206 143
Width: 199
GlyphClass: 2
Flags: W
LayerCount: 2
Fore
SplineSet
200.447265625 688.91015625 m 1
 142.306640625 688.91015625 l 1
 -16.646484375 0.41015625 l 1
 41.494140625 0.41015625 l 1
 200.447265625 688.91015625 l 1
244.696289062 886.790039062 m 1
 187.455078125 886.790039062 l 1
 68.751953125 756.23046875 l 1
 118.712890625 756.23046875 l 1
 210.478515625 853.6484375 l 1
 256.181640625 756.23046875 l 1
 305.85546875 756.23046875 l 1
 244.696289062 886.790039062 l 1
EndSplineSet
EndChar

StartChar: Idieresis
Encoding: 207 207 144
Width: 199
GlyphClass: 2
Flags: W
LayerCount: 2
Fore
SplineSet
200.447265625 688.91015625 m 1
 142.306640625 688.91015625 l 1
 -16.646484375 0.41015625 l 1
 41.494140625 0.41015625 l 1
 200.447265625 688.91015625 l 1
158.798828125 839.870117188 m 1
 97.5986328125 839.870117188 l 1
 80.87890625 767.450195312 l 1
 142.079101562 767.450195312 l 1
 158.798828125 839.870117188 l 1
313.838867188 839.870117188 m 1
 252.638671875 839.870117188 l 1
 235.918945312 767.450195312 l 1
 297.119140625 767.450195312 l 1
 313.838867188 839.870117188 l 1
EndSplineSet
EndChar

StartChar: Eth
Encoding: 208 208 145
Width: 505
GlyphClass: 2
Flags: MW
HStem: 0.410156 51<76.7285 180.724 180.724 192.498 76.7285 208.464> 637.91 51<212.133 327.902 327.902 339.677 164.747 356.81>
VStem: 387.113 59.1602
LayerCount: 2
Fore
SplineSet
339.676757812 688.91015625 m 2
 164.747070312 688.91015625 l 1
 92.4521484375 375.76953125 l 1
 33.2919921875 375.76953125 l 1
 21.517578125 324.76953125 l 1
 80.677734375 324.76953125 l 1
 5.7939453125 0.41015625 l 1
 180.723632812 0.41015625 l 2
 236.204101562 0.41015625 283.799804688 17.56640625 324.764648438 51.638671875 c 0
 365.37109375 85.4130859375 394.189453125 136.397460938 410.244140625 205.940429688 c 2
 474.295898438 483.379882812 l 2
 490.513671875 553.625 485.251953125 604.7578125 460.200195312 638.165039062 c 0
 434.8984375 671.90625 395.17578125 688.91015625 339.676757812 688.91015625 c 2
327.90234375 637.91015625 m 2
 385.716796875 637.91015625 444.030273438 608.534179688 413.487304688 476.240234375 c 2
 350.848632812 204.919921875 l 2
 339.477539062 155.665039062 320.490234375 117.381835938 292.712890625 90.9365234375 c 0
 264.943359375 64.4970703125 230.977539062 51.41015625 192.498046875 51.41015625 c 2
 76.728515625 51.41015625 l 1
 139.837890625 324.76953125 l 1
 248.977539062 324.76953125 l 1
 260.751953125 375.76953125 l 1
 151.612304688 375.76953125 l 1
 212.1328125 637.91015625 l 1
 327.90234375 637.91015625 l 2
EndSplineSet
EndChar

StartChar: Ntilde
Encoding: 209 209 146
Width: 502
GlyphClass: 2
Flags: MW
HStem: 760.31 53.04<380.436 417.089> 796.01 54.0605<305.189 305.832>
LayerCount: 2
Fore
SplineSet
351.57421875 0.41015625 m 1x00
 510.52734375 688.91015625 l 1
 451.3671875 688.91015625 l 1
 319.766601562 118.888671875 l 1
 198.024414062 688.91015625 l 1
 136.1875 688.91015625 l 1
 -22.765625 0.41015625 l 1
 36.3935546875 0.41015625 l 1
 167.743164062 569.348632812 l 1
 289.732421875 0.41015625 l 1
 351.57421875 0.41015625 l 1x00
460.477539062 838.821289062 m 1
 441.739257812 822.973632812 428.032226562 813.349609375 406.146484375 813.349609375 c 0x80
 390.655273438 813.349609375 379.08203125 816.685546875 357.576171875 832.919921875 c 0
 337.219726562 848.288085938 328.393554688 850.0703125 314.6640625 850.0703125 c 0
 295.71484375 850.0703125 282.03125 844.935546875 252.125 819.971679688 c 1
 240.575195312 769.944335938 l 1
 257.329101562 784.100585938 274.658203125 796.009765625 299.123046875 796.009765625 c 0x40
 312.540039062 796.009765625 318.025390625 792.958984375 339.709960938 778.6875 c 0
 365.484375 762.025390625 373.090820312 760.309570312 387.78125 760.309570312 c 0x80
 408.595703125 760.309570312 422.953125 766.138671875 449.2421875 790.15625 c 1
 460.477539062 838.821289062 l 1
EndSplineSet
EndChar

StartChar: Ograve
Encoding: 210 210 147
Width: 478
GlyphClass: 2
Flags: MW
HStem: -7.75 52.0205<130.33 178.02> 646.071 52.0195<285.134 331.153>
VStem: 52.5537 59.1602 359.573 59.1602
LayerCount: 2
Fore
SplineSet
150.280273438 -7.75 m 0
 205.758789062 -7.75 253.54296875 9.408203125 294.862304688 43.505859375 c 0
 335.797851562 77.28515625 364.768554688 128.250976562 380.8203125 197.780273438 c 2
 448.639648438 491.540039062 l 2
 465.018554688 562.482421875 459.819335938 613.955078125 434.779296875 647.345703125 c 0
 409.491210938 681.067382812 369.440429688 698.090820312 313.236328125 698.090820312 c 0
 257.032226562 698.090820312 209.119140625 681.067382812 168.26171875 647.345703125 c 0
 127.8046875 613.956054688 98.8388671875 562.483398438 82.4609375 491.541015625 c 2
 14.640625 197.78125 l 2
 -1.4140625 128.23828125 3.861328125 77.25390625 28.8740234375 43.478515625 c 0
 54.091796875 9.4267578125 94.0947265625 -7.75 150.280273438 -7.75 c 0
302.24609375 646.071289062 m 0
 360.060546875 646.071289062 418.374023438 616.6953125 387.83203125 484.401367188 c 2
 321.424804688 196.760742188 l 2
 310.0546875 147.51171875 291.108398438 109.375 263.364257812 83.24609375 c 0
 235.66015625 57.15625 201.7578125 44.2705078125 163.309570312 44.2705078125 c 0
 97.349609375 44.2705078125 46.0517578125 77.5859375 73.5654296875 196.760742188 c 2
 139.97265625 484.401367188 l 2
 155.052734375 549.719726562 190.842773438 646.071289062 302.24609375 646.071289062 c 0
258.645507812 880.670898438 m 1
 330.052734375 764.390625 l 1
 368.865234375 764.390625 l 1
 313.68359375 880.670898438 l 1
 258.645507812 880.670898438 l 1
EndSplineSet
EndChar

StartChar: Oacute
Encoding: 211 211 148
Width: 478
GlyphClass: 2
Flags: MW
HStem: -7.75 52.0205<130.33 178.02> 646.071 52.0195<285.134 331.153>
VStem: 52.5537 59.1602 359.573 59.1602
LayerCount: 2
Fore
SplineSet
150.280273438 -7.75 m 0
 205.758789062 -7.75 253.54296875 9.408203125 294.862304688 43.505859375 c 0
 335.797851562 77.28515625 364.768554688 128.250976562 380.8203125 197.780273438 c 2
 448.639648438 491.540039062 l 2
 465.018554688 562.482421875 459.819335938 613.955078125 434.779296875 647.345703125 c 0
 409.491210938 681.067382812 369.440429688 698.090820312 313.236328125 698.090820312 c 0
 257.032226562 698.090820312 209.119140625 681.067382812 168.26171875 647.345703125 c 0
 127.8046875 613.956054688 98.8388671875 562.483398438 82.4609375 491.541015625 c 2
 14.640625 197.78125 l 2
 -1.4140625 128.23828125 3.861328125 77.25390625 28.8740234375 43.478515625 c 0
 54.091796875 9.4267578125 94.0947265625 -7.75 150.280273438 -7.75 c 0
302.24609375 646.071289062 m 0
 360.060546875 646.071289062 418.374023438 616.6953125 387.83203125 484.401367188 c 2
 321.424804688 196.760742188 l 2
 310.0546875 147.51171875 291.108398438 109.375 263.364257812 83.24609375 c 0
 235.66015625 57.15625 201.7578125 44.2705078125 163.309570312 44.2705078125 c 0
 97.349609375 44.2705078125 46.0517578125 77.5859375 73.5654296875 196.760742188 c 2
 139.97265625 484.401367188 l 2
 155.052734375 549.719726562 190.842773438 646.071289062 302.24609375 646.071289062 c 0
441.9296875 880.670898438 m 1
 386.892578125 880.670898438 l 1
 278.020507812 764.390625 l 1
 316.833007812 764.390625 l 1
 441.9296875 880.670898438 l 1
EndSplineSet
EndChar

StartChar: Ocircumflex
Encoding: 212 212 149
Width: 478
GlyphClass: 2
Flags: MW
HStem: -7.75 52.0205<130.33 178.02> 646.071 52.0195<285.134 331.153>
VStem: 52.5537 59.1602 359.573 59.1602
LayerCount: 2
Fore
SplineSet
150.280273438 -7.75 m 0
 205.758789062 -7.75 253.54296875 9.408203125 294.862304688 43.505859375 c 0
 335.797851562 77.28515625 364.768554688 128.250976562 380.8203125 197.780273438 c 2
 448.639648438 491.540039062 l 2
 465.018554688 562.482421875 459.819335938 613.955078125 434.779296875 647.345703125 c 0
 409.491210938 681.067382812 369.440429688 698.090820312 313.236328125 698.090820312 c 0
 257.032226562 698.090820312 209.119140625 681.067382812 168.26171875 647.345703125 c 0
 127.8046875 613.956054688 98.8388671875 562.483398438 82.4609375 491.541015625 c 2
 14.640625 197.78125 l 2
 -1.4140625 128.23828125 3.861328125 77.25390625 28.8740234375 43.478515625 c 0
 54.091796875 9.4267578125 94.0947265625 -7.75 150.280273438 -7.75 c 0
302.24609375 646.071289062 m 0
 360.060546875 646.071289062 418.374023438 616.6953125 387.83203125 484.401367188 c 2
 321.424804688 196.760742188 l 2
 310.0546875 147.51171875 291.108398438 109.375 263.364257812 83.24609375 c 0
 235.66015625 57.15625 201.7578125 44.2705078125 163.309570312 44.2705078125 c 0
 97.349609375 44.2705078125 46.0517578125 77.5859375 73.5654296875 196.760742188 c 2
 139.97265625 484.401367188 l 2
 155.052734375 549.719726562 190.842773438 646.071289062 302.24609375 646.071289062 c 0
384.436523438 886.791015625 m 1
 327.194335938 886.791015625 l 1
 208.491210938 756.231445312 l 1
 258.453125 756.231445312 l 1
 350.21875 853.649414062 l 1
 395.920898438 756.231445312 l 1
 445.595703125 756.231445312 l 1
 384.436523438 886.791015625 l 1
EndSplineSet
EndChar

StartChar: Otilde
Encoding: 213 213 150
Width: 478
GlyphClass: 2
Flags: MW
HStem: -7.75 52.0205<130.33 178.02> 646.071 52.0195<285.134 331.153> 760.311 53.04<367.177 403.831> 796.011 54.0605<291.93 292.572>
VStem: 52.5537 59.1602 359.573 59.1602
LayerCount: 2
Fore
SplineSet
150.280273438 -7.75 m 0xcc
 205.758789062 -7.75 253.54296875 9.408203125 294.862304688 43.505859375 c 0
 335.797851562 77.28515625 364.768554688 128.250976562 380.8203125 197.780273438 c 2
 448.639648438 491.540039062 l 2
 465.018554688 562.482421875 459.819335938 613.955078125 434.779296875 647.345703125 c 0
 409.491210938 681.067382812 369.440429688 698.090820312 313.236328125 698.090820312 c 0
 257.032226562 698.090820312 209.119140625 681.067382812 168.26171875 647.345703125 c 0
 127.8046875 613.956054688 98.8388671875 562.483398438 82.4609375 491.541015625 c 2
 14.640625 197.78125 l 2
 -1.4140625 128.23828125 3.861328125 77.25390625 28.8740234375 43.478515625 c 0
 54.091796875 9.4267578125 94.0947265625 -7.75 150.280273438 -7.75 c 0xcc
302.24609375 646.071289062 m 0
 360.060546875 646.071289062 418.374023438 616.6953125 387.83203125 484.401367188 c 2
 321.424804688 196.760742188 l 2
 310.0546875 147.51171875 291.108398438 109.375 263.364257812 83.24609375 c 0
 235.66015625 57.15625 201.7578125 44.2705078125 163.309570312 44.2705078125 c 0
 97.349609375 44.2705078125 46.0517578125 77.5859375 73.5654296875 196.760742188 c 2
 139.97265625 484.401367188 l 2
 155.052734375 549.719726562 190.842773438 646.071289062 302.24609375 646.071289062 c 0
447.21875 838.822265625 m 1
 428.48046875 822.974609375 414.7734375 813.350585938 392.887695312 813.350585938 c 0xec
 377.396484375 813.350585938 365.822265625 816.686523438 344.317382812 832.920898438 c 0
 323.9609375 848.2890625 315.134765625 850.071289062 301.405273438 850.071289062 c 0
 282.454101562 850.071289062 268.768554688 844.93359375 238.865234375 819.97265625 c 1
 227.315429688 769.9453125 l 1
 244.069335938 784.1015625 261.397460938 796.010742188 285.862304688 796.010742188 c 0xdc
 299.28125 796.010742188 304.76953125 792.95703125 326.450195312 778.688476562 c 0
 352.224609375 762.026367188 359.83203125 760.310546875 374.522460938 760.310546875 c 0xec
 395.334960938 760.310546875 409.688476562 766.13671875 435.983398438 790.158203125 c 1
 447.21875 838.822265625 l 1
EndSplineSet
EndChar

StartChar: Odieresis
Encoding: 214 214 151
Width: 478
GlyphClass: 2
Flags: MW
HStem: -7.75 52.0205<130.33 178.02> 646.071 52.0195<285.134 331.153>
VStem: 52.5537 59.1602 359.573 59.1602
LayerCount: 2
Fore
SplineSet
150.280273438 -7.75 m 0
 205.758789062 -7.75 253.54296875 9.408203125 294.862304688 43.505859375 c 0
 335.797851562 77.28515625 364.768554688 128.250976562 380.8203125 197.780273438 c 2
 448.639648438 491.540039062 l 2
 465.018554688 562.482421875 459.819335938 613.955078125 434.779296875 647.345703125 c 0
 409.491210938 681.067382812 369.440429688 698.090820312 313.236328125 698.090820312 c 0
 257.032226562 698.090820312 209.119140625 681.067382812 168.26171875 647.345703125 c 0
 127.8046875 613.956054688 98.8388671875 562.483398438 82.4609375 491.541015625 c 2
 14.640625 197.78125 l 2
 -1.4140625 128.23828125 3.861328125 77.25390625 28.8740234375 43.478515625 c 0
 54.091796875 9.4267578125 94.0947265625 -7.75 150.280273438 -7.75 c 0
302.24609375 646.071289062 m 0
 360.060546875 646.071289062 418.374023438 616.6953125 387.83203125 484.401367188 c 2
 321.424804688 196.760742188 l 2
 310.0546875 147.51171875 291.108398438 109.375 263.364257812 83.24609375 c 0
 235.66015625 57.15625 201.7578125 44.2705078125 163.309570312 44.2705078125 c 0
 97.349609375 44.2705078125 46.0517578125 77.5859375 73.5654296875 196.760742188 c 2
 139.97265625 484.401367188 l 2
 155.052734375 549.719726562 190.842773438 646.071289062 302.24609375 646.071289062 c 0
298.5390625 839.87109375 m 1
 237.338867188 839.87109375 l 1
 220.619140625 767.451171875 l 1
 281.819335938 767.451171875 l 1
 298.5390625 839.87109375 l 1
453.579101562 839.87109375 m 1
 392.37890625 839.87109375 l 1
 375.659179688 767.451171875 l 1
 436.859375 767.451171875 l 1
 453.579101562 839.87109375 l 1
EndSplineSet
EndChar

StartChar: multiply
Encoding: 215 215 152
Width: 419
GlyphClass: 2
Flags: W
LayerCount: 2
Fore
SplineSet
71.2275390625 380.297851562 m 1
 152.768554688 274.280273438 l 1
 22.275390625 168.262695312 l 1
 48.556640625 135.094726562 l 1
 179.235351562 241.262695312 l 1
 259.8046875 135.182617188 l 1
 300.4765625 168.225585938 l 1
 219.926757812 274.280273438 l 1
 349.4453125 380.333984375 l 1
 324.010742188 413.403320312 l 1
 194.727539062 308.369140625 l 1
 112.85546875 413.490234375 l 1
 71.2275390625 380.297851562 l 1
EndSplineSet
EndChar

StartChar: Oslash
Encoding: 216 216 153
Width: 478
GlyphClass: 2
Flags: MW
HStem: -7.74902 52.0215<143.18 178.019> 646.072 52.0176<285.133 322.178>
VStem: 52.5527 59.1602 359.572 59.1602
LayerCount: 2
Fore
SplineSet
313.235351562 698.08984375 m 0
 257.03125 698.08984375 209.118164062 681.06640625 168.260742188 647.344726562 c 0
 127.802734375 613.955078125 98.837890625 562.482421875 82.458984375 491.540039062 c 2
 14.6396484375 197.780273438 l 2
 1.3876953125 140.379882812 3.208984375 94.7734375 19.283203125 60.373046875 c 2
 20.92578125 56.8564453125 l 1
 -30.552734375 -19.9892578125 l 1
 6.8203125 -19.9892578125 l 1
 40.4873046875 29.865234375 l 1
 57.666015625 15.4697265625 85.375 -7.7490234375 150.279296875 -7.7490234375 c 0
 205.7578125 -7.7490234375 253.541992188 9.4091796875 294.861328125 43.5068359375 c 0
 335.796875 77.2861328125 364.767578125 128.251953125 380.819335938 197.78125 c 2
 448.639648438 491.541015625 l 2
 461.74609375 548.3125 460.426757812 593.295898438 445.516601562 627.016601562 c 2
 443.97265625 630.5078125 l 1
 496.875976562 709.309570312 l 1
 459.518554688 709.309570312 l 1
 425.708007812 659.2421875 l 1
 408.870117188 674.247070312 382.1171875 698.08984375 313.235351562 698.08984375 c 0
139.971679688 484.40234375 m 2
 155.051757812 549.720703125 190.841796875 646.072265625 302.245117188 646.072265625 c 0
 342.110351562 646.072265625 370.229492188 632.23828125 384.419921875 604.193359375 c 2
 386.221679688 600.631835938 l 1
 65.6669921875 122.939453125 l 1
 66.3916015625 158.620117188 66.5498046875 166.376953125 73.564453125 196.76171875 c 2
 139.971679688 484.40234375 l 2
387.831054688 484.40234375 m 2
 321.423828125 196.76171875 l 2
 310.053710938 147.512695312 291.107421875 109.375976562 263.36328125 83.2470703125 c 0
 235.659179688 57.1572265625 201.756835938 44.2724609375 163.30859375 44.2724609375 c 0
 123.051757812 44.2724609375 94.3447265625 56.4482421875 79.3525390625 81.744140625 c 2
 77.1962890625 85.3818359375 l 1
 395.961914062 559.185546875 l 1
 395.239257812 523.556640625 395.08203125 515.809570312 387.831054688 484.40234375 c 2
EndSplineSet
EndChar

StartChar: Ugrave
Encoding: 217 217 154
Width: 480
GlyphClass: 2
Flags: MW
HStem: -7.75 52.0195<145.486 177.668>
VStem: 60.7129 59.1592 353.452 59.1602
LayerCount: 2
Fore
SplineSet
16.9130859375 172.280273438 m 2
 -7.9013671875 64.798828125 47.4560546875 -7.75 151.299804688 -7.75 c 0
 204.036132812 -7.75 249.811523438 8.712890625 289.83203125 41.4912109375 c 0
 329.802734375 74.228515625 356.14453125 117.41015625 368.8125 172.280273438 c 2
 488.0859375 688.91015625 l 1
 428.92578125 688.91015625 l 1
 310.59375 176.360351562 l 2
 301.208007812 135.706054688 283.654296875 103.045898438 257.220703125 79.4755859375 c 0
 230.780273438 55.900390625 198.986328125 44.26953125 163.30859375 44.26953125 c 0
 127.6640625 44.26953125 101.213867188 55.6982421875 85.5654296875 78.9208984375 c 0
 69.8759765625 102.201171875 67.4794921875 135.0625 77.013671875 176.360351562 c 2
 195.345703125 688.91015625 l 1
 136.186523438 688.91015625 l 1
 16.9130859375 172.280273438 l 2
259.663085938 880.669921875 m 1
 331.0703125 764.389648438 l 1
 369.883789062 764.389648438 l 1
 314.701171875 880.669921875 l 1
 259.663085938 880.669921875 l 1
EndSplineSet
EndChar

StartChar: Uacute
Encoding: 218 218 155
Width: 480
GlyphClass: 2
Flags: MW
HStem: -7.75 52.0195<145.486 177.668>
VStem: 60.7129 59.1592 353.452 59.1602
LayerCount: 2
Fore
SplineSet
16.9130859375 172.280273438 m 2
 -7.9013671875 64.798828125 47.4560546875 -7.75 151.299804688 -7.75 c 0
 204.036132812 -7.75 249.811523438 8.712890625 289.83203125 41.4912109375 c 0
 329.802734375 74.228515625 356.14453125 117.41015625 368.8125 172.280273438 c 2
 488.0859375 688.91015625 l 1
 428.92578125 688.91015625 l 1
 310.59375 176.360351562 l 2
 301.208007812 135.706054688 283.654296875 103.045898438 257.220703125 79.4755859375 c 0
 230.780273438 55.900390625 198.986328125 44.26953125 163.30859375 44.26953125 c 0
 127.6640625 44.26953125 101.213867188 55.6982421875 85.5654296875 78.9208984375 c 0
 69.8759765625 102.201171875 67.4794921875 135.0625 77.013671875 176.360351562 c 2
 195.345703125 688.91015625 l 1
 136.186523438 688.91015625 l 1
 16.9130859375 172.280273438 l 2
442.948242188 880.669921875 m 1
 387.91015625 880.669921875 l 1
 279.038085938 764.389648438 l 1
 317.8515625 764.389648438 l 1
 442.948242188 880.669921875 l 1
EndSplineSet
EndChar

StartChar: Ucircumflex
Encoding: 219 219 156
Width: 480
GlyphClass: 2
Flags: MW
HStem: -7.75 52.0195<145.486 177.668>
VStem: 60.7129 59.1592 353.452 59.1602
LayerCount: 2
Fore
SplineSet
16.9130859375 172.280273438 m 2
 -7.9013671875 64.798828125 47.4560546875 -7.75 151.299804688 -7.75 c 0
 204.036132812 -7.75 249.811523438 8.712890625 289.83203125 41.4912109375 c 0
 329.802734375 74.228515625 356.14453125 117.41015625 368.8125 172.280273438 c 2
 488.0859375 688.91015625 l 1
 428.92578125 688.91015625 l 1
 310.59375 176.360351562 l 2
 301.208007812 135.706054688 283.654296875 103.045898438 257.220703125 79.4755859375 c 0
 230.780273438 55.900390625 198.986328125 44.26953125 163.30859375 44.26953125 c 0
 127.6640625 44.26953125 101.213867188 55.6982421875 85.5654296875 78.9208984375 c 0
 69.8759765625 102.201171875 67.4794921875 135.0625 77.013671875 176.360351562 c 2
 195.345703125 688.91015625 l 1
 136.186523438 688.91015625 l 1
 16.9130859375 172.280273438 l 2
385.454101562 886.790039062 m 1
 328.212890625 886.790039062 l 1
 209.509765625 756.23046875 l 1
 259.470703125 756.23046875 l 1
 351.236328125 853.6484375 l 1
 396.939453125 756.23046875 l 1
 446.61328125 756.23046875 l 1
 385.454101562 886.790039062 l 1
EndSplineSet
EndChar

StartChar: Udieresis
Encoding: 220 220 157
Width: 480
GlyphClass: 2
Flags: MW
HStem: -7.75 52.0195<145.486 177.668>
VStem: 60.7129 59.1592 353.452 59.1602
LayerCount: 2
Fore
SplineSet
16.9130859375 172.280273438 m 2
 -7.9013671875 64.798828125 47.4560546875 -7.75 151.299804688 -7.75 c 0
 204.036132812 -7.75 249.811523438 8.712890625 289.83203125 41.4912109375 c 0
 329.802734375 74.228515625 356.14453125 117.41015625 368.8125 172.280273438 c 2
 488.0859375 688.91015625 l 1
 428.92578125 688.91015625 l 1
 310.59375 176.360351562 l 2
 301.208007812 135.706054688 283.654296875 103.045898438 257.220703125 79.4755859375 c 0
 230.780273438 55.900390625 198.986328125 44.26953125 163.30859375 44.26953125 c 0
 127.6640625 44.26953125 101.213867188 55.6982421875 85.5654296875 78.9208984375 c 0
 69.8759765625 102.201171875 67.4794921875 135.0625 77.013671875 176.360351562 c 2
 195.345703125 688.91015625 l 1
 136.186523438 688.91015625 l 1
 16.9130859375 172.280273438 l 2
299.556640625 839.870117188 m 1
 238.356445312 839.870117188 l 1
 221.63671875 767.450195312 l 1
 282.836914062 767.450195312 l 1
 299.556640625 839.870117188 l 1
454.596679688 839.870117188 m 1
 393.396484375 839.870117188 l 1
 376.676757812 767.450195312 l 1
 437.876953125 767.450195312 l 1
 454.596679688 839.870117188 l 1
EndSplineSet
EndChar

StartChar: Yacute
Encoding: 221 221 158
Width: 390
GlyphClass: 2
Flags: MW
VStem: 87.5547 65.0742<688.91 688.91>
LayerCount: 2
Fore
SplineSet
203.512695312 286.889648438 m 1
 446.959960938 688.91015625 l 1
 381.884765625 688.91015625 l 1
 189.1015625 350.3828125 l 1
 152.62890625 688.91015625 l 1
 87.5546875 688.91015625 l 1
 145.373046875 286.889648438 l 1
 79.234375 0.41015625 l 1
 137.374023438 0.41015625 l 1
 203.512695312 286.889648438 l 1
402.150390625 880.669921875 m 1
 347.112304688 880.669921875 l 1
 238.240234375 764.389648438 l 1
 277.053710938 764.389648438 l 1
 402.150390625 880.669921875 l 1
EndSplineSet
EndChar

StartChar: Thorn
Encoding: 222 222 159
Width: 439
GlyphClass: 2
Flags: MW
HStem: 169.73 49.9805<86.0039 187.175 187.175 194.634 86.0039 234.259> 509.391 50.999<164.655 261.511 261.511 277.365 164.655 310.528>
VStem: 346.313 59.1602
LayerCount: 2
Fore
SplineSet
187.174804688 169.73046875 m 2
 281.34375 169.73046875 370.477539062 210.416992188 405.708984375 363.01953125 c 0
 421.174804688 430.008789062 418.059570312 479.203125 397.96875 511.575195312 c 0
 378.05078125 543.668945312 338.602539062 560.389648438 277.365234375 560.389648438 c 2
 164.655273438 560.389648438 l 1
 194.327148438 688.91015625 l 1
 136.1875 688.91015625 l 1
 -22.765625 0.41015625 l 1
 35.3740234375 0.41015625 l 1
 74.46484375 169.73046875 l 1
 187.174804688 169.73046875 l 2
346.548828125 363.021484375 m 0
 329.130859375 287.57421875 292.75390625 219.7109375 194.633789062 219.7109375 c 2
 86.00390625 219.7109375 l 1
 152.880859375 509.390625 l 1
 261.510742188 509.390625 l 2
 359.545898438 509.390625 364.1875 439.418945312 346.548828125 363.021484375 c 0
EndSplineSet
EndChar

StartChar: germandbls
Encoding: 223 223 160
Width: 412
GlyphClass: 2
Flags: MW
HStem: -3.66992 47.9395<140.36 149.182 149.182 152.088 140.36 167.751> 383.93 46.9199<226.548 229.485 229.485 240.318 226.548 240.678> 650.15 47.9395<257.793 306.657 257.793 315.152>
VStem: 59.6924 55.0801 299.392 55.082
LayerCount: 2
Fore
SplineSet
272.586914062 650.150390625 m 0
 357.717773438 650.150390625 343.38671875 574.649414062 336.208984375 543.559570312 c 0
 327.759765625 506.959960938 317.2734375 479.432617188 303.5 460.5859375 c 0
 288.77734375 440.442382812 266.565429688 430.849609375 240.318359375 430.849609375 c 2
 226.547851562 430.849609375 l 1
 215.71484375 383.9296875 l 1
 229.485351562 383.9296875 l 2
 251.87109375 383.9296875 268.401367188 377.708984375 276.645507812 363.797851562 c 0
 289.352539062 342.358398438 288.735351562 315.841796875 265.953125 217.16015625 c 0
 240.967773438 108.936523438 229.54296875 81.7900390625 207.282226562 62.10546875 c 0
 193.124023438 49.5859375 174.254882812 44.26953125 152.087890625 44.26953125 c 2
 140.360351562 44.26953125 l 1
 129.291992188 -3.669921875 l 1
 149.181640625 -3.669921875 l 2
 186.3203125 -3.669921875 214.359375 4.0693359375 233.879882812 17.9658203125 c 0
 253.817382812 32.158203125 269.9921875 53.5791015625 282.094726562 83.3408203125 c 0
 294.358398438 113.49609375 307.43359375 158.249023438 321.034179688 217.159179688 c 0
 350.228515625 343.610351562 348.400390625 380.408203125 302.755859375 407.219726562 c 2
 291.624023438 413.758789062 l 1
 341.5234375 438.45703125 370.52734375 453.630859375 392.466796875 548.66015625 c 0
 403.444335938 596.208984375 398.702148438 632.419921875 379.21875 658.579101562 c 0
 359.685546875 684.806640625 328.639648438 698.08984375 284.674804688 698.08984375 c 0
 230.911132812 698.08984375 190.630859375 683.250976562 161.930664062 655.107421875 c 0
 132.697265625 626.44140625 110.805664062 583.39453125 97.3701171875 525.200195312 c 2
 -23.787109375 0.41015625 l 1
 31.29296875 0.41015625 l 1
 157.866210938 548.66015625 l 2
 164.490234375 577.3515625 185.76953125 650.150390625 272.586914062 650.150390625 c 0
EndSplineSet
EndChar

StartChar: agrave
Encoding: 224 224 161
Width: 399
GlyphClass: 2
Flags: MW
HStem: -7.75 44.8789<86.4629 104.625> 249.289 36.7207<170.862 172.198 172.198 252.972 252.972 252.972> 474.71 45.9004<205.324 237.639>
VStem: 40.3125 54.0605 53.5723 49.9805 278.993 54.0605
LayerCount: 2
Fore
SplineSet
336.115234375 375.259765625 m 2xf4
 349.127929688 431.625976562 350.080078125 520.610351562 226.361328125 520.610351562 c 0
 184.287109375 520.610351562 148.857421875 508.888671875 119.03125 485.952148438 c 0
 89.349609375 463.125976562 69.6904296875 431.815429688 60.166015625 390.559570312 c 2
 59.8125 389.030273438 l 1
 109.79296875 389.030273438 l 1
 109.911132812 389.540039062 l 2xec
 115.2109375 412.49609375 136.853515625 474.709960938 215.763671875 474.709960938 c 0
 259.514648438 474.709960938 300.700195312 456.029296875 282.759765625 378.3203125 c 2
 261.448242188 286.009765625 l 1
 172.198242188 286.009765625 l 2
 122.499023438 286.009765625 82.8330078125 272.984375 52.0322265625 247.961914062 c 0
 21.08984375 222.823242188 0.10546875 187.844726562 -10.552734375 141.6796875 c 0
 -19.951171875 100.969726562 -37.1982421875 -7.75 81.9404296875 -7.75 c 0
 127.309570312 -7.75 164.205078125 9.8974609375 194.903320312 45.7666015625 c 2
 214.26953125 68.3935546875 l 1
 198.57421875 0.41015625 l 1
 249.57421875 0.41015625 l 1
 336.115234375 375.259765625 l 2xf4
43.7431640625 142.69921875 m 0xf4
 51.8291015625 177.72265625 76.2138671875 249.2890625 170.862304688 249.2890625 c 2
 252.971679688 249.2890625 l 1
 228.598632812 143.71875 l 2
 221.098632812 111.23046875 207.045898438 84.876953125 185.731445312 65.7314453125 c 0
 164.319335938 46.49609375 138.112304688 37.12890625 108.62109375 37.12890625 c 0
 64.3046875 37.12890625 24.19140625 58.0107421875 43.7431640625 142.69921875 c 0xf4
179.145507812 704.208984375 m 1
 250.553710938 587.928710938 l 1
 289.366210938 587.928710938 l 1
 234.18359375 704.208984375 l 1
 179.145507812 704.208984375 l 1
EndSplineSet
EndChar

StartChar: aacute
Encoding: 225 225 162
Width: 399
GlyphClass: 2
Flags: MW
HStem: -7.75 44.8789<86.4629 104.625> 249.289 36.7207<170.862 172.198 172.198 252.972 252.972 252.972> 474.71 45.9004<205.324 237.639>
VStem: 40.3125 54.0605 53.5723 49.9805 278.993 54.0605
LayerCount: 2
Fore
SplineSet
336.115234375 375.259765625 m 2xf4
 349.127929688 431.625976562 350.080078125 520.610351562 226.361328125 520.610351562 c 0
 184.287109375 520.610351562 148.857421875 508.888671875 119.03125 485.952148438 c 0
 89.349609375 463.125976562 69.6904296875 431.815429688 60.166015625 390.559570312 c 2
 59.8125 389.030273438 l 1
 109.79296875 389.030273438 l 1
 109.911132812 389.540039062 l 2xec
 115.2109375 412.49609375 136.853515625 474.709960938 215.763671875 474.709960938 c 0
 259.514648438 474.709960938 300.700195312 456.029296875 282.759765625 378.3203125 c 2
 261.448242188 286.009765625 l 1
 172.198242188 286.009765625 l 2
 122.499023438 286.009765625 82.8330078125 272.984375 52.0322265625 247.961914062 c 0
 21.08984375 222.823242188 0.10546875 187.844726562 -10.552734375 141.6796875 c 0
 -19.951171875 100.969726562 -37.1982421875 -7.75 81.9404296875 -7.75 c 0
 127.309570312 -7.75 164.205078125 9.8974609375 194.903320312 45.7666015625 c 2
 214.26953125 68.3935546875 l 1
 198.57421875 0.41015625 l 1
 249.57421875 0.41015625 l 1
 336.115234375 375.259765625 l 2xf4
43.7431640625 142.69921875 m 0xf4
 51.8291015625 177.72265625 76.2138671875 249.2890625 170.862304688 249.2890625 c 2
 252.971679688 249.2890625 l 1
 228.598632812 143.71875 l 2
 221.098632812 111.23046875 207.045898438 84.876953125 185.731445312 65.7314453125 c 0
 164.319335938 46.49609375 138.112304688 37.12890625 108.62109375 37.12890625 c 0
 64.3046875 37.12890625 24.19140625 58.0107421875 43.7431640625 142.69921875 c 0xf4
362.430664062 704.208984375 m 1
 307.392578125 704.208984375 l 1
 198.521484375 587.928710938 l 1
 237.333984375 587.928710938 l 1
 362.430664062 704.208984375 l 1
EndSplineSet
EndChar

StartChar: acircumflex
Encoding: 226 226 163
Width: 399
GlyphClass: 2
Flags: MW
HStem: -7.75 44.8789<86.4629 104.625> 249.289 36.7207<170.862 172.198 172.198 252.972 252.972 252.972> 474.71 45.9004<205.324 237.639>
VStem: 40.3125 54.0605 53.5723 49.9805 278.993 54.0605
LayerCount: 2
Fore
SplineSet
336.115234375 375.259765625 m 2xf4
 349.127929688 431.625976562 350.080078125 520.610351562 226.361328125 520.610351562 c 0
 184.287109375 520.610351562 148.857421875 508.888671875 119.03125 485.952148438 c 0
 89.349609375 463.125976562 69.6904296875 431.815429688 60.166015625 390.559570312 c 2
 59.8125 389.030273438 l 1
 109.79296875 389.030273438 l 1
 109.911132812 389.540039062 l 2xec
 115.2109375 412.49609375 136.853515625 474.709960938 215.763671875 474.709960938 c 0
 259.514648438 474.709960938 300.700195312 456.029296875 282.759765625 378.3203125 c 2
 261.448242188 286.009765625 l 1
 172.198242188 286.009765625 l 2
 122.499023438 286.009765625 82.8330078125 272.984375 52.0322265625 247.961914062 c 0
 21.08984375 222.823242188 0.10546875 187.844726562 -10.552734375 141.6796875 c 0
 -19.951171875 100.969726562 -37.1982421875 -7.75 81.9404296875 -7.75 c 0
 127.309570312 -7.75 164.205078125 9.8974609375 194.903320312 45.7666015625 c 2
 214.26953125 68.3935546875 l 1
 198.57421875 0.41015625 l 1
 249.57421875 0.41015625 l 1
 336.115234375 375.259765625 l 2xf4
43.7431640625 142.69921875 m 0xf4
 51.8291015625 177.72265625 76.2138671875 249.2890625 170.862304688 249.2890625 c 2
 252.971679688 249.2890625 l 1
 228.598632812 143.71875 l 2
 221.098632812 111.23046875 207.045898438 84.876953125 185.731445312 65.7314453125 c 0
 164.319335938 46.49609375 138.112304688 37.12890625 108.62109375 37.12890625 c 0
 64.3046875 37.12890625 24.19140625 58.0107421875 43.7431640625 142.69921875 c 0xf4
304.936523438 710.329101562 m 1
 247.6953125 710.329101562 l 1
 128.991210938 579.768554688 l 1
 178.953125 579.768554688 l 1
 270.719726562 677.1875 l 1
 316.420898438 579.768554688 l 1
 366.094726562 579.768554688 l 1
 304.936523438 710.329101562 l 1
EndSplineSet
EndChar

StartChar: atilde
Encoding: 227 227 164
Width: 399
GlyphClass: 2
Flags: MW
HStem: -7.75 44.8789<86.4629 104.625> 249.289 36.7207<170.862 172.198 172.198 252.972 252.972 252.972> 474.71 45.9004<205.324 237.639> 583.849 53.04<287.678 324.333> 619.549 54.0605<212.431 213.073>
VStem: 40.3125 54.0605 53.5723 49.9805 278.993 54.0605
LayerCount: 2
Fore
SplineSet
336.115234375 375.259765625 m 2xe5
 349.127929688 431.625976562 350.080078125 520.610351562 226.361328125 520.610351562 c 0
 184.287109375 520.610351562 148.857421875 508.888671875 119.03125 485.952148438 c 0
 89.349609375 463.125976562 69.6904296875 431.815429688 60.166015625 390.559570312 c 2
 59.8125 389.030273438 l 1
 109.79296875 389.030273438 l 1
 109.911132812 389.540039062 l 2xe3
 115.2109375 412.49609375 136.853515625 474.709960938 215.763671875 474.709960938 c 0
 259.514648438 474.709960938 300.700195312 456.029296875 282.759765625 378.3203125 c 2
 261.448242188 286.009765625 l 1
 172.198242188 286.009765625 l 2
 122.499023438 286.009765625 82.8330078125 272.984375 52.0322265625 247.961914062 c 0
 21.08984375 222.823242188 0.10546875 187.844726562 -10.552734375 141.6796875 c 0
 -19.951171875 100.969726562 -37.1982421875 -7.75 81.9404296875 -7.75 c 0
 127.309570312 -7.75 164.205078125 9.8974609375 194.903320312 45.7666015625 c 2
 214.26953125 68.3935546875 l 1
 198.57421875 0.41015625 l 1
 249.57421875 0.41015625 l 1
 336.115234375 375.259765625 l 2xe5
43.7431640625 142.69921875 m 0xe5
 51.8291015625 177.72265625 76.2138671875 249.2890625 170.862304688 249.2890625 c 2
 252.971679688 249.2890625 l 1
 228.598632812 143.71875 l 2
 221.098632812 111.23046875 207.045898438 84.876953125 185.731445312 65.7314453125 c 0
 164.319335938 46.49609375 138.112304688 37.12890625 108.62109375 37.12890625 c 0
 64.3046875 37.12890625 24.19140625 58.0107421875 43.7431640625 142.69921875 c 0xe5
367.720703125 662.360351562 m 1
 348.981445312 646.512695312 335.275390625 636.888671875 313.389648438 636.888671875 c 0xf5
 297.8984375 636.888671875 286.32421875 640.224609375 264.819335938 656.458984375 c 0
 244.461914062 671.827148438 235.63671875 673.609375 221.907226562 673.609375 c 0
 202.954101562 673.609375 189.265625 668.46875 159.365234375 643.510742188 c 1
 147.815429688 593.483398438 l 1
 164.569335938 607.638671875 181.8984375 619.548828125 206.36328125 619.548828125 c 0xed
 219.782226562 619.548828125 225.270507812 616.495117188 246.951171875 602.2265625 c 0
 272.7265625 585.564453125 280.333007812 583.848632812 295.0234375 583.848632812 c 0xf5
 315.8359375 583.848632812 330.19140625 589.67578125 356.485351562 613.6953125 c 1
 367.720703125 662.360351562 l 1
EndSplineSet
EndChar

StartChar: adieresis
Encoding: 228 228 165
Width: 399
GlyphClass: 2
Flags: MW
HStem: -7.75 44.8789<86.4629 104.625> 249.289 36.7207<170.862 172.198 172.198 252.972 252.972 252.972> 474.71 45.9004<205.324 237.639>
VStem: 40.3125 54.0605 53.5723 49.9805 278.993 54.0605
LayerCount: 2
Fore
SplineSet
336.115234375 375.259765625 m 2xf4
 349.127929688 431.625976562 350.080078125 520.610351562 226.361328125 520.610351562 c 0
 184.287109375 520.610351562 148.857421875 508.888671875 119.03125 485.952148438 c 0
 89.349609375 463.125976562 69.6904296875 431.815429688 60.166015625 390.559570312 c 2
 59.8125 389.030273438 l 1
 109.79296875 389.030273438 l 1
 109.911132812 389.540039062 l 2xec
 115.2109375 412.49609375 136.853515625 474.709960938 215.763671875 474.709960938 c 0
 259.514648438 474.709960938 300.700195312 456.029296875 282.759765625 378.3203125 c 2
 261.448242188 286.009765625 l 1
 172.198242188 286.009765625 l 2
 122.499023438 286.009765625 82.8330078125 272.984375 52.0322265625 247.961914062 c 0
 21.08984375 222.823242188 0.10546875 187.844726562 -10.552734375 141.6796875 c 0
 -19.951171875 100.969726562 -37.1982421875 -7.75 81.9404296875 -7.75 c 0
 127.309570312 -7.75 164.205078125 9.8974609375 194.903320312 45.7666015625 c 2
 214.26953125 68.3935546875 l 1
 198.57421875 0.41015625 l 1
 249.57421875 0.41015625 l 1
 336.115234375 375.259765625 l 2xf4
43.7431640625 142.69921875 m 0xf4
 51.8291015625 177.72265625 76.2138671875 249.2890625 170.862304688 249.2890625 c 2
 252.971679688 249.2890625 l 1
 228.598632812 143.71875 l 2
 221.098632812 111.23046875 207.045898438 84.876953125 185.731445312 65.7314453125 c 0
 164.319335938 46.49609375 138.112304688 37.12890625 108.62109375 37.12890625 c 0
 64.3046875 37.12890625 24.19140625 58.0107421875 43.7431640625 142.69921875 c 0xf4
219.0390625 663.409179688 m 1
 157.83984375 663.409179688 l 1
 141.120117188 590.989257812 l 1
 202.319335938 590.989257812 l 1
 219.0390625 663.409179688 l 1
374.079101562 663.409179688 m 1
 312.879882812 663.409179688 l 1
 296.16015625 590.989257812 l 1
 357.359375 590.989257812 l 1
 374.079101562 663.409179688 l 1
EndSplineSet
EndChar

StartChar: aring
Encoding: 229 229 166
Width: 399
GlyphClass: 2
Flags: MW
HStem: -7.75 44.8789<86.4629 104.625> 249.289 36.7207<170.862 172.198 172.198 252.972 252.972 252.972> 474.71 45.9004<205.324 237.639> 567.529 24.4795<232.707 255.704> 710.33 23.459<269.674 293.966>
VStem: 40.3125 54.0605 53.5723 49.9805 113.754 25.5 253.493 26.5205 278.993 54.0605
LayerCount: 2
Fore
SplineSet
336.115234375 375.259765625 m 2xfd40
 349.127929688 431.625976562 350.080078125 520.610351562 226.361328125 520.610351562 c 0
 184.287109375 520.610351562 148.857421875 508.888671875 119.03125 485.952148438 c 0
 89.349609375 463.125976562 69.6904296875 431.815429688 60.166015625 390.559570312 c 2
 59.8125 389.030273438 l 1
 109.79296875 389.030273438 l 1
 109.911132812 389.540039062 l 2xfb40
 115.2109375 412.49609375 136.853515625 474.709960938 215.763671875 474.709960938 c 0
 259.514648438 474.709960938 300.700195312 456.029296875 282.759765625 378.3203125 c 2
 261.448242188 286.009765625 l 1
 172.198242188 286.009765625 l 2
 122.499023438 286.009765625 82.8330078125 272.984375 52.0322265625 247.961914062 c 0
 21.08984375 222.823242188 0.10546875 187.844726562 -10.552734375 141.6796875 c 0
 -19.951171875 100.969726562 -37.1982421875 -7.75 81.9404296875 -7.75 c 0
 127.309570312 -7.75 164.205078125 9.8974609375 194.903320312 45.7666015625 c 2
 214.26953125 68.3935546875 l 1
 198.57421875 0.41015625 l 1
 249.57421875 0.41015625 l 1
 336.115234375 375.259765625 l 2xfd40
43.7431640625 142.69921875 m 0xfd40
 51.8291015625 177.72265625 76.2138671875 249.2890625 170.862304688 249.2890625 c 2
 252.971679688 249.2890625 l 1
 228.598632812 143.71875 l 2
 221.098632812 111.23046875 207.045898438 84.876953125 185.731445312 65.7314453125 c 0
 164.319335938 46.49609375 138.112304688 37.12890625 108.62109375 37.12890625 c 0
 64.3046875 37.12890625 24.19140625 58.0107421875 43.7431640625 142.69921875 c 0xfd40
243.313476562 567.529296875 m 0
 268.09375 567.529296875 289.661132812 575.4375 309.182617188 591.296875 c 0
 328.754882812 607.198242188 341.104492188 626.614257812 346.65625 650.659179688 c 0xf980
 352.20703125 674.703125 348.822265625 694.119140625 336.591796875 710.020507812 c 0
 324.393554688 725.880859375 306.477539062 733.7890625 281.697265625 733.7890625 c 0
 257.651367188 733.7890625 236.627929688 725.928710938 217.424804688 710.075195312 c 0
 198.178710938 694.185546875 185.95703125 674.744140625 180.396484375 650.659179688 c 0
 174.8359375 626.573242188 178.081054688 607.1328125 189.990234375 591.243164062 c 0
 201.873046875 575.389648438 219.267578125 567.529296875 243.313476562 567.529296875 c 0
320.135742188 650.66015625 m 0
 312.35546875 616.961914062 283.819335938 592.008789062 248.96484375 592.008789062 c 0
 216.44921875 592.008789062 197.87890625 615.930664062 205.896484375 650.659179688 c 0
 213.787109375 684.840820312 243.206054688 710.330078125 276.28125 710.330078125 c 0
 311.650390625 710.330078125 327.791992188 683.82421875 320.135742188 650.66015625 c 0
EndSplineSet
EndChar

StartChar: ae
Encoding: 230 230 167
Width: 636
GlyphClass: 2
Flags: MW
HStem: -7.75 44.8789<86.5278 109.087> 244.19 37.7383<314.563 506.323 314.563 551.675> 474.71 45.9004<205.324 237.639>
VStem: 40.3125 54.0566 53.5723 49.9805 278.989 54.0605 524.81 54.0635
LayerCount: 2
Fore
SplineSet
215.763671875 474.709960938 m 0xee
 259.514648438 474.709960938 300.700195312 456.029296875 282.759765625 378.3203125 c 2
 260.506835938 281.9296875 l 1
 171.256835938 281.9296875 l 2
 121.537109375 281.9296875 81.8828125 269.055664062 51.166015625 244.357421875 c 0
 20.310546875 219.547851562 -0.5283203125 185.098632812 -11.0234375 139.639648438 c 0xf6
 -22.03125 91.9599609375 -18.1337890625 56.0068359375 -0.4931640625 30.591796875 c 0
 17.091796875 5.2587890625 47.400390625 -7.75 92.1396484375 -7.75 c 0
 126.03515625 -7.75 179.73046875 1.0556640625 224.287109375 48.19921875 c 2
 232.572265625 56.9658203125 l 1
 236.760742188 48.1689453125 l 2
 254.424804688 11.060546875 290.418945312 -7.75 347.138671875 -7.75 c 0
 410.655273438 -7.75 496.55078125 17.8583984375 528.012695312 146.26953125 c 1
 474.98046875 146.26953125 l 1
 466.517578125 111.665039062 452.817382812 84.583984375 432.712890625 65.86328125 c 0
 411.971679688 46.55078125 386.356445312 37.1298828125 357.499023438 37.1298828125 c 0
 326.47265625 37.1298828125 303.771484375 47.8642578125 291.206054688 69.548828125 c 0
 278.467773438 91.5283203125 278.641601562 126.333984375 289.484375 173.298828125 c 2
 305.8515625 244.190429688 l 1
 551.674804688 244.190429688 l 1
 574.3984375 342.620117188 l 2
 588.274414062 402.719726562 584.58203125 446.873046875 564.881835938 476.21875 c 0
 545.08203125 505.71484375 512.327148438 520.610351562 465.04296875 520.610351562 c 0
 415.040039062 520.610351562 374.520507812 504.729492188 341.76171875 473.447265625 c 2
 333.85546875 465.897460938 l 1
 329.77734375 473.676757812 l 2
 313.567382812 504.59765625 279.940429688 520.610351562 226.361328125 520.610351562 c 0
 184.287109375 520.610351562 148.857421875 508.888671875 119.03125 485.952148438 c 0
 89.349609375 463.125976562 69.6904296875 431.815429688 60.166015625 390.559570312 c 2
 59.8125 389.030273438 l 1
 109.79296875 389.030273438 l 1
 109.911132812 389.540039062 l 2
 115.2109375 412.49609375 136.853515625 474.709960938 215.763671875 474.709960938 c 0xee
455.224609375 473.689453125 m 0
 485.536132812 473.689453125 507.5390625 463.311523438 519.25390625 442.19921875 c 0
 531.061523438 420.91796875 530.705078125 387.536132812 520.334960938 342.619140625 c 2
 506.323242188 281.928710938 l 1
 314.563476562 281.928710938 l 1
 328.104492188 340.579101562 l 2
 338.783203125 386.833007812 354.14453125 420.930664062 376.21484375 442.265625 c 0
 397.990234375 463.317382812 424.909179688 473.689453125 455.224609375 473.689453125 c 0
43.2685546875 140.659179688 m 0
 51.42578125 175.991210938 75.9013671875 245.208984375 169.916992188 245.208984375 c 2
 252.026367188 245.208984375 l 1
 228.831054688 144.739257812 l 2
 221.328125 112.244140625 207.23828125 85.7548828125 185.907226562 66.296875 c 0
 164.430664062 46.7060546875 138.1484375 37.12890625 108.6171875 37.12890625 c 0
 64.4384765625 37.12890625 24.0712890625 57.505859375 43.2685546875 140.659179688 c 0
EndSplineSet
EndChar

StartChar: ccedilla
Encoding: 231 231 168
Width: 408
GlyphClass: 2
Flags: MW
HStem: 473.688 46.9209<214.172 252.276>
VStem: 50.5137 54.0596 296.333 54.0605
LayerCount: 2
Fore
SplineSet
349.922851562 359.959960938 m 2
 359.0859375 399.650390625 383.232421875 520.609375 238.600585938 520.609375 c 0
 189.743164062 520.609375 149.748046875 506.708007812 117.338867188 479.599609375 c 0
 85.2529296875 452.76171875 61.5009765625 409.58984375 47.4521484375 348.739257812 c 2
 4.8291015625 164.119140625 l 2
 -25.765625 31.5986328125 34.0654296875 -2.8447265625 102.879882812 -7.771484375 c 2
 113.384765625 -8.5234375 l 1
 17.759765625 -154.631835938 l 1
 78.3056640625 -154.631835938 l 1
 167.106445312 -2.017578125 l 1
 204.047851562 8.0771484375 274.611328125 33.7529296875 302.353515625 153.916992188 c 2
 303.649414062 159.52734375 l 1
 249.588867188 159.52734375 l 1
 248.057617188 152.897460938 l 2
 240.9609375 122.157226562 218.01171875 39.1669921875 127.451171875 39.1669921875 c 0
 96.5126953125 39.1669921875 74.0146484375 49.4892578125 61.9296875 70.5908203125 c 0
 49.7119140625 91.92578125 50.09375 126.0234375 60.7724609375 172.278320312 c 2
 99.6279296875 340.578125 l 2
 110.306640625 386.83203125 125.668945312 420.9296875 147.737304688 442.264648438 c 0
 169.615234375 463.4140625 197.2265625 473.688476562 228.7890625 473.688476562 c 0
 275.763671875 473.688476562 316.811523438 450.700195312 295.861328125 359.958007812 c 2
 294.331054688 353.330078125 l 1
 348.391601562 353.330078125 l 1
 349.922851562 359.959960938 l 2
EndSplineSet
EndChar

StartChar: egrave
Encoding: 232 232 169
Width: 407
GlyphClass: 2
Flags: MW
HStem: -7.75 44.8799<113.509 150.154> 473.689 46.9209<211.897 240.886>
VStem: 50.5137 54.0596 296.333 53.04
LayerCount: 2
Fore
SplineSet
245.484375 146.26953125 m 1
 238.500976562 117.669921875 215.629882812 37.1298828125 129.021484375 37.1298828125 c 0
 97.9970703125 37.1298828125 75.2958984375 47.8642578125 62.7294921875 69.548828125 c 0
 49.9921875 91.5283203125 50.1650390625 126.333984375 61.0078125 173.298828125 c 2
 77.138671875 243.169921875 l 1
 321.938476562 243.169921875 l 1
 344.8984375 342.620117188 l 2
 358.774414062 402.719726562 355.08203125 446.873046875 335.381835938 476.21875 c 0
 315.581054688 505.71484375 282.826171875 520.610351562 235.541992188 520.610351562 c 0
 188.252929688 520.610351562 149.0078125 505.71875 116.302734375 476.288085938 c 0
 83.6982421875 446.94921875 59.921875 402.75 46.0390625 342.620117188 c 2
 6.7138671875 172.280273438 l 2
 -27.416015625 24.4482421875 40.390625 -7.75 116.620117188 -7.75 c 0
 183.6875 -7.75 267.51953125 19.763671875 298.515625 146.26953125 c 1
 245.484375 146.26953125 l 1
225.728515625 473.689453125 m 0
 256.043945312 473.689453125 278.173828125 463.317382812 290.23046875 442.265625 c 0
 302.418945312 420.982421875 302.232421875 387.551757812 291.858398438 342.619140625 c 2
 277.611328125 280.909179688 l 1
 85.8515625 280.909179688 l 1
 99.6279296875 340.579101562 l 2
 110.15234375 386.166992188 125.314453125 420.022460938 146.990234375 441.637695312 c 0
 168.512695312 463.098632812 195.375976562 473.689453125 225.728515625 473.689453125 c 0
178.125976562 704.208984375 m 1
 249.533203125 587.928710938 l 1
 288.345703125 587.928710938 l 1
 233.1640625 704.208984375 l 1
 178.125976562 704.208984375 l 1
EndSplineSet
EndChar

StartChar: eacute
Encoding: 233 233 170
Width: 407
GlyphClass: 2
Flags: MW
HStem: -7.75 44.8799<113.509 150.154> 473.689 46.9209<211.897 240.886>
VStem: 50.5137 54.0596 296.333 53.04
LayerCount: 2
Fore
SplineSet
245.484375 146.26953125 m 1
 238.500976562 117.669921875 215.629882812 37.1298828125 129.021484375 37.1298828125 c 0
 97.9970703125 37.1298828125 75.2958984375 47.8642578125 62.7294921875 69.548828125 c 0
 49.9921875 91.5283203125 50.1650390625 126.333984375 61.0078125 173.298828125 c 2
 77.138671875 243.169921875 l 1
 321.938476562 243.169921875 l 1
 344.8984375 342.620117188 l 2
 358.774414062 402.719726562 355.08203125 446.873046875 335.381835938 476.21875 c 0
 315.581054688 505.71484375 282.826171875 520.610351562 235.541992188 520.610351562 c 0
 188.252929688 520.610351562 149.0078125 505.71875 116.302734375 476.288085938 c 0
 83.6982421875 446.94921875 59.921875 402.75 46.0390625 342.620117188 c 2
 6.7138671875 172.280273438 l 2
 -27.416015625 24.4482421875 40.390625 -7.75 116.620117188 -7.75 c 0
 183.6875 -7.75 267.51953125 19.763671875 298.515625 146.26953125 c 1
 245.484375 146.26953125 l 1
225.728515625 473.689453125 m 0
 256.043945312 473.689453125 278.173828125 463.317382812 290.23046875 442.265625 c 0
 302.418945312 420.982421875 302.232421875 387.551757812 291.858398438 342.619140625 c 2
 277.611328125 280.909179688 l 1
 85.8515625 280.909179688 l 1
 99.6279296875 340.579101562 l 2
 110.15234375 386.166992188 125.314453125 420.022460938 146.990234375 441.637695312 c 0
 168.512695312 463.098632812 195.375976562 473.689453125 225.728515625 473.689453125 c 0
361.411132812 704.208984375 m 1
 306.373046875 704.208984375 l 1
 197.500976562 587.928710938 l 1
 236.314453125 587.928710938 l 1
 361.411132812 704.208984375 l 1
EndSplineSet
EndChar

StartChar: ecircumflex
Encoding: 234 234 171
Width: 407
GlyphClass: 2
Flags: MW
HStem: -7.75 44.8799<113.509 150.154> 473.689 46.9209<211.897 240.886>
VStem: 50.5137 54.0596 296.333 53.04
LayerCount: 2
Fore
SplineSet
245.484375 146.26953125 m 1
 238.500976562 117.669921875 215.629882812 37.1298828125 129.021484375 37.1298828125 c 0
 97.9970703125 37.1298828125 75.2958984375 47.8642578125 62.7294921875 69.548828125 c 0
 49.9921875 91.5283203125 50.1650390625 126.333984375 61.0078125 173.298828125 c 2
 77.138671875 243.169921875 l 1
 321.938476562 243.169921875 l 1
 344.8984375 342.620117188 l 2
 358.774414062 402.719726562 355.08203125 446.873046875 335.381835938 476.21875 c 0
 315.581054688 505.71484375 282.826171875 520.610351562 235.541992188 520.610351562 c 0
 188.252929688 520.610351562 149.0078125 505.71875 116.302734375 476.288085938 c 0
 83.6982421875 446.94921875 59.921875 402.75 46.0390625 342.620117188 c 2
 6.7138671875 172.280273438 l 2
 -27.416015625 24.4482421875 40.390625 -7.75 116.620117188 -7.75 c 0
 183.6875 -7.75 267.51953125 19.763671875 298.515625 146.26953125 c 1
 245.484375 146.26953125 l 1
225.728515625 473.689453125 m 0
 256.043945312 473.689453125 278.173828125 463.317382812 290.23046875 442.265625 c 0
 302.418945312 420.982421875 302.232421875 387.551757812 291.858398438 342.619140625 c 2
 277.611328125 280.909179688 l 1
 85.8515625 280.909179688 l 1
 99.6279296875 340.579101562 l 2
 110.15234375 386.166992188 125.314453125 420.022460938 146.990234375 441.637695312 c 0
 168.512695312 463.098632812 195.375976562 473.689453125 225.728515625 473.689453125 c 0
303.916992188 710.329101562 m 1
 246.67578125 710.329101562 l 1
 127.971679688 579.768554688 l 1
 177.932617188 579.768554688 l 1
 269.69921875 677.1875 l 1
 315.401367188 579.768554688 l 1
 365.075195312 579.768554688 l 1
 303.916992188 710.329101562 l 1
EndSplineSet
EndChar

StartChar: edieresis
Encoding: 235 235 172
Width: 407
GlyphClass: 2
Flags: MW
HStem: -7.75 44.8799<113.509 150.154> 473.689 46.9209<211.897 240.886>
VStem: 50.5137 54.0596 296.333 53.04
LayerCount: 2
Fore
SplineSet
245.484375 146.26953125 m 1
 238.500976562 117.669921875 215.629882812 37.1298828125 129.021484375 37.1298828125 c 0
 97.9970703125 37.1298828125 75.2958984375 47.8642578125 62.7294921875 69.548828125 c 0
 49.9921875 91.5283203125 50.1650390625 126.333984375 61.0078125 173.298828125 c 2
 77.138671875 243.169921875 l 1
 321.938476562 243.169921875 l 1
 344.8984375 342.620117188 l 2
 358.774414062 402.719726562 355.08203125 446.873046875 335.381835938 476.21875 c 0
 315.581054688 505.71484375 282.826171875 520.610351562 235.541992188 520.610351562 c 0
 188.252929688 520.610351562 149.0078125 505.71875 116.302734375 476.288085938 c 0
 83.6982421875 446.94921875 59.921875 402.75 46.0390625 342.620117188 c 2
 6.7138671875 172.280273438 l 2
 -27.416015625 24.4482421875 40.390625 -7.75 116.620117188 -7.75 c 0
 183.6875 -7.75 267.51953125 19.763671875 298.515625 146.26953125 c 1
 245.484375 146.26953125 l 1
225.728515625 473.689453125 m 0
 256.043945312 473.689453125 278.173828125 463.317382812 290.23046875 442.265625 c 0
 302.418945312 420.982421875 302.232421875 387.551757812 291.858398438 342.619140625 c 2
 277.611328125 280.909179688 l 1
 85.8515625 280.909179688 l 1
 99.6279296875 340.579101562 l 2
 110.15234375 386.166992188 125.314453125 420.022460938 146.990234375 441.637695312 c 0
 168.512695312 463.098632812 195.375976562 473.689453125 225.728515625 473.689453125 c 0
218.01953125 663.409179688 m 1
 156.819335938 663.409179688 l 1
 140.099609375 590.989257812 l 1
 201.299804688 590.989257812 l 1
 218.01953125 663.409179688 l 1
373.059570312 663.409179688 m 1
 311.859375 663.409179688 l 1
 295.139648438 590.989257812 l 1
 356.33984375 590.989257812 l 1
 373.059570312 663.409179688 l 1
EndSplineSet
EndChar

StartChar: igrave
Encoding: 236 236 173
Width: 193
GlyphClass: 2
Flags: W
LayerCount: 2
Fore
SplineSet
154.607421875 512.450195312 m 1
 100.547851562 512.450195312 l 1
 -17.666015625 0.41015625 l 1
 36.3935546875 0.41015625 l 1
 154.607421875 512.450195312 l 1
75.1064453125 704.209960938 m 1
 146.513671875 587.9296875 l 1
 185.326171875 587.9296875 l 1
 130.14453125 704.209960938 l 1
 75.1064453125 704.209960938 l 1
EndSplineSet
EndChar

StartChar: iacute
Encoding: 237 237 174
Width: 193
GlyphClass: 2
Flags: W
LayerCount: 2
Fore
SplineSet
154.607421875 512.450195312 m 1
 100.547851562 512.450195312 l 1
 -17.666015625 0.41015625 l 1
 36.3935546875 0.41015625 l 1
 154.607421875 512.450195312 l 1
258.391601562 704.209960938 m 1
 203.353515625 704.209960938 l 1
 94.4814453125 587.9296875 l 1
 133.293945312 587.9296875 l 1
 258.391601562 704.209960938 l 1
EndSplineSet
EndChar

StartChar: icircumflex
Encoding: 238 238 175
Width: 193
GlyphClass: 2
Flags: W
LayerCount: 2
Fore
SplineSet
154.607421875 512.450195312 m 1
 100.547851562 512.450195312 l 1
 -17.666015625 0.41015625 l 1
 36.3935546875 0.41015625 l 1
 154.607421875 512.450195312 l 1
200.897460938 710.330078125 m 1
 143.655273438 710.330078125 l 1
 24.9521484375 579.76953125 l 1
 74.9140625 579.76953125 l 1
 166.6796875 677.188476562 l 1
 212.381835938 579.76953125 l 1
 262.055664062 579.76953125 l 1
 200.897460938 710.330078125 l 1
EndSplineSet
EndChar

StartChar: idieresis
Encoding: 239 239 176
Width: 193
GlyphClass: 2
Flags: W
LayerCount: 2
Fore
SplineSet
154.607421875 512.450195312 m 1
 100.547851562 512.450195312 l 1
 -17.666015625 0.41015625 l 1
 36.3935546875 0.41015625 l 1
 154.607421875 512.450195312 l 1
114.999023438 663.41015625 m 1
 53.7998046875 663.41015625 l 1
 37.080078125 590.990234375 l 1
 98.279296875 590.990234375 l 1
 114.999023438 663.41015625 l 1
270.0390625 663.41015625 m 1
 208.83984375 663.41015625 l 1
 192.120117188 590.990234375 l 1
 253.319335938 590.990234375 l 1
 270.0390625 663.41015625 l 1
EndSplineSet
EndChar

StartChar: eth
Encoding: 240 240 177
Width: 404
GlyphClass: 2
Flags: MW
HStem: -8.76953 47.9395<100.284 148.553> 419.63 46.9199<176.387 217.191 176.387 236.298>
VStem: 50.5137 54.0596 293.273 54.0596
LayerCount: 2
Fore
SplineSet
112.3046875 -8.76953125 m 0
 184.801757812 -8.76953125 268.78515625 21.7734375 304.474609375 176.360351562 c 2
 328.0234375 278.360351562 l 2
 348.079101562 365.233398438 345.890625 420.633789062 314.232421875 510.126953125 c 2
 288.165039062 585.70703125 l 1
 365.78125 608.7578125 l 1
 363.420898438 646.078125 l 1
 276.395507812 620.071289062 l 1
 251.315429688 691.969726562 l 1
 191.458007812 691.969726562 l 1
 222.1875 603.387695312 l 1
 140.372070312 579.358398438 l 1
 143.469726562 541.982421875 l 1
 233.913085938 569.044921875 l 1
 278.659179688 442.09375 l 1
 257.594726562 455.239257812 l 2
 245.833007812 462.578125 228.661132812 466.549804688 205.720703125 466.549804688 c 0
 147.052734375 466.549804688 69.0712890625 442.381835938 33.7939453125 289.580078125 c 2
 7.1845703125 174.3203125 l 2
 -28.1748046875 21.1630859375 41.0673828125 -8.76953125 112.3046875 -8.76953125 c 0
212.228515625 419.629882812 m 0
 260.368164062 419.629882812 300.763671875 394.443359375 278.4375 297.740234375 c 2
 247.118164062 162.080078125 l 2
 239.7109375 129.997070312 215.572265625 39.169921875 124.392578125 39.169921875 c 0
 76.1748046875 39.169921875 35.919921875 64.6318359375 58.41796875 162.080078125 c 2
 89.97265625 298.759765625 l 2
 97.296875 330.481445312 121.150390625 419.629882812 212.228515625 419.629882812 c 0
EndSplineSet
EndChar

